<?xml version="1.0" encoding="UTF-8"?>
<svg width="18px" height="20px" viewBox="0 0 18 20" version="1.1" xmlns="http://www.w3.org/2000/svg" xmlns:xlink="http://www.w3.org/1999/xlink">
    <!-- Generator: Sketch 55.1 (78136) - https://sketchapp.com -->
    <title>形状</title>
    <desc>Created with Sketch.</desc>
    <g id="页面-1" stroke="none" stroke-width="1" fill="none" fill-rule="evenodd">
        <g id="1440&quot;-Web-" transform="translate(-411.000000, -1583.000000)" fill="#000000" fill-rule="nonzero">
            <g id="Screen_3" transform="translate(120.000000, 1467.000000)">
                <g id="Content" transform="translate(0.000000, 113.000000)">
                    <g id="github" transform="translate(291.000000, 3.000000)">
                        <g id="discord" transform="translate(0.000000, 0.500000)">
                            <path d="M15.4972695,0 C16.6396445,0 17.5610195,0.9238125 17.615457,2.0109375 L17.615457,19.5 L15.4403945,17.6531875 L14.2460195,16.5660625 L12.9427695,15.4301875 L13.4871445,17.22175 L2.08126952,17.22175 C0.942144519,17.22175 0.0175195312,16.3564375 0.0175195312,15.21 L0.0175195312,2.01499999 C0.0175195312,0.927874994 0.943769531,0.0024375 2.08533204,0.0024375 L15.491582,0.0024375 L15.4972695,0 Z M10.5263945,4.61743751 L10.5020195,4.61743751 L10.3378945,4.7799375 C12.022207,5.2674375 12.8371445,6.02875001 12.8371445,6.02875001 C11.7516445,5.48600001 10.7733945,5.21462501 9.79514454,5.10493751 C9.08826954,4.99525001 8.38139454,5.0529375 7.78420704,5.10493751 L7.62170702,5.10493751 C7.23983203,5.10493751 6.42733202,5.2674375 5.33858203,5.70212501 C4.95914454,5.8670625 4.74139453,5.97512501 4.74139453,5.97512501 C4.74139453,5.97512501 5.55551953,5.16100001 7.34951953,4.7263125 L7.23983203,4.616625 C7.23983203,4.616625 5.88133202,4.56462499 4.41476953,5.64850001 C4.41476953,5.64850001 2.94820704,8.20300001 2.94820704,11.35225 C2.94820704,11.35225 3.76070704,12.766 5.98939453,12.819625 C5.98939453,12.819625 6.31439454,12.3865625 6.64345704,12.0055 C5.39220703,11.62525 4.90470703,10.86475 4.90470703,10.86475 C4.90470703,10.86475 5.01358202,10.918375 5.17689452,11.02725 L5.22564452,11.02725 C5.25001952,11.02725 5.26139452,11.0394375 5.27439452,11.051625 L5.27439452,11.0565 C5.28739453,11.0695 5.29876952,11.080875 5.32314452,11.080875 C5.59126952,11.191375 5.85939452,11.30025 6.07876952,11.405875 C6.54793245,11.6067103 7.03866612,11.7528399 7.54126952,11.841375 C8.29689452,11.9510625 9.16301953,12.003875 10.1493945,11.841375 C10.6368945,11.7316875 11.1243945,11.6244375 11.6118945,11.4066875 C11.9287695,11.2441875 12.3187695,11.0816875 12.746957,10.807875 C12.746957,10.807875 12.259457,11.568375 10.9553945,11.948625 C11.2235195,12.32725 11.601332,12.761125 11.601332,12.761125 C13.830832,12.712375 14.696957,11.298625 14.745707,11.35875 C14.745707,8.214375 13.2710195,5.655 13.2710195,5.655 C11.942582,4.66862501 10.699457,4.63125 10.480082,4.63125 L10.525582,4.61500001 L10.5263945,4.61743751 Z M10.6628945,8.20300001 C11.234082,8.20300001 11.6947695,8.69050001 11.6947695,9.28768751 C11.6947695,9.8889375 11.2316445,10.3764375 10.6628945,10.3764375 C10.0941445,10.3764375 9.63101953,9.8889375 9.63101953,9.29256251 C9.63264452,8.69131251 10.096582,8.20543751 10.6628945,8.20543751 L10.6628945,8.20300001 Z M6.97170703,8.20300001 C7.54045704,8.20300001 8.00033203,8.69050001 8.00033203,9.28768751 C8.00033203,9.8889375 7.53720703,10.3764375 6.96845702,10.3764375 C6.39970702,10.3764375 5.93658204,9.8889375 5.93658204,9.29256251 C5.93658204,8.69131251 6.39970704,8.20543751 6.96845702,8.20543751 L6.97170703,8.20300001 Z" id="形状"></path>
                        </g>
                    </g>
                </g>
            </g>
        </g>
    </g>
</svg>