<?xml version="1.0" encoding="UTF-8"?>
<svg width="120px" height="120px" viewBox="0 0 120 120" version="1.1" xmlns="http://www.w3.org/2000/svg" xmlns:xlink="http://www.w3.org/1999/xlink">
    <!-- Generator: Sketch 55.1 (78136) - https://sketchapp.com -->
    <title>icon_Product</title>
    <desc>Created with Sketch.</desc>
    <g id="页面-1" stroke="none" stroke-width="1" fill="none" fill-rule="evenodd">
        <g id="1440&quot;-Web-" transform="translate(-484.000000, -1061.000000)">
            <g id="Screen_2" transform="translate(0.000000, 797.000000)">
                <g id="icon_Product" transform="translate(484.000000, 264.000000)">
                    <rect id="矩形" fill="#FFFFFF" x="0" y="0" width="120" height="120"></rect>
                    <g id="编组-3" transform="translate(16.000000, 23.000000)">
                        <ellipse id="椭圆形" fill="#01081E" opacity="0.0799999982" cx="44" cy="64" rx="44" ry="11"></ellipse>
                        <g id="编组-9" transform="translate(7.000000, 0.000000)">
                            <rect id="矩形" stroke="#01081E" stroke-width="2" x="22" y="1" width="29" height="29"></rect>
                            <polygon id="矩形" fill="#0FCD8C" points="30 7 43 7 43 26 36.5 20.5764485 30 26"></polygon>
                            <rect id="矩形" fill="#01081E" x="23" y="3" width="27" height="2"></rect>
                            <rect id="矩形" fill="#01081E" x="11" y="35" width="52" height="2"></rect>
                            <rect id="矩形" fill="#01081E" x="36" y="29" width="2" height="13"></rect>
                            <rect id="矩形备份-21" fill="#01081E" x="10" y="35" width="2" height="7"></rect>
                            <rect id="矩形备份-22" fill="#01081E" x="62" y="35" width="2" height="7"></rect>
                            <rect id="矩形备份-17" stroke="#01081E" stroke-width="2" fill="#FFFFFF" x="1" y="43" width="20" height="20"></rect>
                            <rect id="矩形备份-19" stroke="#01081E" stroke-width="2" fill="#FFFFFF" x="27" y="43" width="20" height="20"></rect>
                            <rect id="矩形备份-20" stroke="#01081E" stroke-width="2" fill="#FFFFFF" x="53" y="43" width="20" height="20"></rect>
                            <rect id="矩形" fill="#01081E" x="7" y="46" width="8" height="14"></rect>
                            <rect id="矩形备份-23" fill="#01081E" x="33" y="46" width="8" height="14"></rect>
                            <rect id="矩形备份-24" fill="#01081E" x="59" y="46" width="8" height="14"></rect>
                        </g>
                    </g>
                </g>
            </g>
        </g>
    </g>
</svg>