<?xml version="1.0" encoding="UTF-8"?>
<svg width="120px" height="120px" viewBox="0 0 120 120" version="1.1" xmlns="http://www.w3.org/2000/svg" xmlns:xlink="http://www.w3.org/1999/xlink">
    <!-- Generator: Sketch 55.1 (78136) - https://sketchapp.com -->
    <title>icon_wallet</title>
    <desc>Created with Sketch.</desc>
    <g id="页面-1" stroke="none" stroke-width="1" fill="none" fill-rule="evenodd">
        <g id="1440&quot;-Web-" transform="translate(-150.000000, -1141.000000)">
            <g id="Screen_2" transform="translate(0.000000, 797.000000)">
                <g id="icon_wallet" transform="translate(150.000000, 344.000000)">
                    <rect id="矩形" fill="#FFFFFF" x="0" y="0" width="120" height="120"></rect>
                    <g id="编组-3" transform="translate(16.000000, 19.000000)">
                        <ellipse id="椭圆形" fill="#01081E" opacity="0.0799999982" cx="44" cy="70" rx="44" ry="11"></ellipse>
                        <rect id="矩形" stroke="#01081E" stroke-width="2" fill="#FFFFFF" x="8" y="8" width="71" height="54" rx="4"></rect>
                        <circle id="椭圆形" stroke="#0FCD8C" stroke-width="2" fill="#FFFFFF" cx="50" cy="15" r="14"></circle>
                        <circle id="椭圆形" stroke="#0FCD8C" stroke-width="2" fill="#0FCD8C" cx="50" cy="15" r="10"></circle>
                        <circle id="椭圆形备份" stroke="#0FCD8C" stroke-width="2" fill="#FFFFFF" cx="39" cy="15" r="14"></circle>
                        <circle id="椭圆形备份" stroke="#0FCD8C" stroke-width="2" fill="#0FCD8C" cx="39" cy="15" r="10"></circle>
                        <path d="M42.6173915,15.2244793 C42.0779061,14.6725392 40.9055502,14.0302254 39.3590407,13.5376241 C38.4392256,13.2444776 37.9091068,13.0169485 37.9091068,12.3185117 C37.9091068,11.3455851 38.5233208,11.127346 39.2997019,11.127346 C39.8983985,11.127346 40.7777356,11.8507178 40.7777356,12.4369596 L43.1536611,11.8788686 C43.1536611,11.4265922 42.8075053,10.675146 42.124688,10.0890064 C41.5758871,9.62131455 40.8618819,9.35004055 39.9950506,9.25650219 L39.9950506,8 L38.414265,8 L38.414265,9.25956485 C37.497487,9.37183641 36.8521616,9.67121019 36.300196,10.1389531 C35.732764,10.616037 35.38352,11.4079355 35.38352,12.1936833 C35.38352,13.1042084 35.5237638,13.8898796 36.0320357,14.4418708 C36.5371173,14.9967715 38.3643439,15.6172638 39.268514,15.8199346 C40.1416237,16.0164034 40.9492184,16.5652043 40.9554458,17.3291307 C40.9647868,18.2614517 40.1073476,18.6137582 39.3902032,18.6137582 C38.1866593,18.6137582 37.3790646,17.7188781 37.3790646,16.9363206 L35,17.5193211 C35.1527495,18.3487371 35.3897219,19.0097075 36.1661286,19.6271372 C36.7522938,20.0979427 37.4476934,20.3847597 38.414265,20.5001194 L38.414265,22 L39.9950506,22 L39.9950506,20.5220429 C40.8992972,20.4503003 41.6600334,20.101133 42.2899179,19.6364273 C43.0320739,19.0815266 43.4218214,18.3736977 43.4218214,17.3291562 C43.4218214,16.4810325 43.1536866,15.7825957 42.6173915,15.2244793 Z" id="路径" fill="#FFFFFF" fill-rule="nonzero"></path>
                        <rect id="矩形" stroke="#01081E" stroke-width="2" fill="#FFFFFF" x="8" y="19" width="71" height="43" rx="4"></rect>
                        <rect id="矩形" fill="#01081E" x="35" y="22" width="18" height="37"></rect>
                        <rect id="矩形" fill="#FFFFFF" x="21" y="16" width="50" height="2"></rect>
                        <path d="M82,33 L77.5,33 C74.4624339,33 72,35.4624339 72,38.5 C72,41.5375661 74.4624339,44 77.5,44 L82,44 L82,33 Z" id="形状结合" stroke="#01081E" stroke-width="2" fill="#FFFFFF"></path>
                        <rect id="矩形" fill="#FFFFFF" x="9" y="15" width="7" height="9"></rect>
                    </g>
                </g>
            </g>
        </g>
    </g>
</svg>