<?xml version="1.0" encoding="UTF-8"?>
<svg width="120px" height="120px" viewBox="0 0 120 120" version="1.1" xmlns="http://www.w3.org/2000/svg" xmlns:xlink="http://www.w3.org/1999/xlink">
    <!-- Generator: Sketch 55.1 (78136) - https://sketchapp.com -->
    <title>icon_Developer</title>
    <desc>Created with Sketch.</desc>
    <g id="页面-1" stroke="none" stroke-width="1" fill="none" fill-rule="evenodd">
        <g id="1440&quot;-Web-" transform="translate(-826.000000, -1141.000000)">
            <g id="Screen_2" transform="translate(0.000000, 797.000000)">
                <g id="icon_Developer" transform="translate(826.000000, 344.000000)">
                    <rect id="矩形" fill="#FFFFFF" x="0" y="0" width="120" height="120"></rect>
                    <g id="编组-3" transform="translate(16.000000, 27.000000)">
                        <ellipse id="椭圆形" fill="#01081E" opacity="0.0799999982" cx="44" cy="62" rx="44" ry="11"></ellipse>
                        <rect id="矩形" stroke="#01081E" stroke-width="2" fill="#FFFFFF" x="8" y="1" width="71" height="44" rx="4"></rect>
                        <rect id="矩形" stroke="#01081E" stroke-width="2" fill="#FFFFFF" x="32" y="47" width="22" height="8"></rect>
                        <rect id="矩形" stroke="#01081E" stroke-width="2" fill="#FFFFFF" x="27" y="55" width="32" height="3" rx="1.5"></rect>
                        <rect id="矩形" fill="#01081E" x="20" y="57" width="45" height="2"></rect>
                        <path d="M79,7 L8,7 L8,44 C8,45.6568542 9.34314575,47 11,47 L76,47 C77.6568542,47 79,45.6568542 79,44 L79,7 Z" id="形状结合" stroke="#01081E" stroke-width="2" fill="#FFFFFF"></path>
                        <rect id="矩形" fill="#01081E" x="35" y="34" width="18" height="10"></rect>
                        <path d="M78,16 L78,28 C78,30.209139 76.209139,32 74,32 L31,32 C28.790861,32 27,30.209139 27,28 L27,16 L27,10 L78,10 L78,16 Z" id="形状结合" fill="#0FCD8C"></path>
                        <rect id="矩形" fill="#FFFFFF" transform="translate(53.000000, 21.322396) rotate(-345.000000) translate(-53.000000, -21.322396) " x="52" y="14.8223956" width="2" height="13"></rect>
                        <path d="M35.4447238,20.8223956 L42.022647,27.4003187 L40.7781746,28.6447911 L33,20.8666165 L33.044221,20.8223956 L33,20.7781746 L40.7781746,13 L42.022647,14.2444724 L35.4447238,20.8223956 Z" id="形状结合" fill="#FFFFFF"></path>
                        <path d="M65.9862893,20.8223956 L72.5642124,27.4003187 L71.3197401,28.6447911 L63.5415655,20.8666165 L63.5857864,20.8223956 L63.5415655,20.7781746 L71.3197401,13 L72.5642124,14.2444724 L65.9862893,20.8223956 Z" id="形状结合备份" fill="#FFFFFF" transform="translate(68.052889, 20.822396) scale(-1, 1) translate(-68.052889, -20.822396) "></path>
                        <rect id="矩形" fill="#FFFFFF" x="78" y="8" width="7" height="27"></rect>
                    </g>
                </g>
            </g>
        </g>
    </g>
</svg>