<?xml version="1.0" encoding="UTF-8"?>
<svg width="120px" height="120px" viewBox="0 0 120 120" version="1.1" xmlns="http://www.w3.org/2000/svg" xmlns:xlink="http://www.w3.org/1999/xlink">
    <!-- Generator: Sketch 55.1 (78136) - https://sketchapp.com -->
    <title>icon_Broker</title>
    <desc>Created with Sketch.</desc>
    <g id="页面-1" stroke="none" stroke-width="1" fill="none" fill-rule="evenodd">
        <g id="1440&quot;-Web-" transform="translate(-483.000000, -1141.000000)">
            <g id="Screen_2" transform="translate(0.000000, 797.000000)">
                <g id="icon_Broker" transform="translate(483.000000, 344.000000)">
                    <rect id="矩形" fill="#FFFFFF" x="0" y="0" width="120" height="120"></rect>
                    <g id="编组-3" transform="translate(16.000000, 20.000000)">
                        <ellipse id="椭圆形" fill="#01081E" opacity="0.0799999982" cx="44" cy="69" rx="44" ry="11"></ellipse>
                        <g id="人" transform="translate(8.000000, 0.000000)">
                            <g id="编组-11" transform="translate(46.628458, 0.115289)" fill="#01081E" fill-rule="nonzero">
                                <path d="M9.44055509,30.955023 C12.6706674,27.8959538 14.6855516,23.5666269 14.6855516,18.7666986 C14.6855516,10.2076664 8.27891754,3.14498374 -0.000438702415,2.11256263 L-0.000438702415,-4.85012685e-05 C9.44045115,1.04358893 16.7835503,9.04760741 16.7835503,18.7666986 C16.7835503,24.8494842 13.9072574,30.2604757 9.44055509,33.7137895 L9.44055509,30.955023 Z" id="形状结合"></path>
                                <path d="M13.8657535,57.8300022 C12.1247124,57.8310066 10.492151,56.9601916 9.48973355,55.4958142 C8.47098554,53.9833148 8.22926964,52.0562381 8.84143428,50.327257 C11.7842517,41.9611873 18.2960468,35.4468208 26.5075891,32.6541259 L27.3906386,34.4340981 C21.7535076,36.3781802 18.3447992,38.7511815 14.1524674,44.2380094 C13.0811516,45.6401229 10.4331272,49.8412624 10.4331272,52.0432707 C10.4331272,53.4353129 11.0267046,54.161675 11.4784805,54.7837251 C11.8720193,55.3615633 13.144166,55.9002256 13.8657535,55.8976276 L13.8657535,57.8300022 Z" id="路径备份-2" transform="translate(17.949645, 45.242064) scale(-1, 1) rotate(-5.000000) translate(-17.949645, -45.242064) "></path>
                            </g>
                            <path d="M6.75682579,60.8420811 C4.71429377,60.8431042 2.79902655,59.8501642 1.6230234,58.1804194 C0.427861814,56.4558038 0.144288688,54.2584696 0.862460062,52.2870125 C4.31487652,42.7476669 11.9542998,35.3197115 21.5878107,32.135363 L22.6237751,34.1649624 C16.0104789,36.3816868 12.0114945,39.087483 7.09318903,45.3437955 C5.83635671,46.9425445 2.7297817,51.7328609 2.7297817,54.2436837 C2.7297817,55.8309489 3.42614718,56.6591776 3.95615574,57.3684653 C4.4178425,58.0273408 5.9102831,58.6415462 6.75682579,58.6385839 L6.75682579,60.8420811 Z" id="路径" fill="#01081E" fill-rule="nonzero"></path>
                            <path d="M48.3469811,60.8420811 C46.304449,60.8431042 44.3891818,59.8501642 43.2131787,58.1804194 C42.0180171,56.4558038 41.7344439,54.2584696 42.4526153,52.2870125 C45.9050318,42.7476669 53.5444551,35.3197115 63.1779659,32.135363 L64.2139304,34.1649624 C57.6006342,36.3816868 53.6016498,39.087483 48.6833443,45.3437955 C47.426512,46.9425445 44.319937,51.7328609 44.319937,54.2436837 C44.319937,55.8309489 45.0163024,56.6591776 45.546311,57.3684653 C46.0079978,58.0273408 47.5004384,58.6415462 48.3469811,58.6385839 L48.3469811,60.8420811 Z" id="路径备份" fill="#01081E" fill-rule="nonzero" transform="translate(53.138068, 46.488722) scale(-1, 1) translate(-53.138068, -46.488722) "></path>
                            <path d="M31.942029,37.7639752 C21.5137952,37.7639752 13.0600414,29.3102214 13.0600414,18.8819876 C13.0600414,8.45375379 21.5137952,0 31.942029,0 C42.3702628,0 50.8240166,8.45375379 50.8240166,18.8819876 C50.8240166,29.3102214 42.3702628,37.7639752 31.942029,37.7639752 L31.942029,37.7639752 Z M31.942029,2.09799862 C22.6724878,2.09799862 15.15804,9.61244643 15.15804,18.8819876 C15.15804,28.1515287 22.6724878,35.6659765 31.942029,35.6659765 C41.2115701,35.6659765 48.7260179,28.1515287 48.7260179,18.8819876 C48.7260179,9.61244643 41.2115701,2.09799862 31.942029,2.09799862 L31.942029,2.09799862 Z" id="形状" fill="#01081E" fill-rule="nonzero"></path>
                            <rect id="矩形" fill="#01081E" x="22.5010352" y="39.8427397" width="18.8819876" height="10.4347826"></rect>
                            <rect id="矩形" fill="#0FCD8C" x="12.0347524" y="52.3567123" width="40.6027397" height="14.6859903"></rect>
                            <g id="普货委托" transform="translate(23.550035, 57.694962)"></g>
                            <path d="M40.2245457,59.7796921 C40.0178753,59.5639218 36.6537184,56.640001 36.4367347,56.4349484 C36.3319635,56.3121618 36.1836418,56.2348112 36.0229895,56.2191781 L30.6566374,56.2191781 C30.6566374,56.2191781 29.8186315,56.3271644 29.8186315,57.060824 C29.8063467,57.5738078 30.1565597,58.0246733 30.6566374,58.1396757 C31.1900978,58.236742 32.1261811,58.4525124 32.9753092,58.5495787 C33.290977,58.5495787 32.9753092,58.7655513 32.9753092,58.7655513 L31.8867508,59.4882909 L28.3490878,59.4882909 C28.3490878,59.4882909 26.8795442,58.4634323 25.8237457,57.5787133 C24.2563268,56.4349484 23.6468312,57.5787133 23.6468312,57.5787133 C23.6468312,57.5787133 23.4290386,57.999334 23.6468312,58.2043866 C24.4850393,58.9390573 27.5335285,61.6569143 27.7395922,61.8619669 C27.8821807,61.9878405 28.08074,62.0288448 28.2615259,61.969751 L34.4664906,61.969751 C34.7747445,61.9679026 35.0729482,62.0792972 35.3044965,62.2827899 C35.5354334,62.4850114 36.2514998,63.1242336 36.5673698,63.3616416 C37.0897079,63.7824646 37.3075005,63.3616416 37.3075005,63.3616416 L40.1375904,60.3299368 C40.2346656,60.2886972 40.3054453,60.2026006 40.327129,60.0993818 C40.3488126,59.996163 40.3186604,59.8888632 40.2463856,59.8120475 L40.2245457,59.7796921 Z" id="路径" fill="#FFFFFF" fill-rule="nonzero"></path>
                        </g>
                    </g>
                </g>
            </g>
        </g>
    </g>
</svg>