<?xml version="1.0" encoding="UTF-8"?>
<svg width="120px" height="120px" viewBox="0 0 120 120" version="1.1" xmlns="http://www.w3.org/2000/svg" xmlns:xlink="http://www.w3.org/1999/xlink">
    <!-- Generator: Sketch 55.1 (78136) - https://sketchapp.com -->
    <title>icon_Problem</title>
    <desc>Created with Sketch.</desc>
    <g id="页面-1" stroke="none" stroke-width="1" fill="none" fill-rule="evenodd">
        <g id="1440&quot;-Web-" transform="translate(-1153.000000, -1061.000000)">
            <g id="Screen_2" transform="translate(0.000000, 797.000000)">
                <g id="icon_Problem" transform="translate(1153.000000, 264.000000)">
                    <rect id="矩形" fill="#FFFFFF" x="0" y="0" width="120" height="120"></rect>
                    <g id="编组-3" transform="translate(16.000000, 21.000000)">
                        <ellipse id="椭圆形" fill="#01081E" opacity="0.0799999982" cx="44" cy="66" rx="44" ry="11"></ellipse>
                        <g id="编组-22" transform="translate(15.000000, 0.000000)">
                            <path d="M54.8823529,47.1246557 L54.8823529,4.02337858 L1,4.02337858 L1,65.428356 L36.5786527,65.428356 L54.8823529,47.1246557 Z" id="形状结合" stroke="#01081E" stroke-width="2" fill="#FFFFFF"></path>
                            <rect id="矩形备份-25" fill="#01081E" x="1.94871795" y="60.4102564" width="38.974359" height="2.14932127"></rect>
                            <g id="编组-21" transform="translate(50.899466, 60.319814) rotate(-315.000000) translate(-50.899466, -60.319814) translate(47.002030, 42.781353)">
                                <path d="M6.52262443,28.7006149 L6.52262443,1 L1,1 L1,28.7006149 L3.76131222,32.6453466 L6.52262443,28.7006149 Z" id="形状结合" stroke="#01081E" stroke-width="2" fill="#FFFFFF"></path>
                                <rect id="矩形" fill="#01081E" x="1.32862946" y="3.91085237" width="4.87179487" height="2.14932127"></rect>
                            </g>
                            <rect id="矩形" fill="#01081E" x="17.5384615" y="26.0927602" width="20.2917287" height="32.1538462"></rect>
                            <g id="问号1" transform="translate(13.970588, -0.000000)" fill="#0FCD8C" fill-rule="nonzero" stroke="#FFFFFF" stroke-width="2">
                                <path d="M13.9705882,-1 C22.2386158,-1 28.9411765,5.70256066 28.9411765,13.9705882 C28.9411765,22.2385184 22.2385184,28.9411765 13.9705882,28.9411765 C5.70265807,28.9411765 -1,22.2385184 -1,13.9705882 C-1,5.70265807 5.70265807,-1 13.9705882,-1 Z M13.9691605,7.03063752 C11.9501871,7.03140893 10.3137255,8.66834641 10.3137255,10.6875 C10.3137255,10.7781938 10.3872474,10.8517157 10.4779412,10.8517157 C10.568635,10.8517157 10.6421569,10.7781938 10.6421569,10.6875 C10.6421569,8.84925812 12.1323464,7.35906864 13.9705882,7.35906864 C15.8088301,7.35906864 17.2990196,8.84925812 17.2990196,10.6875 C17.2990196,12.5257419 15.8088301,14.0159314 13.9705882,14.0159314 C13.8798944,14.0159314 13.8063725,14.0894532 13.8063725,14.1801471 L13.8063725,17.21875 C13.8063725,17.3094438 13.8798944,17.3829657 13.9705882,17.3829657 C14.0612821,17.3829657 14.1348039,17.3094438 14.1348039,17.21875 L14.1348039,14.4207755 L14.8819485,14.2255106 C16.6596729,13.7609056 17.8165964,12.0493064 17.5849855,10.2265287 C17.3534346,8.40422321 15.8059608,7.03658847 13.9691606,7.03063752 Z M13.8063725,20.8278186 C13.8063725,20.9185125 13.8798944,20.9920343 13.9705882,20.9920343 C14.0612821,20.9920343 14.1348039,20.9185125 14.1348039,20.8278186 C14.1348039,20.7371248 14.0612821,20.6636029 13.9705882,20.6636029 C13.8798944,20.6636029 13.8063725,20.7371248 13.8063725,20.8278186 Z" id="形状"></path>
                            </g>
                        </g>
                    </g>
                </g>
            </g>
        </g>
    </g>
</svg>