<?xml version="1.0" encoding="UTF-8"?>
<svg width="460px" height="372px" viewBox="0 0 460 372" version="1.1" xmlns="http://www.w3.org/2000/svg" xmlns:xlink="http://www.w3.org/1999/xlink">
    <!-- Generator: Sketch 55.1 (78136) - https://sketchapp.com -->
    <title>VI</title>
    <desc>Created with Sketch.</desc>
    <defs>
        <radialGradient cx="66.9666271%" cy="33.146772%" fx="66.9666271%" fy="33.146772%" r="66.1216325%" gradientTransform="translate(0.669666,0.331468),scale(0.998907,1.000000),rotate(124.249341),translate(-0.669666,-0.331468)" id="radialGradient-1">
            <stop stop-color="#E9E9E9" offset="0%"></stop>
            <stop stop-color="#C1C1C1" offset="100%"></stop>
        </radialGradient>
        <ellipse id="path-2" cx="274.114598" cy="97.1568097" rx="5.80136139" ry="5.79502055"></ellipse>
        <filter x="-51.7%" y="-51.8%" width="203.4%" height="203.5%" filterUnits="objectBoundingBox" id="filter-3">
            <feOffset dx="0" dy="0" in="SourceAlpha" result="shadowOffsetOuter1"></feOffset>
            <feGaussianBlur stdDeviation="2" in="shadowOffsetOuter1" result="shadowBlurOuter1"></feGaussianBlur>
            <feColorMatrix values="0 0 0 0 1   0 0 0 0 1   0 0 0 0 1  0 0 0 0.5 0" type="matrix" in="shadowBlurOuter1"></feColorMatrix>
        </filter>
        <radialGradient cx="50%" cy="5.40477804%" fx="50%" fy="5.40477804%" r="63.7519513%" gradientTransform="translate(0.500000,0.054048),scale(0.540541,1.000000),rotate(90.000000),scale(1.000000,2.333885),translate(-0.500000,-0.054048)" id="radialGradient-4">
            <stop stop-color="#0FCD8C" stop-opacity="0" offset="0%"></stop>
            <stop stop-color="#0FCD8C" stop-opacity="0" offset="43.6025592%"></stop>
            <stop stop-color="#0FCD8C" offset="100%"></stop>
        </radialGradient>
        <radialGradient cx="53.4919829%" cy="0%" fx="53.4919829%" fy="0%" r="90.906175%" gradientTransform="translate(0.534920,0.000000),scale(0.544305,1.000000),rotate(87.746006),scale(1.000000,2.225396),translate(-0.534920,-0.000000)" id="radialGradient-5">
            <stop stop-color="#0FCD8C" stop-opacity="0" offset="0%"></stop>
            <stop stop-color="#0FCD8C" stop-opacity="0.24" offset="28.9880701%"></stop>
            <stop stop-color="#0FCD8C" offset="100%"></stop>
        </radialGradient>
    </defs>
    <g id="页面-1" stroke="none" stroke-width="1" fill="none" fill-rule="evenodd">
        <g id="内页" transform="translate(-741.000000, -278.000000)">
            <g id="VI" transform="translate(721.000000, 213.000000)">
                <g id="ball" transform="translate(63.356436, 65.831683)">
                    <path d="M316.416875,316.071034 C282.875911,349.578055 236.537102,370.301219 185.352519,370.301219 C134.169296,370.301219 87.8304863,349.578055 54.2895224,316.071034 C20.7471983,282.56673 -2.37586686e-12,236.27721 -2.37586686e-12,185.14993 C-2.37586686e-12,134.02265 20.7471983,87.7358469 54.2895224,54.2301844 C87.8304863,20.7245218 134.169296,-1.96307435e-12 185.352519,-1.96307435e-12 C236.537102,-1.96307435e-12 282.875911,20.7245218 316.416875,54.2301844 C349.959199,87.7344883 370.706398,134.02265 370.706398,185.14993 C370.706398,236.27721 349.959199,282.56673 316.416875,316.071034 Z M357.173866,249.162958 C364.618649,229.238616 368.689207,207.667724 368.689207,185.14993 C368.689207,179.369344 368.418562,173.653968 367.893592,168.009236 C366.907573,167.088146 365.941954,166.543371 365.036177,166.304268 C363.935916,166.017617 362.913176,166.187434 362.053639,166.692811 C360.448809,167.634279 358.652214,167.217207 356.938581,166.175207 C354.618377,164.76776 352.428735,162.181101 351.242792,160.518248 C350.677021,159.730295 349.729083,159.415114 348.846426,159.483041 C348.468339,159.512929 348.105212,159.612102 347.797846,159.77241 C347.50952,159.923208 347.266076,160.128347 347.104232,160.379677 C346.814547,160.825278 346.769666,161.458358 347.149113,162.259896 C347.883527,163.80999 347.924328,165.557072 347.963769,167.251171 C348.01817,169.572915 348.069851,171.777825 350.213252,172.652724 C351.67256,173.249123 352.956425,173.030398 354.126047,172.830693 C356.37145,172.448943 358.268687,172.126969 360.402568,175.858878 C361.55179,177.865441 362.363725,179.753811 362.724132,181.405795 C362.992057,182.636632 363.009738,183.75471 362.729572,184.71248 C362.431727,185.732743 361.812915,186.551943 360.822816,187.115737 C360.346807,187.386086 359.786476,187.599377 359.136383,187.739307 C357.236427,188.152303 356.304809,189.296193 355.359591,190.455027 C354.189968,191.891004 353.002666,193.348717 350.270373,193.893491 C347.657763,194.416529 345.42052,193.901642 343.062235,192.450722 C340.810032,191.065011 338.459906,188.820704 335.53177,185.795236 C331.760418,181.90302 331.912741,180.25647 332.086824,178.3681 C332.177946,177.377725 332.275868,176.308554 331.530573,174.615814 C330.420792,172.097081 328.666358,169.479176 327.144489,167.927723 C326.633119,167.407403 326.16119,167.020219 325.769503,166.819155 C325.573659,166.717264 325.452617,166.66564 325.434936,166.677867 C325.429496,166.683301 325.419976,166.702321 325.403656,166.737643 C325.017408,167.584013 324.433957,168.064936 323.857306,168.536349 C322.99641,169.241431 322.165434,169.924777 322.936568,172.56306 C323.167773,173.359165 323.378577,174.132174 323.575781,174.853558 C324.436677,177.99586 325.002448,180.067633 326.67392,181.181636 L326.67256,181.182994 L326.935045,181.355529 C327.848983,181.961438 328.20667,182.197823 328.592917,182.864866 C328.810521,183.243899 329.000925,183.708519 329.311011,184.47066 C329.683658,185.39175 330.238549,186.758441 331.175607,188.801684 C332.696116,192.127389 333.785497,194.211389 334.847677,195.814466 C335.892177,197.390372 336.925797,198.516601 338.338864,199.926765 C339.303123,200.88997 341.079317,200.645433 342.859591,200.400896 C345.840768,199.991975 348.832826,199.578979 349.890926,203.536405 C351.000707,207.696253 350.054129,208.364655 348.222174,209.664777 C347.369437,210.267969 346.275976,211.042337 345.155315,212.623677 C343.810249,214.520198 343.708247,216.767222 343.600805,219.140591 C343.459362,222.292403 343.307039,225.650713 340.499946,229.013099 C338.333424,231.611985 336.872756,232.725987 335.813296,233.535677 C334.624633,234.443181 334.015341,234.90916 333.43325,237.088258 C333.144924,238.166938 332.885159,238.872021 332.694756,239.385549 C332.512512,239.87734 332.41187,240.151765 332.437711,240.309355 C332.478512,240.568837 332.798118,240.994059 333.523012,241.95183 C333.731096,242.226255 333.97182,242.545512 334.366228,243.080776 C336.428027,245.871217 336.441628,248.092429 336.459308,251.143709 C336.468828,252.738634 336.479708,254.576738 336.818355,256.880822 C337.222283,259.625072 337.790774,260.357325 338.704711,260.224188 C339.368404,260.125014 340.255141,259.722887 341.335002,259.231095 C342.257099,258.811306 343.30976,258.330383 344.479382,257.911953 C347.414318,256.864519 348.02905,255.643192 348.718583,254.269709 C349.268034,253.176084 349.855565,252.002306 351.373354,250.738864 C352.109128,250.12888 353.054347,249.724035 354.130127,249.476781 C355.060385,249.266207 356.095365,249.171109 357.173866,249.162958 Z M185.352247,368.287863 C235.980579,368.287863 281.814819,347.7875 314.991296,314.647285 C323.612501,306.032785 331.37825,296.567839 338.153901,286.382868 C337.718692,285.973948 337.298444,285.611217 336.913557,285.305546 C336.06762,284.633069 335.418888,284.230941 335.157763,284.100521 C333.784137,283.414459 334.364868,281.168793 335.032641,278.578058 C335.51953,276.693763 336.06218,274.593461 335.897617,273.127597 C335.727614,271.604674 334.881678,269.121264 333.725656,267.228818 C333.218366,266.397392 332.662115,265.697744 332.094984,265.272521 C331.646176,264.93832 331.204167,264.792956 330.801599,264.93832 C330.575835,265.018474 330.340551,265.192367 330.091666,265.470868 C328.097867,267.711099 327.458655,270.932197 326.705201,274.738825 C326.359754,276.481831 325.991187,278.343031 325.441736,280.356386 C324.424437,284.08286 321.96551,285.503893 318.989773,287.226521 C316.632847,288.589136 313.926395,290.155532 311.449788,293.312779 C309.291426,296.063821 307.821238,298.60429 306.469372,300.940978 C304.325971,304.648433 302.465455,307.861379 298.604341,310.755069 C297.047111,311.922054 295.570123,312.450526 294.218257,312.515736 C293.001034,312.57687 291.896692,312.265765 290.928354,311.715556 C289.984496,311.177574 289.1712,310.411358 288.518388,309.540534 C287.370526,308.012177 286.695953,306.138751 286.619791,304.611753 C286.53683,302.991015 285.278805,300.56738 283.97454,298.058157 C282.38467,294.997368 280.733598,291.819744 280.84512,289.355353 C280.929442,287.495512 281.744097,286.074479 282.560113,284.65073 C283.646774,282.75285 284.736155,280.852253 283.589653,277.932752 C283.097323,276.680178 282.615874,275.778108 282.179306,274.954833 C280.730878,272.235036 279.733979,270.36161 279.882222,259.959272 C279.981504,253.010342 279.822381,246.40784 279.376292,240.932925 C278.969644,235.922631 278.324992,231.894561 277.424655,229.465492 C276.540638,227.081255 274.627081,222.884726 272.200794,219.556304 C271.013491,217.927415 269.713306,216.514534 268.369601,215.65322 C267.133337,214.863908 265.860353,214.551444 264.617289,215.011989 C264.269122,215.141051 263.918235,215.329888 263.561908,215.58801 C260.297846,217.958662 257.91372,219.592985 255.718638,219.905449 C253.386193,220.23965 251.431835,219.140591 249.220433,215.986062 C247.227995,213.143997 241.367642,211.849309 235.879937,210.640209 C230.83696,209.526206 226.091829,208.480131 224.402677,206.197784 C222.742085,203.954835 221.093733,199.983824 219.967631,196.179913 C218.781689,192.177655 218.171037,188.284081 218.709607,186.667419 C219.268578,184.995056 221.063812,182.931435 223.166413,180.515951 C224.968447,178.444178 227.003046,176.106132 228.607877,173.615929 C230.427592,170.787449 230.626156,169.191165 230.81112,167.711715 C230.978403,166.369478 231.133446,165.112829 232.251387,163.254347 C233.654934,160.917659 237.07404,160.719312 240.2157,160.538626 C242.684148,160.394621 244.949951,160.264201 245.264117,159.196389 C245.760527,157.513159 246.358938,155.726679 247.317757,154.161641 C248.313296,152.539545 249.682842,151.174213 251.695681,150.43245 C252.431455,150.163459 253.480035,149.640422 254.727179,149.022286 C259.619193,146.595934 267.420302,142.721379 273.072571,145.464271 C275.924546,146.847264 278.584757,148.690802 281.077685,150.416148 C284.46279,152.760987 287.529649,154.884384 290.157219,155.200924 C292.349581,155.461764 293.055435,154.809665 293.86329,154.061109 C294.798988,153.19572 295.842128,152.229798 298.450658,151.930919 C301.185671,151.61438 303.658198,152.786799 306.107605,153.946992 C308.323088,154.997143 310.51817,156.036426 312.691492,155.776945 C315.036177,155.494369 316.974214,154.819175 318.31112,153.732343 C319.506583,152.75827 320.221956,151.437769 320.304918,149.759973 C320.40556,147.680049 316.499565,145.649032 313.376945,144.024219 C311.513709,143.05558 309.902078,142.216003 309.291426,141.403596 C308.475411,140.316764 307.832118,138.815578 307.520672,137.281787 C307.228267,135.844452 307.224187,134.358209 307.638995,133.12058 C308.354368,130.974087 312.696932,130.787967 316.24932,130.635811 C317.535905,130.581469 318.709607,130.531203 319.488902,130.402142 C320.663965,130.205154 322.211674,129.038168 323.068491,127.797822 C323.337776,127.405204 323.52954,127.016661 323.597541,126.667517 C323.647862,126.41347 323.626102,126.192028 323.509139,126.029003 C323.313296,125.754578 322.850887,125.545363 322.033511,125.452982 C319.744587,125.19486 317.199978,124.234372 314.810412,123.332302 C311.860516,122.219658 309.159504,121.200753 307.91916,121.818889 C306.768578,122.393551 305.918562,123.762959 305.248069,125.596987 C304.534055,127.550567 304.039006,130.008166 303.610597,132.611127 C303.23931,134.885323 301.707921,137.045401 299.903166,138.727273 C298.740344,139.811387 297.456479,140.705306 296.299097,141.301705 C295.058753,141.941578 293.916331,142.254042 293.137036,142.126339 C292.761669,142.065205 292.446143,141.910331 292.209498,141.656284 C291.23028,140.60885 291.028996,137.507304 290.819552,134.229148 C290.680829,132.084014 290.538026,129.857368 290.1953,128.221686 C289.779132,126.239577 287.273964,124.396038 285.034001,123.330943 C284.251986,122.960062 283.512131,122.689713 282.90828,122.54299 C282.566913,122.460119 282.294908,122.416646 282.118105,122.415288 C282.084104,123.128521 282.312588,124.428643 282.535633,125.698878 C282.785877,127.122627 283.029322,128.513772 282.92324,129.319386 C282.826678,130.043488 282.315308,131.471313 281.616255,132.643732 C281.238168,133.280887 280.796159,133.863701 280.31879,134.257677 C279.716299,134.754903 279.053966,134.979062 278.354912,134.744035 C278.095147,134.657088 277.848983,134.507649 277.616418,134.288924 C276.717441,133.442554 274.58764,132.24568 272.142313,131.320515 C270.168915,130.573318 268.018714,130.014958 266.184039,129.974202 C264.107279,129.928012 261.923077,130.577394 259.738875,131.984841 C257.632195,133.342022 255.532314,135.400209 253.531716,138.215103 C251.751442,140.721609 249.546839,142.570581 247.436079,143.86527 C244.280818,145.798472 241.24252,146.500836 240.089218,146.309282 C238.699271,146.078331 238.499347,145.117843 238.174301,143.556881 C237.933576,142.396688 237.60173,140.80448 236.487869,138.931054 C235.988739,138.09691 235.628332,137.234238 235.395768,136.381075 C234.961919,134.791584 234.964639,133.221112 235.337286,131.887026 C235.727614,130.495881 236.523229,129.351991 237.656131,128.678155 C237.998858,128.474374 238.368785,128.315425 238.764552,128.208101 C240.090578,127.846729 242.002774,128.1524 243.997933,128.471657 C246.97639,128.948505 250.164291,129.460674 250.755903,127.642948 C251.297193,125.977379 250.558699,125.283165 249.875966,124.641934 C249.017789,123.834962 248.214014,123.079614 248.623382,121.443932 C248.707703,121.107014 248.840986,120.649186 248.987869,120.139734 C249.820205,117.275932 251.182951,112.586254 248.507779,110.491385 C247.055271,109.354288 245.789087,110.885362 244.803068,112.075443 C244.293058,112.69222 243.83745,113.242428 243.34512,113.516853 C242.588946,113.940718 241.934773,113.846978 241.382603,112.863396 C240.792351,111.809169 238.880154,110.869059 237.131161,110.007745 C235.297846,109.107034 233.618213,108.281041 233.242846,107.154812 C233.147644,106.865443 232.93548,106.44022 232.701556,105.963373 C232.515232,105.582982 232.309868,105.169986 232.103144,104.693138 C231.189207,102.580609 230.676477,100.167843 233.562452,98.9220621 C235.130563,98.2441508 236.591231,98.2441508 237.879175,98.2441508 L237.879175,98.2414337 C239.399684,98.2414337 240.615548,98.2414337 241.135078,96.6845473 C241.574366,95.3681224 240.839952,94.7608552 239.985856,94.0516976 C238.891035,93.1455516 237.656131,92.1212128 237.442607,89.8769053 C237.259003,87.9695157 238.419106,85.7523791 239.955935,83.9767678 C240.807312,82.9931851 241.78109,82.1345881 242.705908,81.5368306 C243.715047,80.8833731 244.702426,80.5274357 245.483081,80.6184578 C245.96181,80.6755165 246.365738,80.880656 246.671744,81.2610471 C247.698564,82.5435085 247.659123,86.1463555 247.621042,89.4285872 C247.593842,91.8277682 247.568001,94.0408292 247.897128,94.6304354 L248.080731,94.9619191 C249.397236,97.3611001 254.755739,107.131717 258.203406,106.192966 C260.556251,105.551735 261.02954,102.463775 261.478348,99.5347634 C261.727233,97.9113086 261.969318,96.331327 262.526929,95.077395 C263.614949,92.6293066 265.786911,92.8222192 267.82831,93.7283651 C269.290338,94.3777471 270.650364,95.3966518 271.367098,95.9332749 C272.240235,96.588091 278.142748,97.4901613 283.914699,96.8978381 C287.438527,96.5378251 290.854912,95.6017913 292.920792,93.6767406 C296.764226,90.0929131 295.813568,88.0252158 294.695626,85.5988641 C294.230497,84.5881106 293.738168,83.5243741 293.467523,82.2745176 C293.069035,80.4499989 291.910293,80.4432062 290.562507,80.4364135 C289.017517,80.4269038 287.295724,80.417394 285.764335,78.7857879 C283.385649,76.2521115 285.364487,74.2251704 287.248123,72.2987612 C288.057339,71.4727692 288.843434,70.6671552 289.056958,69.9729414 C289.320803,69.1157029 289.093679,68.056042 288.64487,67.1607644 C288.425906,66.7205976 288.151181,66.323904 287.856055,66.0155155 C287.59765,65.7465247 287.335165,65.5563291 287.10396,65.4843265 C286.999238,65.4517216 286.909477,65.4490045 286.841475,65.482968 C286.0581,65.8742274 283.818137,69.4390354 282.221467,73.1016582 C281.103525,75.6625053 280.340551,78.2111256 280.694157,79.6240068 C281.164726,81.5055842 280.797519,84.5853935 279.850941,87.0660869 C279.411653,88.2208455 278.840442,89.2655625 278.164509,90.0249861 C277.409694,90.8740734 276.513437,91.3848843 275.500218,91.356355 C274.859645,91.3386939 274.200033,91.1023081 273.53634,90.5969313 C271.363018,88.9422301 269.184256,88.9272861 266.994614,88.9109837 C265.290502,88.8973983 263.583669,88.8838129 261.791154,88.2031845 C259.658633,87.3921364 259.387988,86.3623633 259.843597,85.1654899 C260.042161,84.6438107 260.402568,84.1411511 260.782015,83.6086035 C261.332826,82.8383116 261.940757,81.9892243 261.884996,81.2067055 C261.829235,80.4092427 261.455228,79.7408413 261.0581,79.027608 C260.195844,77.4775143 259.234305,75.7494519 260.175443,72.1207926 C260.889457,69.3711084 262.116201,67.3808478 263.984877,65.6949002 C265.808672,64.0469916 268.224078,62.7156228 271.365738,61.2443244 C275.262213,59.4198057 275.425416,57.5015478 275.63894,54.9651543 C275.743662,53.720732 275.861985,52.3445314 276.352954,50.7441717 C277.363453,47.4660156 280.275269,47.5814915 283.667174,48.6248499 C284.842237,48.9862214 286.075781,49.4603518 287.298444,49.931765 C288.767272,50.498276 290.22386,51.0593529 291.507725,51.3908366 C293.808889,51.9872355 295.043793,51.097392 295.96181,50.4357832 C297.324557,49.4535591 298.234414,48.7973844 299.812044,50.8990452 C300.740942,52.1353163 302.990425,52.864852 305.271189,53.6038976 C308.184365,54.5480826 311.143782,55.5072116 312.210042,57.7583117 C313.170221,59.7798187 312.08764,60.9454457 310.380807,61.7524182 C309.547111,62.1463947 308.569253,62.4371222 307.651235,62.7088301 C306.484332,63.0552577 305.430312,63.3677218 305.241269,63.6693176 C305.219508,63.7019226 305.200468,63.7372446 305.184148,63.7752837 C304.894462,64.4137973 304.970623,65.5658389 305.31607,66.7056536 C305.658797,67.8481855 306.262648,68.9255074 307.022903,69.3996377 C307.082744,69.4363183 307.138505,69.4675647 307.188826,69.4933769 L307.220107,69.5056038 C307.624034,69.6903652 308.259167,69.2406886 309.000381,68.7149337 C310.741214,67.4800212 312.895496,65.9516642 316.216679,68.4377917 C317.923512,69.7161774 319.253618,68.3712232 320.167555,66.6703316 C320.93189,65.2479406 321.428299,63.5878052 321.664944,62.6843764 C319.501142,60.2824783 317.2775,57.937639 314.991296,55.6539339 C281.814819,22.5137185 235.980579,2.01471425 185.352247,2.01471425 C155.972963,2.01471425 128.20667,8.92017111 103.591557,21.1918595 C106.118485,22.8968267 109.608312,21.0627982 112.964857,19.2994138 C115.618268,17.9041936 118.196877,16.5483711 120.458601,16.7603032 C122.865847,16.9858208 125.152051,15.259117 127.309052,13.630228 C130.484713,11.231047 133.42101,9.01391035 136.697313,12.1602881 C140.110978,15.4384442 147.935208,13.8815578 156.251768,12.225498 C159.250626,11.6290991 162.313404,11.0191148 165.331302,10.6101944 C173.084811,9.56004327 181.714177,12.0828513 188.217822,13.9848068 C191.360842,14.9031796 193.995213,15.6734715 195.704766,15.7957401 C197.906648,15.9533307 201.026548,14.8284599 204.079806,13.7294014 C208.317648,12.2024028 212.435807,10.717519 214.610489,12.5067157 C214.920574,12.7621211 215.298662,13.0542072 215.695789,13.3612371 C216.979654,14.3543296 218.481123,15.5172395 219.567784,16.8975157 C221.678544,19.5792729 222.247035,22.907695 217.100696,26.9479918 C211.258024,31.5344215 212.254923,37.3938029 213.045098,42.0372913 C213.303503,43.5466288 213.540148,44.9364149 213.540148,46.1591005 C213.540148,49.5079007 210.595691,50.3977441 207.188826,51.4275171 C204.80334,52.1475431 202.159449,52.9463644 200.429496,54.7545807 C197.025351,58.3098788 194.139375,59.5624523 190.064737,61.3326295 C188.920955,61.8284964 187.680611,62.3664781 186.347786,62.9914063 C183.365249,64.3879851 181.272168,65.9204177 179.27429,68.1470642 C177.250571,70.404957 175.294854,73.4086881 172.616962,77.7057489 C167.701828,85.5975055 166.205799,85.9806137 164.205201,84.73755 C163.957676,84.584035 163.710151,84.4019907 163.443586,84.2077195 L163.255903,84.0718655 C161.901317,83.0869243 158.9419,78.9175662 157.192906,73.9208575 C156.039604,70.626399 155.390872,66.9433981 156.028724,63.5212368 C156.701937,59.9061629 157.972201,57.919978 158.820857,56.5913262 C159.631433,55.3238087 159.885758,54.9257566 157.541073,53.5373292 C153.832282,51.3432877 152.893864,48.6506622 151.831683,45.6007407 C151.339354,44.186501 150.817104,42.6880318 149.950767,41.1447308 C148.589381,38.7143034 146.402459,39.3881391 143.982972,40.1339773 C142.199978,40.6841859 140.308182,41.2669994 138.359264,40.9423084 C136.226744,40.5877295 134.130943,38.3624417 132.009303,36.1127001 C129.29197,33.2312375 126.528397,30.2981505 124.336035,32.1240277 C120.107714,35.6440039 121.188935,39.4832368 122.831846,45.3208816 L122.849527,45.3792988 C123.906267,49.1370193 129.052606,51.9424036 133.388369,54.3076211 C135.731694,55.5860069 137.851975,56.7421241 139.096399,57.9159023 C140.348983,59.0978318 141.222119,60.3993128 141.619247,61.6844912 C141.874932,62.5091248 141.937493,63.3269656 141.78245,64.1054088 C141.624687,64.898796 141.24524,65.6419171 140.625068,66.2994503 C139.872974,67.0928374 138.767272,67.7571633 137.260363,68.2217839 C134.779676,68.9880002 134.756555,70.6304746 134.734795,72.2335513 C134.713034,73.8556476 134.691274,75.4478561 133.040202,76.5822366 C130.909041,78.0453838 130.129746,76.9870815 128.980524,75.4261194 C128.153629,74.3026072 127.056087,72.8109307 124.59036,72.3802736 C122.50408,72.0134679 120.843488,72.6750767 119.480742,73.2184926 C117.058536,74.1844142 115.373463,74.8555328 113.734632,71.1711734 C112.971657,69.4566964 112.683332,67.7367852 112.422207,66.170389 C111.921717,63.187036 111.532749,60.8571406 107.447231,61.1397168 C106.149766,61.230739 105.146067,61.4739176 104.377652,61.8230623 C103.451474,62.2442095 102.882983,62.8147962 102.563377,63.4397244 C102.239691,64.0687283 102.155369,64.7765274 102.20161,65.4490045 C102.251931,66.1812574 102.460015,66.8686784 102.6953,67.3849235 C103.190349,68.4744722 104.059406,70.508206 104.423893,72.6261693 C104.81014,74.8840621 104.626537,77.23026 102.888423,78.7423146 C101.419595,80.0207004 99.9698074,79.5669482 97.9977696,78.9488127 C95.3511587,78.121462 91.5906865,76.9449667 85.4243281,80.2788229 C80.6887172,82.8396701 80.2222283,85.3434586 81.3197693,87.4233828 C82.5179523,89.694861 85.4311283,91.6063263 87.0958002,92.6238724 C89.0991187,93.8465581 89.950495,95.540657 91.1908389,98.0131991 C92.2448591,100.110784 93.5967251,102.804768 96.2542161,106.269044 C97.3517572,107.699587 98.230334,108.482105 98.9293874,108.774191 C99.3319552,108.944009 99.6447612,108.911404 99.8841258,108.734794 C100.210532,108.492974 100.479817,108.013409 100.701501,107.384405 C101.346154,105.549018 101.472636,102.668914 101.350234,100.322716 C101.15847,96.6940571 103.327712,94.6005476 105.488793,92.5151893 C106.790338,91.2585401 108.090523,90.0059666 108.720215,88.4640241 C109.324067,86.9913672 109.174464,85.1913022 109.039822,83.5474693 L109.039822,83.5433936 C108.784137,80.4309794 108.566532,77.7872613 112.426287,77.4231727 C115.75291,77.1107086 117.538625,78.8469222 119.457622,80.7149142 C120.678925,81.9022778 121.96143,83.1494171 123.730824,83.813743 C125.055489,84.30961 126.252312,84.4373127 127.284572,84.5473544 C130.064465,84.843516 131.85562,85.0350701 132.682516,90.0698179 C133.227886,93.3900888 136.655152,96.912782 139.756011,100.099916 C142.420302,102.838732 144.857469,105.34252 145.288598,107.541996 C145.717006,109.734679 145.825808,113.092989 145.287238,115.645685 C145.050593,116.763763 144.688826,117.747346 144.169296,118.452428 C143.560004,119.27842 142.760309,119.740323 141.732129,119.653377 C141.144598,119.603111 140.499946,119.362649 139.795452,118.888519 C137.461647,117.318047 134.115983,115.700026 131.285769,115.213669 C130.279349,115.039776 129.353172,115.012605 128.587477,115.186498 C127.903384,115.34273 127.345773,115.667421 126.981286,116.20812 L126.979926,116.206762 C126.765042,116.527377 126.609999,116.929505 126.522957,117.428089 C126.13263,119.690057 127.600098,120.942631 129.060766,122.18977 C130.997443,123.841754 132.92732,125.488304 131.89234,129.04632 C130.224948,134.784791 126.590959,134.996723 120.104994,135.375756 C119.269938,135.424663 118.381841,135.476288 117.361821,135.551007 C112.880535,135.878415 112.740453,136.260165 111.768034,138.918827 C111.097541,140.747421 110.091122,143.501181 107.561473,147.686842 C104.074366,153.457918 100.414536,157.768564 97.6115221,161.06574 C95.054673,164.078981 93.2376782,166.21868 93.0336742,167.683186 C92.8201501,169.215619 91.9442933,171.511551 90.7121097,173.341504 C90.0116962,174.380786 89.1875204,175.288291 88.2871831,175.853443 C87.2875639,176.485164 86.2009031,176.705248 85.0829616,176.273232 C84.4927103,176.047715 83.9106191,175.634719 83.3489283,175.001639 C81.5999347,173.033115 80.156947,171.961227 78.696279,171.803637 C77.2437711,171.646046 75.6566206,172.385092 73.6057012,174.033 C71.1780546,175.985222 68.9516919,176.212098 67.0721358,176.403652 C65.5625068,176.559884 64.320803,176.68487 63.5727886,177.881743 C62.709172,179.260661 62.1978022,181.742713 62.0495594,184.079401 C61.8999565,186.475865 62.0930802,188.635943 62.654771,189.125017 C63.0872593,189.495898 65.3394625,189.084261 67.7779893,188.63866 C70.6326841,188.115622 73.7117833,187.551828 75.3451746,188.227022 C76.7800022,188.820704 77.4436949,190.658808 78.1835491,192.710203 C79.113807,195.287353 80.1882276,198.263913 82.9341203,198.558716 C87.6194103,199.058659 88.7455119,201.108695 90.6726689,204.615086 C91.1269176,205.439719 91.6287673,206.352658 92.2557393,207.371562 C94.1312153,210.41605 96.6839843,209.573755 100.725982,208.241028 C102.528017,207.647346 104.599336,206.964001 107.050103,206.454548 C115.368023,204.7129 123.843706,212.070751 129.720379,217.174784 L130.409912,217.7739 C133.116364,220.116023 136.383147,220.140476 139.644489,220.162213 C143.115276,220.188025 146.581982,220.212479 149.647481,222.761099 C151.827603,224.577467 153.138668,227.050009 154.410293,229.43968 C156.508813,233.395747 158.486291,237.116787 164.286802,236.4348 C169.169296,235.861497 173.917147,236.990443 177.72794,239.070367 C181.8801,241.335053 184.937439,244.744987 185.890817,248.338325 C186.777554,251.687125 185.425688,255.120154 183.732456,259.414498 C181.944021,263.950662 179.759819,269.494862 179.561256,276.811956 C179.334131,285.194146 174.155152,288.689668 169.410021,291.890388 C165.970515,294.21349 162.774453,296.368134 162.231803,300.165252 C160.901697,309.473966 153.322272,315.592828 146.330378,321.240277 L145.40692,321.986116 C142.160537,324.61489 140.293222,327.999012 138.546948,331.164409 C136.493309,334.889525 134.597432,338.323913 130.822,340.156583 C130.32559,340.394327 129.825101,340.579089 129.325971,340.706792 C126.725601,341.375193 124.314275,340.505728 122.230715,338.793968 C120.235557,337.151493 118.547764,334.7265 117.3047,332.171087 C116.528125,330.574803 115.920194,328.914668 115.520346,327.35914 C114.954575,325.159664 114.769612,322.590666 114.569688,319.792074 C114.144,313.875634 113.64215,306.900892 109.285986,300.886637 C105.418072,295.546218 105.492873,293.47852 105.617996,289.9993 C105.707758,287.522683 105.82472,284.285283 104.353172,278.319935 C102.16625,269.456823 100.149331,267.015527 97.9896094,264.400338 C96.7329453,262.880133 95.4300403,261.302868 94.0183332,258.481181 C91.8082907,254.065928 92.3740616,246.017939 92.8990317,238.569066 C93.3151997,232.633607 93.7055271,227.086689 92.6419867,224.387271 C90.9990752,220.221989 88.2001414,219.659553 84.687194,218.953113 C83.176205,218.6488 81.5414536,218.321392 79.8115004,217.70869 C75.6634207,216.237392 73.0004896,213.154866 69.7105864,209.346879 C68.0907953,207.473453 66.3159613,205.4207 64.1385595,203.30817 C60.8908171,200.160434 57.8579589,199.322215 54.997824,198.532904 C52.1431291,197.743592 49.4475574,197.000471 46.7968665,194.253504 C43.9612121,191.3177 44.3501795,188.631867 44.6616255,186.484016 C44.89691,184.860561 45.0723534,183.644668 42.7467087,183.12163 C38.3701447,182.133972 37.7567729,180.559425 36.9448373,178.475425 C36.6021108,177.595091 36.2185834,176.611509 35.3862474,175.545055 C34.1880644,174.004471 33.1598847,174.137608 32.0637036,174.280255 C30.8070395,174.443279 29.4850941,174.614455 27.8313024,173.374109 C25.2826134,171.466719 24.6937221,169.170787 23.7607442,165.535335 C23.4846589,164.463447 23.177293,163.266574 22.7475248,161.836032 C22.1531933,159.853922 20.9291698,158.408436 19.6412251,156.889589 C17.2720596,154.093714 14.7002502,151.058737 14.8267327,144.112524 C14.894734,140.354803 15.1762594,137.916225 15.3952236,136.002042 C15.7896312,132.577164 15.9841149,130.891216 14.2936024,126.308862 C13.9304755,125.327997 13.6190295,124.148784 13.3511043,122.841869 C13.2967033,122.579671 13.2450223,122.312039 13.1947013,122.038972 C5.96480252,141.714701 2.01664672,162.973129 2.01664672,185.14993 C2.01664672,235.720209 22.5380807,281.505711 55.7145577,314.647285 C88.8923947,347.7875 134.725275,368.287863 185.352247,368.287863 Z" id="Combined-Shape" fill="url(#radialGradient-1)" opacity="0.800000012"></path>
                    <g id="Oval-Copy-2">
                        <use fill="black" fill-opacity="1" filter="url(#filter-3)" xlink:href="#path-2"></use>
                        <use fill="#0FCD8C" fill-rule="evenodd" xlink:href="#path-2"></use>
                    </g>
                </g>
                <path d="M250.237624,357.910891 C376.688959,357.910891 479.19802,302.500588 479.19802,234.148515 C479.19802,165.796442 376.688959,110.386139 250.237624,110.386139 C123.786289,110.386139 21.2772277,165.796442 21.2772277,234.148515 C21.2772277,302.500588 123.786289,357.910891 250.237624,357.910891 Z" id="Oval" stroke="url(#radialGradient-4)" stroke-dasharray="2"></path>
                <path d="M249.414819,373.681897 C375.45983,373.857765 477.561715,318.383891 477.465829,249.777113 C477.369808,181.170335 375.112352,125.410643 249.067341,125.233938 C123.02233,125.05807 20.9204453,180.531944 21.0163313,249.138722 C21.1123524,317.7455 123.369808,373.505191 249.414819,373.681897 Z" id="Oval" stroke="url(#radialGradient-5)" stroke-dasharray="2" transform="translate(249.241080, 249.457917) rotate(-45.000000) translate(-249.241080, -249.457917) "></path>
                <path d="M67.8898677,260.518751 C193.934879,260.342464 296.192335,204.582773 296.288356,135.975995 C296.334884,102.660281 272.282098,72.4414521 233.090937,50.1881902" id="Path" stroke="#0FCD8C" transform="translate(182.089112, 155.353470) rotate(-135.000000) translate(-182.089112, -155.353470) "></path>
            </g>
        </g>
    </g>
</svg>