<?xml version="1.0" encoding="UTF-8"?>
<svg width="498px" height="402px" viewBox="0 0 498 402" version="1.1" xmlns="http://www.w3.org/2000/svg" xmlns:xlink="http://www.w3.org/1999/xlink">
    <!-- Generator: Sketch 61 (89581) - https://sketch.com -->
    <title>VI</title>
    <desc>Created with Sketch.</desc>
    <defs>
        <radialGradient cx="66.9666271%" cy="33.146772%" fx="66.9666271%" fy="33.146772%" r="66.1216325%" gradientTransform="translate(0.669666,0.331468),scale(0.998907,1.000000),rotate(124.249341),translate(-0.669666,-0.331468)" id="radialGradient-1">
            <stop stop-color="#E9E9E9" offset="0%"></stop>
            <stop stop-color="#C1C1C1" offset="100%"></stop>
        </radialGradient>
        <ellipse id="path-2" cx="296.637039" cy="105.139634" rx="6.27802635" ry="6.27116452"></ellipse>
        <filter x="-47.8%" y="-47.8%" width="195.6%" height="195.7%" filterUnits="objectBoundingBox" id="filter-3">
            <feOffset dx="0" dy="0" in="SourceAlpha" result="shadowOffsetOuter1"></feOffset>
            <feGaussianBlur stdDeviation="2" in="shadowOffsetOuter1" result="shadowBlurOuter1"></feGaussianBlur>
            <feColorMatrix values="0 0 0 0 1   0 0 0 0 1   0 0 0 0 1  0 0 0 0.5 0" type="matrix" in="shadowBlurOuter1"></feColorMatrix>
        </filter>
        <radialGradient cx="50%" cy="5.40477804%" fx="50%" fy="5.40477804%" r="63.7519513%" gradientTransform="translate(0.500000,0.054048),scale(0.540541,1.000000),rotate(90.000000),scale(1.000000,2.333885),translate(-0.500000,-0.054048)" id="radialGradient-4">
            <stop stop-color="#0FCD8C" stop-opacity="0" offset="0%"></stop>
            <stop stop-color="#0FCD8C" stop-opacity="0" offset="43.6025592%"></stop>
            <stop stop-color="#0FCD8C" offset="100%"></stop>
        </radialGradient>
        <radialGradient cx="53.4919829%" cy="0%" fx="53.4919829%" fy="0%" r="90.906175%" gradientTransform="translate(0.534920,0.000000),scale(0.544305,1.000000),rotate(87.746006),scale(1.000000,2.225396),translate(-0.534920,-0.000000)" id="radialGradient-5">
            <stop stop-color="#0FCD8C" stop-opacity="0" offset="0%"></stop>
            <stop stop-color="#0FCD8C" stop-opacity="0.24" offset="28.9880701%"></stop>
            <stop stop-color="#0FCD8C" offset="100%"></stop>
        </radialGradient>
    </defs>
    <g id="页面-1" stroke="none" stroke-width="1" fill="none" fill-rule="evenodd">
        <g id="内页" transform="translate(-802.000000, -262.000000)">
            <g id="VI" transform="translate(780.000000, 192.000000)">
                <g id="ball" transform="translate(68.562075, 71.240699)">
                    <path d="M200.581884,-2.11736329e-12 C255.972014,-2.11736329e-12 306.118221,22.4273383 342.415055,58.6859711 C378.713362,94.9431337 401.16524,145.034531 401.16524,200.36265 C401.16524,255.690768 378.713362,305.783636 342.415055,342.040799 C306.118221,378.300901 255.972014,400.72677 200.581884,400.72677 C145.193226,400.72677 95.0470193,378.300901 58.7501845,342.040799 C22.451878,305.783636 -2.56173736e-12,255.690768 -2.56173736e-12,200.36265 C-2.56173736e-12,145.034531 22.451878,94.9446038 58.7501845,58.6859711 C95.0470193,22.4273383 145.193226,-2.11736329e-12 200.581884,-2.11736329e-12 Z M200.58159,2.18025189 C168.788376,2.18025189 138.740685,9.65309098 112.103088,22.9330744 C114.83764,24.7781291 118.614206,22.7934089 122.246539,20.8851371 C125.117965,19.3752796 127.908444,17.9080569 130.356001,18.1374023 C132.961037,18.3814494 135.435085,16.5128721 137.769315,14.7501465 C141.205902,12.1538384 144.383457,9.75453224 147.928956,13.15943 C151.623103,16.7069336 160.090205,15.0221267 169.09009,13.2299978 C172.335346,12.5845962 175.649776,11.924493 178.915638,11.4819739 C187.306209,10.3455378 196.6446,13.0756307 203.682613,15.1338591 C207.083877,16.1276893 209.934699,16.9612718 211.784716,17.0935865 C214.167515,17.2641254 217.543759,16.0468304 220.847887,14.8574684 C225.433927,13.2050051 229.890452,11.5981168 232.243815,13.5343216 C232.579379,13.8107123 232.988532,14.1267973 233.418289,14.4590542 C234.807642,15.5337434 236.432478,16.792203 237.608423,18.2858888 C239.892613,21.1879908 240.507814,24.7898904 234.938629,29.1621555 C228.615898,34.1254261 229.694707,40.4662396 230.549806,45.4912571 C230.829443,47.1246083 231.085531,48.6285852 231.085531,49.951732 C231.085531,53.5756841 227.899145,54.5386409 224.212357,55.6530246 C221.630869,56.432211 218.769745,57.2966669 216.897651,59.253454 C213.213807,63.1008709 210.090707,64.4563613 205.681279,66.3719838 C204.443519,66.9085933 203.101263,67.4907779 201.658927,68.167053 C198.431331,69.6783806 196.166274,71.3367246 194.004242,73.746322 C191.814245,76.189733 189.697838,79.4402637 186.799919,84.0903896 C181.480936,92.6305671 179.861987,93.0451531 177.697011,91.6999539 C177.429148,91.5338254 177.161286,91.3368236 176.872819,91.1265902 L176.669714,90.9795739 C175.203829,89.9137057 172.001254,85.4017751 170.108556,79.9945152 C168.860493,76.4293696 168.158458,72.4437574 168.848719,68.7404166 C169.577246,64.8283125 170.951881,62.6789341 171.870266,61.2411145 C172.747442,59.8694524 173.022664,59.4386946 170.485329,57.9361879 C166.471808,55.5618744 165.456285,52.6480112 164.306831,49.347495 C163.77405,47.8170552 163.20889,46.1954653 162.271371,44.52536 C160.798128,41.8952382 158.431519,42.6244391 155.813237,43.4315586 C153.883744,44.0269747 151.836509,44.6576746 149.727461,44.3063057 C147.419722,43.9225931 145.151722,41.5144659 142.855758,39.0798758 C139.915158,35.9616598 136.924518,32.7875777 134.552022,34.7634769 C129.976284,38.5726695 131.146342,42.7273505 132.924243,49.0446414 L132.943376,49.1078584 C134.086942,53.1743295 139.656127,56.2102164 144.348135,58.7697703 C146.883998,60.1531938 149.17849,61.4043026 150.525161,62.6745236 C151.880663,63.9535655 152.82554,65.3619817 153.255297,66.752756 C153.531991,67.645145 153.599692,68.5301832 153.43191,69.3725867 C153.261185,70.231162 152.85056,71.0353412 152.179432,71.7469001 C151.365543,72.6054754 150.168992,73.3243851 148.538269,73.8271809 C145.853757,74.6563529 145.828737,76.4337801 145.805189,78.1685726 C145.781641,79.9239473 145.758092,81.6469785 143.971361,82.8745647 C141.665095,84.4579304 140.82177,83.3126733 139.578123,81.6234559 C138.683285,80.407631 137.495566,78.7933919 134.827243,78.3273502 C132.569546,77.9304062 130.772512,78.6463756 129.297797,79.2344408 C126.676572,80.2797268 124.853046,81.0059874 123.079561,77.018905 C122.253897,75.1635592 121.941882,73.3023327 121.659302,71.6072346 C121.11769,68.3787564 120.696763,65.8574267 116.275561,66.1632206 C114.87149,66.2617216 113.785323,66.5248808 112.953772,66.9027127 C111.951495,67.3584632 111.336295,67.9759317 110.990428,68.6522068 C110.640147,69.3328923 110.548897,70.0988473 110.598937,70.826578 C110.653393,71.6189959 110.878574,72.3628985 111.13319,72.9215605 C111.668915,74.1006313 112.609377,76.3014654 113.003812,78.5934497 C113.421795,81.0368608 113.223106,83.5758325 111.342182,85.2121241 C109.752668,86.5955475 108.18376,86.1045131 106.049691,85.4355888 C103.185623,84.5402595 99.1161738,83.2670983 92.4431607,86.8748785 C87.3184515,89.646136 86.8136338,92.3556466 88.0013536,94.6064663 C89.2979845,97.0645791 92.4505196,99.1330986 94.2519682,100.234251 C96.419888,101.557398 97.3412171,103.390691 98.6834729,106.066388 C99.824096,108.33632 101.287037,111.251653 104.162879,115.000569 C105.350599,116.548651 106.301363,117.395465 107.057854,117.71155 C107.493499,117.89532 107.832006,117.860036 108.091038,117.668915 C108.444263,117.407226 108.735674,116.888258 108.975573,116.207573 C109.673193,114.221383 109.810067,111.104637 109.677608,108.565665 C109.470088,104.638859 111.817564,102.373338 114.156209,100.116638 C115.564695,98.7567368 116.971709,97.4012464 117.653139,95.7326113 C118.306606,94.1389545 118.144711,92.1909883 117.999005,90.412091 L117.999005,90.4076805 C117.722312,87.0395368 117.486829,84.1785994 121.663717,83.7845957 C125.263671,83.4464582 127.196107,85.3253266 129.272777,87.3468009 C130.594428,88.6317235 131.982309,89.9813332 133.897084,90.7002429 C135.330589,91.2368525 136.625749,91.3750478 137.742823,91.494131 C140.751125,91.8146266 142.689448,92.0219196 143.584285,97.4703441 C144.174466,101.063423 147.883331,104.875556 151.23897,108.324558 C154.122171,111.288407 156.759586,113.997918 157.226138,116.378112 C157.689746,118.750955 157.807487,122.385198 157.224666,125.147635 C156.968578,126.357579 156.577086,127.421977 156.014869,128.184992 C155.355516,129.078851 154.490114,129.578706 153.377455,129.484616 C152.741649,129.43022 152.044029,129.170001 151.281652,128.656914 C148.756091,126.957406 145.135533,125.206441 142.072776,124.680123 C140.983665,124.491942 139.981388,124.462539 139.152781,124.65072 C138.412479,124.819788 137.809053,125.171157 137.414618,125.756282 L137.413146,125.754812 C137.180606,126.101771 137.012824,126.536939 136.918631,127.076489 C136.496233,129.52431 138.084274,130.879801 139.664957,132.22941 C141.76076,134.017129 143.849204,135.798967 142.729186,139.649324 C140.924794,145.859293 136.99222,146.088638 129.97334,146.498814 C129.069672,146.55174 128.108605,146.607606 127.004777,146.688465 C122.155289,147.042774 122.003696,147.45589 120.951379,150.332999 C120.225796,152.311839 119.136685,155.291859 116.399189,159.821432 C112.625567,166.066685 108.665029,170.731512 105.631707,174.299598 C102.864776,177.56042 100.898489,179.875927 100.677724,181.460763 C100.446655,183.119107 99.4988345,185.603682 98.1654093,187.583992 C97.4074468,188.708667 96.5155531,189.690736 95.5412402,190.302324 C94.459488,190.985949 93.2835424,191.224116 92.073746,190.756604 C91.4349971,190.512557 90.8050788,190.065627 90.197237,189.380531 C88.3045386,187.250265 86.7429888,186.090306 85.1623059,185.919767 C83.5904537,185.749228 81.872896,186.548997 79.6534643,188.332305 C77.0263517,190.444929 74.6170613,190.690447 72.5830728,190.89774 C70.9494062,191.066808 69.6056786,191.202063 68.7962041,192.497277 C67.861629,193.989493 67.3082429,196.675481 67.1478197,199.204161 C66.9859248,201.797529 67.1949164,204.135088 67.8027582,204.664347 C68.2707816,205.065701 70.7080356,204.620242 73.3469223,204.138029 L74.0366849,204.012085 C76.92123,203.488985 79.8991956,203.016022 81.5358603,203.692569 C83.0885795,204.33503 83.8068041,206.324161 84.6074479,208.544107 C85.6141398,211.333007 86.7768395,214.554134 89.7483467,214.87316 C94.8186003,215.41418 96.0372273,217.632656 98.1227279,221.427147 C98.6142996,222.319536 99.1573834,223.307485 99.8358702,224.410108 C101.865443,227.704743 104.627959,226.793242 109.002065,225.351012 C110.952162,224.708551 113.193671,223.969059 115.845803,223.417748 C124.847159,221.532998 134.019241,229.495402 140.378766,235.018805 L141.124955,235.667147 C144.053781,238.201708 147.588976,238.228171 151.118285,238.251693 L151.822371,238.257581 C155.341494,238.293605 158.833128,238.478466 161.943166,241.064115 C164.302416,243.029723 165.721204,245.70542 167.097311,248.291437 C169.368255,252.572552 171.508211,256.599329 177.785317,255.861307 C183.068978,255.240898 188.206933,256.462604 192.330837,258.713424 C196.824156,261.164185 200.132699,264.854295 201.164411,268.742876 C202.124006,272.366828 200.661065,276.081931 198.82871,280.729116 C196.89333,285.637991 194.529664,291.637726 194.314786,299.556025 C194.069,308.626931 188.464493,312.409661 183.329481,315.873365 C179.607371,318.387344 176.148707,320.719023 175.56147,324.828129 C174.122077,334.901686 165.919893,341.523301 158.353515,347.634769 L157.354182,348.441889 C153.841063,351.286654 151.82032,354.948831 149.930565,358.374311 C147.70819,362.405498 145.65654,366.12207 141.570902,368.10532 C141.033705,368.362599 140.492093,368.562541 139.951953,368.700736 C137.137925,369.424057 134.528474,368.483152 132.273719,366.630747 C130.11463,364.853319 128.288162,362.229078 126.942962,359.463702 C126.102581,357.73626 125.444699,355.939721 125.011998,354.256384 C124.399741,351.87619 124.19958,349.096111 123.983229,346.067575 C123.522565,339.665015 122.979481,332.117198 118.265396,325.608785 C114.079677,319.829574 114.160625,317.591986 114.296028,313.826898 C114.393165,311.146791 114.519737,307.643392 112.92728,301.187906 C110.560671,291.596562 108.378033,288.954679 106.04086,286.124615 C104.680943,284.479502 103.270985,282.772643 101.743286,279.719114 C99.3516573,274.941084 99.9639143,266.231838 100.532018,258.170933 C100.98238,251.747791 101.404779,245.745115 100.253853,242.823901 C98.4759531,238.316381 95.4470469,237.707733 91.6454604,236.943248 C90.010322,236.613932 88.2412524,236.259622 86.3691587,235.596579 C81.8802549,234.004392 78.9985258,230.668592 75.43831,226.547725 C73.6854298,224.52037 71.7647677,222.298953 69.4084611,220.01285 C65.8938702,216.606482 62.6118192,215.699391 59.5166832,214.845226 C56.4274343,213.991062 53.5103828,213.186883 50.6418996,210.214213 C47.5732555,207.03719 47.9941822,204.130678 48.331218,201.80635 C48.5858345,200.049505 48.775693,198.733709 46.2589634,198.167696 C41.5228019,197.098888 40.8590328,195.394969 39.9803851,193.139738 C39.6094986,192.187073 39.194459,191.122675 38.2937347,189.968597 C36.9971038,188.301432 35.8844443,188.445508 34.6981963,188.599875 C33.3382792,188.776294 31.9077171,188.961535 30.1180426,187.619276 C27.3599424,185.555167 26.7226652,183.070591 25.7130298,179.136435 C25.4142601,177.976476 25.0816397,176.681262 24.6165599,175.133181 C23.9733956,172.988213 22.648801,171.423959 21.2550332,169.780317 C18.6912068,166.754721 15.9080864,163.470377 16.0449612,155.953433 C16.1185498,151.886961 16.4232065,149.248019 16.6601618,147.176559 C17.0869756,143.470278 17.297439,141.645805 15.4680267,136.686945 C15.0750636,135.625487 14.7380279,134.349386 14.4480889,132.935089 C14.389218,132.651347 14.3332907,132.361725 14.2788351,132.066222 C6.45489652,153.358595 2.18234314,176.363707 2.18234314,200.36265 C2.18234314,255.088001 24.389907,304.635438 60.292307,340.500068 C96.1961787,376.363226 145.794886,398.547988 200.58159,398.547988 C255.369765,398.547988 304.969944,376.363226 340.872344,340.500068 C350.201905,331.177763 358.605722,320.935137 365.938089,309.913324 C365.467122,309.470805 365.012344,309.078271 364.595833,308.747485 C363.680391,308.019754 362.978356,307.584586 362.695776,307.44345 C361.209286,306.701018 361.837733,304.270838 362.560373,301.467237 C363.087267,299.428121 363.674504,297.155249 363.496419,295.568943 C363.312448,293.92089 362.397006,291.233432 361.146,289.185494 C360.597029,288.285755 359.995074,287.528621 359.381346,287.068459 C358.895661,286.706799 358.417335,286.549492 357.981691,286.706799 C357.737377,286.793539 357.48276,286.98172 357.213426,287.283103 C355.055808,289.707402 354.364076,293.193159 353.548714,297.312556 C353.174884,299.198775 352.776034,301.212899 352.181438,303.39168 C351.080553,307.424338 348.41959,308.962129 345.199353,310.826295 C342.648773,312.300869 339.719947,313.995967 337.039851,317.412626 C334.704149,320.389706 333.113164,323.138911 331.650222,325.667592 C329.33071,329.679667 327.317326,333.156603 323.138966,336.28805 C321.453788,337.55092 319.855444,338.122814 318.392503,338.193382 C317.075267,338.259539 315.880188,337.922872 314.832287,337.327456 C313.810877,336.745271 312.930758,335.916099 312.224307,334.973724 C310.982132,333.319791 310.252133,331.292436 310.169714,329.639973 C310.079936,327.886068 308.718547,325.263297 307.307118,322.547906 C305.586617,319.235628 303.799886,315.796917 303.920571,313.130041 C304.011821,311.117388 304.893412,309.579597 305.776475,308.038866 C306.952421,305.985048 308.13131,303.92829 306.890606,300.76891 C306.357825,299.413419 305.836818,298.437231 305.364379,297.546312 C303.796942,294.603045 302.718133,292.57569 302.878557,281.318652 C302.985996,273.798767 302.813799,266.653775 302.331058,260.729017 C301.890998,255.307056 301.193378,250.948022 300.219065,248.31937 C299.262413,245.739234 297.191631,241.1979 294.56599,237.596001 C293.281133,235.833275 291.874119,234.304305 290.420009,233.372222 C289.082168,232.518057 287.70459,232.17992 286.359391,232.678305 C285.982617,232.817971 285.6029,233.022323 285.217296,233.301654 C281.685043,235.867089 279.105028,237.635695 276.729588,237.973833 C274.205499,238.335493 272.090563,237.146131 269.697463,233.732412 C267.541317,230.656831 261.199453,229.255765 255.260854,227.94732 C249.803524,226.741786 244.668512,225.609761 242.840572,223.139887 C241.043538,220.712647 239.259751,216.415361 238.041124,212.298904 C236.757739,207.967803 236.096914,203.754316 236.679735,202.004822 C237.284633,200.195051 239.227372,197.961873 241.502731,195.347923 C243.452829,193.105925 245.654599,190.575774 247.39129,187.880965 C249.360521,184.820085 249.575399,183.092644 249.77556,181.491636 C249.956588,180.039115 250.12437,178.679214 251.334167,176.668031 C252.853035,174.13935 256.553069,173.924706 259.952862,173.729175 C262.624128,173.573337 265.076099,173.432202 265.416079,172.276654 C265.953275,170.455122 266.600855,168.521857 267.638454,166.828229 C268.715791,165.072854 270.197865,163.59534 272.376087,162.792631 C273.172316,162.501539 274.307052,161.935526 275.656666,161.266602 C280.950629,158.640891 289.392712,154.447986 295.509395,157.416245 C298.595701,158.912871 301.474486,160.907882 304.172244,162.774989 C307.835484,165.312491 311.154329,167.610356 313.997792,167.952904 C316.370288,168.235175 317.134138,167.529497 318.00837,166.719437 C319.020949,165.782943 320.149798,164.737657 322.972656,164.414221 C325.932389,164.071673 328.60807,165.340424 331.258731,166.595943 C333.656247,167.732379 336.031687,168.857054 338.383578,168.576253 C340.920913,168.270459 343.018187,167.539788 344.464939,166.363658 C345.758626,165.309551 346.532778,163.880552 346.622556,162.064901 C346.731468,159.814081 342.504539,157.616187 339.125351,155.857872 C337.109024,154.809646 335.364974,153.901085 334.704149,153.021927 C333.821086,151.845797 333.124938,150.221267 332.787902,148.561452 C332.471471,147.00602 332.467056,145.397661 332.915946,144.058343 C333.690098,141.735485 338.389465,141.534073 342.233733,141.369415 C343.626029,141.310608 344.896168,141.256212 345.739493,141.116547 C347.011104,140.903373 348.68598,139.640503 349.613197,138.298244 C349.904607,137.873367 350.112127,137.4529 350.185716,137.075068 C350.240171,136.800148 350.216623,136.560511 350.090051,136.384091 C349.878115,136.087118 349.377713,135.860713 348.493178,135.760742 C346.016186,135.481411 343.262502,134.442006 340.676599,133.465818 C337.484326,132.261754 334.561387,131.159132 333.219131,131.828056 C331.974012,132.449935 331.054155,133.931859 330.328571,135.91658 C329.555891,138.030674 329.020166,140.690199 328.556558,143.507032 C328.154765,145.968085 326.49755,148.305644 324.544508,150.125706 C323.286144,151.298896 321.896791,152.266264 320.644313,152.911665 C319.302057,153.604112 318.065769,153.942249 317.222444,153.804054 C316.816235,153.737897 316.474784,153.570298 316.218696,153.295378 C315.15902,152.161882 314.941198,148.8055 314.714545,145.257996 C314.564424,142.936608 314.409888,140.527011 314.039002,138.756935 C313.58864,136.611967 310.877636,134.616955 308.453628,133.464348 C307.607359,133.062993 306.806715,132.770431 306.153249,132.611653 C305.783834,132.521973 305.48948,132.474928 305.298149,132.473458 C305.261355,133.245293 305.508613,134.652239 305.749983,136.026842 C306.020789,137.567573 306.284236,139.07302 306.169438,139.944827 C306.064942,140.728423 305.511556,142.273565 304.755066,143.542316 C304.345913,144.231822 303.867587,144.862522 303.350995,145.288869 C302.699,145.826949 301.982248,146.069526 301.225757,145.815188 C300.944649,145.721097 300.678258,145.559379 300.426585,145.322683 C299.453744,144.406772 297.148949,143.111558 294.502704,142.110377 C292.367163,141.301787 290.040292,140.69755 288.054872,140.653445 C285.807476,140.60346 283.443811,141.306198 281.080145,142.829287 C278.800371,144.297979 276.527955,146.525277 274.362979,149.571455 C272.43643,152.283905 270.050688,154.284797 267.766498,155.685863 C264.351988,157.777905 261.06405,158.537979 259.815987,158.330686 C258.311836,158.080759 258.095486,157.041353 257.743732,155.352136 C257.483229,154.096617 257.124117,152.373585 255.918736,150.346231 C255.378595,149.44355 254.988576,148.509997 254.736903,147.586734 C254.267408,145.866644 254.270351,144.167135 254.673617,142.723435 C255.096015,141.217988 255.957002,139.98011 257.182987,139.25091 C257.553874,139.030385 257.954196,138.858376 258.382481,138.742233 C259.817459,138.35117 261.88677,138.681956 264.045859,139.027445 C267.269039,139.543472 270.718872,140.097723 271.359093,138.130645 C271.944858,136.328225 271.145686,135.576972 270.406857,134.883055 L270.176637,134.665316 C269.342316,133.866927 268.645268,133.044861 269.051355,131.422291 C269.142605,131.05769 269.286838,130.562246 269.44579,130.010934 C270.346514,126.911831 271.821229,121.836827 268.926254,119.569836 C267.354402,118.339309 265.984182,119.996183 264.917148,121.284046 C264.365234,121.9515 263.87219,122.546916 263.339409,122.843889 C262.521104,123.30258 261.813181,123.201139 261.215642,122.136741 C260.576893,120.995894 258.507582,119.978541 256.614884,119.046458 C254.630935,118.07174 252.813297,117.177881 252.407088,115.959115 C252.304064,115.645971 252.074468,115.18581 251.821323,114.669782 C251.61969,114.258137 251.397453,113.811207 251.173743,113.29518 C250.184713,111.009076 249.629855,108.398066 252.752955,107.049927 C254.449907,106.316316 256.03059,106.316316 257.424358,106.316316 L257.424358,106.313375 C259.069799,106.313375 260.385563,106.313375 260.94778,104.628568 C261.423162,103.20398 260.628405,102.546817 259.704132,101.779392 C258.519356,100.798793 257.182987,99.6902904 256.951919,97.2615809 C256.75323,95.1974719 258.008651,92.7981657 259.671753,90.8766625 C260.593083,89.8122644 261.646871,88.8831213 262.647676,88.2362496 C263.739731,87.5291011 264.808237,87.1439184 265.653034,87.2424193 C266.171097,87.3041662 266.608214,87.5261608 266.939362,87.9378065 C268.05055,89.3256404 268.007869,93.224513 267.966659,96.7764271 C267.937224,99.3727351 267.90926,101.767631 268.265429,102.405682 L268.464118,102.764401 C269.888793,105.360709 275.687574,115.934123 279.418515,114.91824 C281.96468,114.224323 282.476857,110.882642 282.962541,107.71297 C283.231876,105.956126 283.493851,104.246326 284.097277,102.889365 C285.274695,100.240131 287.625114,100.448895 289.834244,101.429493 C291.416398,102.132231 292.88817,103.234854 293.663794,103.815568 C294.608671,104.524187 300.996161,105.500375 307.24236,104.859384 C311.05572,104.469791 314.752811,103.456848 316.988432,101.373627 C321.147659,97.4953368 320.118891,95.2577486 318.909094,92.6320373 C318.405749,91.5382359 317.872967,90.3870982 317.580085,89.0345481 C317.148855,87.0601191 315.894906,87.0527683 314.43638,87.0454175 C312.764447,87.0351263 310.901184,87.0248352 309.243969,85.2591693 C306.669841,82.5173151 308.811268,80.3238317 310.849672,78.2391404 C311.725377,77.3452813 312.576061,76.4734745 312.807129,75.7222212 C313.092653,74.7945483 312.846867,73.647821 312.361182,72.6789835 C312.124227,72.2026507 311.826929,71.7733631 311.507554,71.439636 C311.227918,71.1485437 310.943866,70.9427209 310.693665,70.8648023 C310.580338,70.8295183 310.483201,70.826578 310.409613,70.8633321 C309.561872,71.2867391 307.137864,75.1444471 305.410004,79.1080068 C304.200208,81.8792643 303.374544,84.6372903 303.757204,86.1662599 C304.266437,88.2024358 303.869059,91.5352956 302.844706,94.2198134 C302.369324,95.4694521 301.751179,96.6000075 301.019709,97.4218287 C300.202876,98.3406806 299.232978,98.893462 298.136508,98.8625885 C297.443304,98.8434764 296.729494,98.587668 296.01127,98.0407674 C293.659378,96.2501087 291.3016,96.2339369 288.932048,96.2162949 C287.087918,96.2015933 285.240844,96.1868917 283.301049,95.45034 C280.993311,94.5726526 280.700428,93.4582689 281.193472,92.1630552 C281.40835,91.5985126 281.79837,91.0545523 282.208994,90.4782483 C282.805062,89.6446658 283.462944,88.7258139 283.402601,87.8789999 C283.342258,87.0160142 282.937521,86.2926939 282.507764,85.5208583 C281.574661,83.8434022 280.534118,81.9733547 281.552584,78.0465491 C282.325264,75.0709389 283.652802,72.91715 285.675017,71.0926775 C287.648663,69.3093697 290.262529,67.8686098 293.662322,66.2764232 C297.878948,64.3019941 298.055561,62.2261238 298.286629,59.4813293 C298.399955,58.1346599 298.527999,56.6453847 299.059309,54.9135325 C300.152835,51.3660289 303.303899,51.4909928 306.974497,52.6200781 C308.246108,53.0111414 309.581005,53.5242284 310.904128,54.034375 C312.493641,54.647433 314.069909,55.2546104 315.459261,55.6133301 C317.949499,56.2587318 319.285868,55.2957749 320.279314,54.5798055 C321.754029,53.5168776 322.738645,52.8067888 324.4459,55.0811311 C325.45112,56.4189795 327.88543,57.2084571 330.353592,58.0082259 C333.506127,59.0299892 336.708702,60.0679244 337.862571,62.5039846 C338.901642,64.6915874 337.730112,65.9529873 335.883038,66.8262642 C334.980842,67.2526115 333.922638,67.5672264 332.929192,67.861259 C331.666412,68.2361506 330.525789,68.5742881 330.321213,68.9006643 C330.297664,68.9359483 330.277059,68.9741725 330.259398,69.0153371 C329.945911,69.7063137 330.02833,70.953012 330.40216,72.1864789 C330.773046,73.4228861 331.426513,74.5887254 332.249234,75.1018123 C332.313991,75.1415067 332.374334,75.1753205 332.42879,75.2032536 L332.46264,75.2164851 C332.899757,75.4164272 333.587074,74.9298033 334.38919,74.3608501 C336.273057,73.0244719 338.604344,71.3705384 342.198411,74.0609369 C344.045484,75.4443603 345.484877,73.9888989 346.473907,72.1482547 C347.301043,70.6089939 347.83824,68.8124546 348.094328,67.8347961 C345.752739,65.2355477 343.346392,62.6980462 340.872344,60.226702 C304.969944,24.3635431 255.369765,2.18025189 200.58159,2.18025189 Z M377.700993,172.577713 L377.509158,172.586858 C377.100006,172.619202 376.707043,172.726524 376.374422,172.900003 C376.062407,173.063191 375.798959,173.285186 375.623819,173.557166 C375.310331,174.039379 375.261763,174.724475 375.672387,175.591871 C376.467144,177.269328 376.511297,179.159957 376.553978,180.993251 C376.612849,183.505759 376.668777,185.891834 378.988289,186.838619 C380.5675,187.484021 381.956852,187.247325 383.222576,187.031211 C385.652471,186.618095 387.705593,186.269666 390.014803,190.308204 C391.25845,192.479635 392.137098,194.523162 392.527117,196.31088 C392.817056,197.642848 392.836189,198.852792 392.533004,199.889257 C392.210686,200.99335 391.54103,201.879858 390.46958,202.489976 C389.95446,202.782538 389.34809,203.013354 388.644583,203.164781 C386.588518,203.61171 385.580354,204.849588 384.557473,206.103637 C383.291749,207.657599 382.006893,209.235084 379.050103,209.824619 C376.22283,210.390632 373.801765,209.83344 371.249713,208.263306 C368.812459,206.76374 366.269237,204.33503 363.100513,201.060977 C359.01929,196.84896 359.184128,195.067122 359.372515,193.023595 C359.471124,191.951847 359.577091,190.794828 358.77056,188.963005 C357.569595,186.237323 355.671009,183.404318 354.024097,181.725392 C353.47071,181.162319 352.960006,180.743323 352.536135,180.525739 C352.3242,180.415477 352.193212,180.35961 352.174079,180.372842 C352.168192,180.378723 352.15789,180.399305 352.140229,180.437529 C351.722245,181.353441 351.090855,181.873878 350.466824,182.384025 C349.535193,183.14704 348.63594,183.886532 349.470435,186.741588 C349.720636,187.603104 349.948761,188.439627 350.162167,189.220283 C351.093799,192.620771 351.706056,194.862769 353.514863,196.068303 L353.514863,196.068303 L353.513392,196.069773 L353.797444,196.256484 C354.786474,196.912177 355.17355,197.167985 355.591533,197.889835 C355.827017,198.300011 356.033065,198.802807 356.368629,199.627568 C356.771894,200.624339 357.372377,202.103323 358.386428,204.314448 C360.031869,207.913407 361.210758,210.168638 362.360212,211.90343 C363.490532,213.608819 364.609079,214.827585 366.13825,216.353614 C367.181736,217.395959 369.10387,217.13133 371.030419,216.866701 C374.256543,216.424182 377.494441,215.977252 378.639479,220.259837 C379.840445,224.761477 378.816092,225.484797 376.833615,226.891743 C375.910814,227.544495 374.72751,228.382488 373.51477,230.093758 C372.059187,232.146106 371.948805,234.577756 371.832535,237.146131 C371.67947,240.556909 371.514632,244.191152 368.476895,247.829806 C366.132363,250.642228 364.55168,251.847762 363.40517,252.723979 C362.118841,253.706048 361.459487,254.210314 360.829569,256.568456 C360.517553,257.735765 360.236445,258.49878 360.030397,259.054501 C359.83318,259.5867 359.724268,259.883673 359.752232,260.054212 C359.796385,260.335013 360.142252,260.795175 360.926706,261.83164 C361.151887,262.128612 361.412391,262.474101 361.839204,263.053345 C364.07041,266.07306 364.085128,268.476777 364.104261,271.778763 C364.114564,273.504735 364.126338,275.493865 364.492809,277.987262 C364.929925,280.956991 365.545126,281.749409 366.534156,281.605333 C367.252381,281.498011 368.211976,281.062843 369.380563,280.530644 C370.378424,280.076364 371.517575,279.555926 372.783299,279.103116 C375.959383,277.96962 376.624623,276.647943 377.370812,275.161608 C377.965407,273.978127 378.601213,272.707906 380.24371,271.340655 C381.039939,270.680551 382.06282,270.242443 383.226991,269.974873 C384.233683,269.746998 385.353702,269.644086 386.520817,269.635265 C394.577295,248.073853 398.982308,224.730603 398.982308,200.36265 C398.982308,194.107106 398.689425,187.922129 398.121322,181.813602 C397.054287,180.816831 396.009329,180.227296 395.029129,179.968547 C393.838466,179.658343 392.731693,179.842113 391.801534,180.389014 C390.064843,181.407837 388.120633,180.956497 386.2662,179.828882 C383.755358,178.305793 381.385805,175.506602 380.10242,173.707122 C379.490163,172.854428 378.464338,172.51335 377.509158,172.586858 Z" id="Combined-Shape" fill="url(#radialGradient-1)" opacity="0.800000012"></path>
                    <g id="Oval-Copy-2">
                        <use fill="black" fill-opacity="1" filter="url(#filter-3)" xlink:href="#path-2"></use>
                        <use fill="#0FCD8C" fill-rule="evenodd" xlink:href="#path-2"></use>
                    </g>
                </g>
                <path d="M270.79823,387.318399 C407.639354,387.318399 518.571003,327.355346 518.571003,253.38717 C518.571003,179.418995 407.639354,119.455942 270.79823,119.455942 C133.957106,119.455942 23.0254569,179.418995 23.0254569,253.38717 C23.0254569,327.355346 133.957106,387.318399 270.79823,387.318399 Z" id="Oval" stroke="url(#radialGradient-4)" stroke-dasharray="2"></path>
                <path d="M269.90782,404.385219 C406.309235,404.575537 516.800252,344.54369 516.696488,270.299882 C516.592577,196.056074 405.933206,135.714925 269.531792,135.5237 C133.130377,135.333382 22.6393596,195.36523 22.743124,269.609038 C22.8470346,343.852846 133.506406,404.193995 269.90782,404.385219 Z" id="Oval" stroke="url(#radialGradient-5)" stroke-dasharray="2" transform="translate(269.719806, 269.954460) rotate(-45.000000) translate(-269.719806, -269.954460) "></path>
                <path d="M73.4679931,281.924099 C209.869408,281.733328 320.528779,221.392179 320.63269,147.148371 C320.68304,111.095294 294.653973,78.3935554 252.242697,54.3118691" id="Path" stroke="#0FCD8C" transform="translate(197.050341, 168.117984) rotate(-135.000000) translate(-197.050341, -168.117984) "></path>
            </g>
        </g>
    </g>
</svg>