<?xml version="1.0" encoding="UTF-8"?>
<svg width="38px" height="37px" viewBox="0 0 38 37" version="1.1" xmlns="http://www.w3.org/2000/svg" xmlns:xlink="http://www.w3.org/1999/xlink">
    <!-- Generator: Sketch 55.1 (78136) - https://sketchapp.com -->
    <title>Github</title>
    <desc>Created with Sketch.</desc>
    <g id="页面-1" stroke="none" stroke-width="1" fill="none" fill-rule="evenodd">
        <g id="1440&quot;-Web-" transform="translate(-981.000000, -2874.000000)" fill="#01081E" fill-rule="nonzero">
            <g id="Screen_5" transform="translate(120.000000, 2691.000000)">
                <g id="GitHub" transform="translate(848.000000, 170.000000)">
                    <g id="github">
                        <path d="M32.3624772,13.0909091 C22.121909,13.0909091 13.8181818,21.4368216 13.8181818,31.7343474 C13.8181818,39.9695715 19.1314545,46.9569285 26.5021137,49.4223691 C27.4293863,49.5936449 27.7678409,49.0180649 27.7678409,48.5240448 C27.7678409,48.0812906 27.7516136,46.9091574 27.7423409,45.3536928 C22.5832273,46.4803852 21.4948409,42.8544635 21.4948409,42.8544635 C20.6521818,40.7012805 19.4362955,40.128031 19.4362955,40.128031 C17.7521364,38.9710444 19.5637955,38.9943475 19.5637955,38.9943475 C21.4241364,39.1260086 22.4035681,40.9156666 22.4035681,40.9156666 C24.0587499,43.7644394 26.7443636,42.9418492 27.8014545,42.4641408 C27.9695228,41.2593841 28.4493864,40.437959 28.9790908,39.9719017 C24.860841,39.5011845 20.5316364,37.9026097 20.5316364,30.7591234 C20.5316364,28.7236201 21.25375,27.0597974 22.4406591,25.7560031 C22.2494091,25.2841207 21.6130682,23.3896 22.6214773,20.8227915 C22.6214773,20.8227915 24.1792955,20.3217811 27.7214773,22.7336248 C29.2016363,22.3199993 30.7872726,22.1137694 32.3647955,22.1056132 C33.94,22.1137694 35.5267954,22.3199993 37.0081135,22.7336248 C40.5479772,20.3217811 42.1023181,20.8227915 42.1023181,20.8227915 C43.1142044,23.3896 42.4778635,25.2841207 42.2866135,25.7560031 C43.4758408,27.0597974 44.1933181,28.7236201 44.1933181,30.7591234 C44.1933181,37.9200866 39.8571591,39.4965238 35.7261591,39.9579204 C36.3914773,40.5335002 36.9849318,41.6706794 36.9849318,43.410236 C36.9849318,45.9024751 36.96175,47.9123451 36.96175,48.5240448 C36.96175,49.0227258 37.2955682,49.6029664 38.23675,49.4200387 C45.6004544,46.9499374 50.9090909,39.967241 50.9090909,31.7343474 C50.9090909,21.4368216 42.6053637,13.0909091 32.3624772,13.0909091" id="Github"></path>
                    </g>
                </g>
            </g>
        </g>
    </g>
</svg>