<?xml version="1.0" encoding="UTF-8"?>
<svg width="44px" height="37px" viewBox="0 0 44 37" version="1.1" xmlns="http://www.w3.org/2000/svg" xmlns:xlink="http://www.w3.org/1999/xlink">
    <!-- Generator: Sketch 55.1 (78136) - https://sketchapp.com -->
    <title>Reddit</title>
    <desc>Created with Sketch.</desc>
    <g id="页面-1" stroke="none" stroke-width="1" fill="none" fill-rule="evenodd">
        <g id="1440&quot;-Web-" transform="translate(-554.000000, -2874.000000)" fill="#01081E" fill-rule="nonzero">
            <g id="Screen_5" transform="translate(120.000000, 2691.000000)">
                <g id="Reddit" transform="translate(424.000000, 170.000000)">
                    <g id="reddit">
                        <g id="github">
                            <g id="Reddit" transform="translate(10.666667, 13.333333)">
                                <path d="M27.68,23.9933063 C26.0853333,23.9933063 24.7453333,22.7117632 24.7453333,21.1316334 C24.7453333,19.5515036 26.0853333,18.2276832 27.68,18.2276832 C29.2746667,18.2276832 30.568,19.5515036 30.568,21.1316334 C30.568,22.7117632 29.2746667,23.9933063 27.68,23.9933063 M28.3573333,29.5475401 C26.872,31.0180121 24.5813333,31.7327694 21.3546667,31.7327694 C21.348,31.7327694 21.34,31.7314485 21.332,31.7314485 C21.3253333,31.7314485 21.3173333,31.7327694 21.3093333,31.7327694 C18.0826667,31.7327694 15.7933333,31.0180121 14.3093333,29.5475401 C13.8533333,29.0956974 13.8533333,28.3650859 14.3093333,27.9145641 C14.764,27.4640414 15.5013333,27.4640414 15.9573333,27.9145641 C16.9813333,28.929229 18.732,29.4233499 21.3093333,29.4233499 C21.3173333,29.4233499 21.3253333,29.4246708 21.332,29.4246708 C21.34,29.4246708 21.348,29.4233499 21.3546667,29.4233499 C23.932,29.4233499 25.684,28.929229 26.7093333,27.9145641 C27.1653333,27.4627205 27.9026667,27.4640414 28.3573333,27.9145641 C28.812,28.3664068 28.812,29.0970183 28.3573333,29.5475401 M12.0986667,21.1316334 C12.0986667,19.5528254 13.436,18.2276832 15.0293333,18.2276832 C16.624,18.2276832 17.9173333,19.5528254 17.9173333,21.1316334 C17.9173333,22.7117632 16.624,23.9933063 15.0293333,23.9933063 C13.436,23.9933063 12.0986667,22.7117632 12.0986667,21.1316334 M35.552,2.90201303 C36.632,2.90201303 37.5106667,3.77266903 37.5106667,4.84150281 C37.5106667,5.91165748 36.632,6.78231348 35.552,6.78231348 C34.472,6.78231348 33.5933333,5.91165748 33.5933333,4.84150281 C33.5933333,3.77266903 34.472,2.90201303 35.552,2.90201303 M42.6666667,17.9885499 C42.6666667,15.1863303 40.3666667,12.9072974 37.5386667,12.9072974 C36.3146667,12.9072974 35.1906667,13.3353588 34.308,14.0474743 C31.1813333,12.1000574 27.2133333,10.9268503 22.96,10.678469 L25.1786667,3.72774903 L31.276,5.15065836 C31.436,7.35042014 33.292,9.09173387 35.552,9.09173387 C37.916,9.09173387 39.84,7.18527348 39.84,4.84150281 C39.84,2.49905303 37.916,0.592592587 35.552,0.592592587 C33.8986667,0.592592587 32.4613333,1.52534459 31.7453333,2.8874797 L24.66,1.23468503 C24.0666667,1.09596148 23.4666667,1.4341837 23.2826667,2.01021748 L20.528,10.6375125 C15.9453333,10.7484912 11.6373333,11.9256619 8.28133333,13.9867001 C7.41066667,13.3115783 6.316,12.9072974 5.128,12.9072974 C2.3,12.9072974 0,15.1863303 0,17.9885499 C0,19.7206148 0.88,21.251861 2.22,22.1687588 C2.164,22.5717179 2.13466667,22.9773196 2.13466667,23.3882059 C2.13466667,26.8906503 4.18933333,30.148677 7.92,32.5611481 C11.496,34.8745321 16.2293333,36.1481481 21.2466667,36.1481481 C26.264,36.1481481 30.9973333,34.8745321 34.5733333,32.5611481 C38.304,30.148677 40.3586667,26.8906503 40.3586667,23.3882059 C40.3586667,23.0143125 40.3333333,22.6430619 40.2866667,22.274453 C41.716,21.3720876 42.6666667,19.7879952 42.6666667,17.9885499"></path>
                            </g>
                        </g>
                    </g>
                </g>
            </g>
        </g>
    </g>
</svg>