<?xml version="1.0" encoding="UTF-8"?>
<svg width="36px" height="39px" viewBox="0 0 36 39" version="1.1" xmlns="http://www.w3.org/2000/svg" xmlns:xlink="http://www.w3.org/1999/xlink">
    <!-- Generator: Sketch 55.1 (78136) - https://sketchapp.com -->
    <title>discord</title>
    <desc>Created with Sketch.</desc>
    <g id="页面-1" stroke="none" stroke-width="1" fill="none" fill-rule="evenodd">
        <g id="1440&quot;-Web-" transform="translate(-134.000000, -2874.000000)" fill="#000000" fill-rule="nonzero">
            <g id="Screen_5" transform="translate(120.000000, 2691.000000)">
                <g id="Discord" transform="translate(0.000000, 170.000000)">
                    <g id="github">
                        <g id="discord" transform="translate(14.000000, 13.000000)">
                            <path d="M30.994539,0 C33.279289,0 35.122039,1.847625 35.230914,4.021875 L35.230914,39 L30.8807891,35.306375 L28.4920391,33.132125 L25.885539,30.860375 L26.9742891,34.4435 L4.16253905,34.4435 C1.88428904,34.4435 0.0350390625,32.712875 0.0350390625,30.42 L0.0350390625,4.02999999 C0.0350390625,1.85574999 1.88753906,0.004875 4.17066408,0.004875 L30.9831641,0.004875 L30.994539,0 Z M21.0527891,9.23487501 L21.0040391,9.23487501 L20.6757891,9.559875 C24.0444141,10.534875 25.6742891,12.0575 25.6742891,12.0575 C23.5032891,10.972 21.5467891,10.42925 19.5902891,10.209875 C18.1765391,9.99050001 16.7627891,10.105875 15.5684141,10.209875 L15.243414,10.209875 C14.4796641,10.209875 12.854664,10.534875 10.6771641,11.40425 C9.91828908,11.734125 9.48278906,11.95025 9.48278906,11.95025 C9.48278906,11.95025 11.1110391,10.322 14.6990391,9.452625 L14.4796641,9.23325 C14.4796641,9.23325 11.762664,9.12924999 8.82953906,11.297 C8.82953906,11.297 5.89641408,16.406 5.89641408,22.7045 C5.89641408,22.7045 7.52141409,25.532 11.9787891,25.63925 C11.9787891,25.63925 12.6287891,24.773125 13.2869141,24.011 C10.7844141,23.2505 9.80941406,21.7295 9.80941406,21.7295 C9.80941406,21.7295 10.027164,21.83675 10.353789,22.0545 L10.451289,22.0545 C10.500039,22.0545 10.522789,22.078875 10.548789,22.10325 L10.548789,22.113 C10.5747891,22.139 10.597539,22.16175 10.646289,22.16175 C11.182539,22.38275 11.718789,22.6005 12.157539,22.81175 C13.0958649,23.2134206 14.0773322,23.5056797 15.082539,23.68275 C16.593789,23.902125 18.3260391,24.00775 20.298789,23.68275 C21.273789,23.463375 22.248789,23.248875 23.223789,22.813375 C23.857539,22.488375 24.637539,22.163375 25.4939141,21.61575 C25.4939141,21.61575 24.5189141,23.13675 21.9107891,23.89725 C22.4470391,24.6545 23.2026641,25.52225 23.2026641,25.52225 C27.6616641,25.42475 29.3939141,22.59725 29.4914141,22.7175 C29.4914141,16.42875 26.5420391,11.31 26.5420391,11.31 C23.8851641,9.33725001 21.3989141,9.2625 20.9601641,9.2625 L21.0511641,9.23000001 L21.0527891,9.23487501 Z M21.3257891,16.406 C22.4681641,16.406 23.389539,17.381 23.389539,18.575375 C23.389539,19.777875 22.463289,20.752875 21.3257891,20.752875 C20.1882891,20.752875 19.2620391,19.777875 19.2620391,18.585125 C19.265289,17.382625 20.1931641,16.410875 21.3257891,16.410875 L21.3257891,16.406 Z M13.9434141,16.406 C15.0809141,16.406 16.0006641,17.381 16.0006641,18.575375 C16.0006641,19.777875 15.0744141,20.752875 13.936914,20.752875 C12.799414,20.752875 11.8731641,19.777875 11.8731641,18.585125 C11.8731641,17.382625 12.7994141,16.410875 13.936914,16.410875 L13.9434141,16.406 Z" id="形状"></path>
                        </g>
                    </g>
                </g>
            </g>
        </g>
    </g>
</svg>