<?xml version="1.0" encoding="UTF-8"?>
<svg width="38px" height="30px" viewBox="0 0 38 30" version="1.1" xmlns="http://www.w3.org/2000/svg" xmlns:xlink="http://www.w3.org/1999/xlink">
    <!-- Generator: Sketch 55.1 (78136) - https://sketchapp.com -->
    <title>twitter</title>
    <desc>Created with Sketch.</desc>
    <g id="页面-1" stroke="none" stroke-width="1" fill="none" fill-rule="evenodd">
        <g id="1440&quot;-Web-" transform="translate(-557.000000, -3030.000000)" fill="#01081E" fill-rule="nonzero">
            <g id="Screen_5" transform="translate(120.000000, 2691.000000)">
                <g id="Twitter" transform="translate(424.000000, 322.000000)">
                    <g id="telegram">
                        <g id="github">
                            <g id="twitter" transform="translate(13.000000, 17.000000)">
                                <path d="M37.4242425,3.51793101 C36.0681814,4.11653171 34.6108185,4.51828498 33.080933,4.70131872 C34.6418998,3.77233635 35.8402526,2.30000852 36.4054699,0.550252281 C34.9458048,1.40901423 33.3261292,2.0317893 31.6051519,2.37138015 C30.2260676,0.911715086 28.2610453,0 26.087664,0 C21.9124231,0 18.5268751,3.35907151 18.5268751,7.50438215 C18.5268751,8.08801794 18.5936422,8.66474687 18.7225715,9.21384791 C12.4407164,8.89843133 6.87027539,5.91233415 3.14053185,1.37563073 C2.49128019,2.48304224 2.11715468,3.77003406 2.11715468,5.14451358 C2.11715468,7.74957819 3.45249496,10.043831 5.4808308,11.3895317 C4.24218757,11.3515436 3.07606713,11.0119526 2.05729459,10.4501888 C2.05614343,10.48127 2.05614343,10.5123513 2.05614343,10.5457348 C2.05614343,14.1810835 4.6623593,17.2120758 8.12043017,17.9016179 C7.48614354,18.0731401 6.8184734,18.1629301 6.1289313,18.1629301 C5.64199255,18.1629301 5.16771652,18.118035 4.70610321,18.0293961 C5.66731798,21.0108887 8.46002101,23.1796654 11.7684416,23.2383744 C9.18064437,25.2505941 5.92057217,26.4512492 2.37961811,26.4512492 C1.76835458,26.4512492 1.16745146,26.4155634 0.57575757,26.3441916 C3.92101521,28.4738292 7.89480371,29.7159259 12.1644391,29.7159259 C26.0692454,29.7159259 33.6726268,18.2849526 33.6726268,8.37235328 C33.6726268,8.04772757 33.66572,7.72310169 33.6519061,7.40192932 C35.1299897,6.34286638 36.4100745,5.02249109 37.4242425,3.51793101 Z" id="Path"></path>
                            </g>
                        </g>
                    </g>
                </g>
            </g>
        </g>
    </g>
</svg>