<?xml version="1.0" encoding="UTF-8"?>
<svg width="38px" height="38px" viewBox="0 0 38 38" version="1.1" xmlns="http://www.w3.org/2000/svg" xmlns:xlink="http://www.w3.org/1999/xlink">
    <!-- Generator: Sketch 55.1 (78136) - https://sketchapp.com -->
    <title>telegram</title>
    <desc>Created with Sketch.</desc>
    <g id="页面-1" stroke="none" stroke-width="1" fill="none" fill-rule="evenodd">
        <g id="1440&quot;-Web-" transform="translate(-133.000000, -3026.000000)" fill="#01081E" fill-rule="nonzero">
            <g id="Screen_5" transform="translate(120.000000, 2691.000000)">
                <g id="Telegram" transform="translate(0.000000, 322.000000)">
                    <g id="telegram">
                        <g id="github">
                            <g id="telegram" transform="translate(13.333333, 13.333333)">
                                <path d="M36.7676768,18.6666667 C36.7676768,28.6674747 28.6674747,36.7676768 18.6666667,36.7676768 C8.66585864,36.7676768 0.56565656,28.6674747 0.56565656,18.6666667 C0.56565656,8.66585864 8.66585864,0.56565656 18.6666667,0.56565656 C28.6674747,0.56565656 36.7676768,8.66585864 36.7676768,18.6666667 Z M15.6498316,22.3472054 L22.9505723,27.7322559 C23.780202,28.1847812 24.383569,27.9585186 24.5947474,26.962963 L27.5663299,12.9648485 C27.8680134,11.7430303 27.0987206,11.2 26.2992593,11.5620201 L8.86195282,18.2895623 C7.67030303,18.7722559 7.68538721,19.4359595 8.65077445,19.7225589 L13.1307744,21.1253872 L23.4936026,14.5939394 C23.9762963,14.2922559 24.4288216,14.4581818 24.0668013,14.7900337 L15.6498316,22.3472054 Z" id="Combined-Shape"></path>
                            </g>
                        </g>
                    </g>
                </g>
            </g>
        </g>
    </g>
</svg>