<?xml version="1.0" encoding="UTF-8"?>
<svg width="24px" height="24px" viewBox="0 0 24 24" version="1.1" xmlns="http://www.w3.org/2000/svg" xmlns:xlink="http://www.w3.org/1999/xlink">
    <!-- Generator: Sketch 61 (89581) - https://sketch.com -->
    <title>icon_3</title>
    <desc>Created with Sketch.</desc>
    <g id="icon_3" stroke="none" stroke-width="1" fill="none" fill-rule="evenodd">
        <path d="M18.9366725,8.1340925 C18.9366353,8.13334815 18.9365422,8.13262241 18.936505,8.13187806 C18.9358909,8.12047081 18.9348302,8.10911941 18.933509,8.09782382 C18.9331554,8.09480917 18.9327832,8.09179454 18.9323925,8.08876129 C18.9308293,8.07694466 18.9290056,8.06516524 18.9266981,8.05351608 C18.9266795,8.05338582 18.9266609,8.05327416 18.9266423,8.0531439 C18.924279,8.04127144 18.9213946,8.02951063 18.9182869,8.01784286 C18.917524,8.0149957 18.9167238,8.01216716 18.9159236,8.00932 C18.9128345,7.99847101 18.9095035,7.98767787 18.9057632,7.9770522 C18.9054654,7.9762148 18.9052235,7.97537739 18.9049258,7.97454001 C18.9009248,7.96333747 18.8964587,7.9523024 18.8917507,7.94137898 C18.8904853,7.93842017 18.889164,7.93549857 18.8878428,7.93255838 C18.8834139,7.92273288 18.8787431,7.91300044 18.8737373,7.90343549 C18.873086,7.9022073 18.8725277,7.9009419 18.8718764,7.89971372 C18.8663123,7.88925553 18.8603017,7.87903926 18.8540677,7.86893464 C18.8523371,7.86614331 18.8505878,7.86337058 18.8488014,7.86061647 C18.8427349,7.85118177 18.8364637,7.84187733 18.8298203,7.83279619 C18.8292248,7.83199601 18.8286852,7.83114001 18.8280897,7.83033983 C18.8208509,7.82053296 18.8131654,7.81104241 18.8052566,7.80170077 C18.8033027,7.79939327 18.8013301,7.79712299 18.799339,7.79483409 C18.7911325,7.78545522 18.7827213,7.77622522 18.7738634,7.76736739 L15.1700123,4.16349761 C15.1611917,4.15467701 15.1520175,4.14630301 15.1426759,4.13815232 C15.1403125,4.13608674 15.1379306,4.13402115 15.13553,4.13199279 C15.1262628,4.12415845 15.1168281,4.11652882 15.1071143,4.10934578 C15.1061466,4.10863864 15.1051603,4.10798734 15.1041927,4.1072988 C15.0952976,4.1008043 15.0861793,4.09464477 15.0769493,4.08870853 C15.0740649,4.08684763 15.0711619,4.08500536 15.0682589,4.08321891 C15.0582474,4.07704076 15.0481241,4.07108592 15.0377776,4.0655777 C15.0363819,4.06483335 15.034949,4.06418204 15.0335534,4.06345629 C15.0241931,4.05856215 15.0146654,4.05400297 15.0050632,4.04964851 C15.0019927,4.04827144 14.9989408,4.0468944 14.9958518,4.04557316 C14.9850214,4.04092093 14.9740794,4.03649204 14.9629885,4.03252833 C14.961965,4.03217476 14.9609415,4.03185841 14.959918,4.03150484 C14.9494971,4.0278575 14.9389458,4.02458234 14.9283015,4.02154909 C14.9253427,4.02071168 14.9223839,4.01987428 14.9194065,4.0190741 C14.9078132,4.01598503 14.896164,4.01311926 14.884366,4.01077454 C14.8840682,4.01071871 14.8837519,4.01068148 14.8834541,4.01060705 C14.8719911,4.00833677 14.8603977,4.00655031 14.8487672,4.00500578 C14.8456781,4.00459638 14.842589,4.0042056 14.8394814,4.00385203 C14.8283346,4.00256802 14.8171507,4.00152593 14.8058923,4.00091183 C14.8050177,4.00085601 14.8041245,4.00076297 14.8032499,4.00070714 C14.793964,4.00024192 14.784641,4 14.7752993,4 L5.55826634,4 C5.24993585,4 5,4.24993587 5,4.55826636 L5,19.7417337 C5,20.0500455 5.24993585,20.3 5.55826634,20.3 L18.3791319,20.3 C18.6874438,20.3 18.9373982,20.0500455 18.9373982,19.7417337 L18.9373982,8.16213607 C18.9373982,8.15275721 18.9371377,8.14341554 18.9366725,8.1340925 Z M15.3335285,5.90603293 L17.0313467,7.60385113 L15.3335285,7.60385113 L15.3335285,5.90603293 Z M6.11653268,19.1834673 L6.11653268,5.11653269 L14.2169958,5.11653269 L14.2169958,8.16213609 C14.2169958,8.47044798 14.4669503,8.72040243 14.7752622,8.72040243 L17.8208656,8.72040241 L17.8208656,19.1834673 L6.11653268,19.1834673 Z M7.8756113,9.78717494 L11.4663432,9.78717494 C11.774655,9.78717494 12.0246095,9.53722049 12.0246095,9.22890861 C12.0246095,8.92059672 11.774655,8.67064227 11.4663432,8.67064227 L7.8756113,8.67064227 C7.56729941,8.67064227 7.31734496,8.92059672 7.31734496,9.22890861 C7.31734496,9.53722049 7.56729941,9.78717494 7.8756113,9.78717494 Z M7.8756113,12.710518 L12.6021546,12.710518 C12.9104665,12.710518 13.160421,12.4605636 13.160421,12.1522517 C13.160421,11.8439398 12.9104665,11.5939853 12.6021546,11.5939853 L7.8756113,11.5939853 C7.56729941,11.5939853 7.31734496,11.8439398 7.31734496,12.1522517 C7.31734496,12.4605636 7.56729941,12.710518 7.8756113,12.710518 Z M15.0028115,14.4964493 L7.8756113,14.4964493 C7.56729941,14.4964493 7.31734496,14.7464037 7.31734496,15.0547156 C7.31734496,15.3630275 7.56729941,15.6129819 7.8756113,15.6129819 L15.0028115,15.6129819 C15.3111234,15.6129819 15.5610779,15.3630275 15.5610779,15.0547156 C15.5610779,14.7464037 15.3111234,14.4964493 15.0028115,14.4964493 Z" id="形状" fill="#01081E" fill-rule="nonzero"></path>
    </g>
</svg>