<?xml version="1.0" encoding="UTF-8"?>
<svg width="24px" height="24px" viewBox="0 0 24 24" version="1.1" xmlns="http://www.w3.org/2000/svg" xmlns:xlink="http://www.w3.org/1999/xlink">
    <!-- Generator: Sketch 61 (89581) - https://sketch.com -->
    <title>icon_4</title>
    <desc>Created with Sketch.</desc>
    <g id="icon_4" stroke="none" stroke-width="1" fill="none" fill-rule="evenodd">
        <g id="地球" transform="translate(4.000000, 3.000000)" fill="#01081E" fill-rule="nonzero">
            <path d="M9.53003046,1.29711278 C9.09931902,1.21460186 8.65462392,1.17140623 8.19984375,1.17140623 C8.17676299,1.17140623 8.15368236,1.17140623 8.13060266,1.17173571 L7.6878477,4.27751804 C7.66075063,4.46771005 7.54210557,4.63252183 7.3703417,4.7185708 L5.54355196,5.63358551 L4.61356521,7.96261568 C4.53765068,8.15273945 4.36797719,8.28942896 4.16605142,8.32313426 L1.19827538,8.81858419 C1.346623,10.5194295 2.10077068,12.046687 3.24373373,13.1834086 L2.91184139,10.8633287 C2.869323,10.566121 3.0584502,10.284892 3.34972769,10.2121367 L7.49524289,9.17694299 C7.69468548,9.12713917 7.90563885,9.18553897 8.05107516,9.33081818 L9.82224141,11.1000443 C9.86418547,11.1419447 9.92725669,11.1544174 9.98199193,11.1316357 L12.7352542,9.98581731 L13.3103415,9.97168722 C13.6337411,9.96374362 13.9023226,10.2194396 13.9102662,10.542821 C13.9103943,10.5476164 13.9104492,10.5524119 13.9104492,10.5572073 L13.9104492,12.2980268 C14.7398415,11.1443747 15.2282813,9.72915122 15.2282813,8.19982545 C15.2282813,7.45854493 15.11352,6.74407863 14.9008183,6.07321061 L13.0116512,6.57940454 C12.8680601,6.61788247 12.7152103,6.60032044 12.5840879,6.53027869 L10.2441673,5.28040652 C10.0746525,5.18986207 9.96034171,5.02191853 9.93828384,4.8310075 L9.53003046,1.29709448 L9.53003046,1.29711278 Z M10.6009337,1.59223395 L10.9360657,4.50566771 L12.9359124,5.54205109 L14.5183725,5.11803864 C13.7232805,3.49093705 12.318197,2.21639214 10.6009337,1.59223395 L10.6009337,1.59223395 Z M4.44863487,14.144584 C5.53410749,14.8310098 6.8205861,15.2282813 8.19984375,15.2282813 C9.93015721,15.2282813 11.5144293,14.6030066 12.739043,13.5660924 L12.739043,11.3472659 C12.739043,11.2983177 12.7145867,11.2526062 12.673865,11.2254462 C12.6331433,11.1982861 12.5815435,11.19327 12.5363531,11.2120783 L10.0066647,12.2650627 C9.78772225,12.3562024 9.53542803,12.3063188 9.36764427,12.1387156 L7.55123245,10.3242805 C7.5148743,10.2879591 7.46213584,10.2733573 7.41227438,10.2858071 L4.14630224,11.1014536 C4.07348316,11.1196401 4.02620651,11.1899425 4.03683067,11.2642425 L4.44863487,14.1446206 L4.44863487,14.144584 Z M1.18330334,7.78752705 L3.75904266,7.35732811 L4.65990897,5.10156573 C4.71309329,4.96837673 4.8132961,4.85932982 4.94152236,4.79509657 L6.71232254,3.9081224 L7.09028409,1.25851129 C3.8683312,1.76946405 1.37524924,4.46986661 1.18330334,7.78752705 L1.18330334,7.78752705 Z M8.19984375,16.3996875 C3.67118719,16.3996875 0,12.7285003 0,8.19984375 C0,3.67118719 3.67118719,0 8.19984375,0 C12.7285003,0 16.3996875,3.67118719 16.3996875,8.19984375 C16.3996875,12.7285003 12.7285003,16.3996875 8.19984375,16.3996875 Z" id="形状"></path>
        </g>
    </g>
</svg>