<?xml version="1.0" encoding="UTF-8"?>
<svg width="24px" height="24px" viewBox="0 0 24 24" version="1.1" xmlns="http://www.w3.org/2000/svg" xmlns:xlink="http://www.w3.org/1999/xlink">
    <!-- Generator: Sketch 61 (89581) - https://sketch.com -->
    <title>icon_2</title>
    <desc>Created with Sketch.</desc>
    <g id="icon_2" stroke="none" stroke-width="1" fill="none" fill-rule="evenodd">
        <g id="灯泡" transform="translate(2.000000, 2.000000)" fill-rule="nonzero">
            <rect id="矩形" fill="#000000" opacity="0" x="0" y="0" width="19.36" height="19.36"></rect>
            <path d="M9.69323178,4.58765085 C12.0428197,4.58765085 13.9538684,6.49869948 13.9538684,8.84828744 C13.9538684,11.1978754 12.0428198,13.108924 9.69323178,13.108924 C7.3436438,13.108924 5.43259519,11.1978754 5.43259519,8.84828744 C5.43259519,6.49869948 7.34364382,4.58765085 9.69323178,4.58765085 M9.69323178,3.52154657 C6.75199375,3.52154657 4.36838117,5.90704941 4.36838117,8.84828744 C4.36838117,11.7895255 6.753884,14.1750283 9.69512205,14.1750283 C12.6363601,14.1750283 15.0218629,11.7895255 15.0218629,8.84828744 C15.0199727,5.90704941 12.6363601,3.52154657 9.69323178,3.52154657 Z M6.04503807,15.7798555 L13.3414255,15.7798555 L13.3414255,16.8459598 L6.04503807,16.8459598 L6.04503807,15.7798555 Z M7.13760593,18.2938957 L12.2507479,18.2938957 L12.2507479,19.36 L7.13760593,19.36 L7.13760593,18.2938957 Z M9.13182582,0.00189024687 L10.1979301,0.00189024687 L10.1979301,2.13031831 L9.13182582,2.13031831 L9.13182582,0.00189024687 Z M3.07809257,2.96482844 L3.83192658,2.21099441 L5.33694825,3.71601608 L4.58311424,4.46985011 L3.07809257,2.96482844 Z M0.894091007,8.27553994 L3.02251905,8.27553994 L3.02251905,9.3416442 L0.894091007,9.3416442 L0.894091007,8.27553994 Z M16.3431517,8.24151532 L18.4715798,8.24151532 L18.4715798,9.30761961 L16.3431517,9.30761961 L16.3431517,8.24151532 Z M14.0038467,3.69229337 L15.5088684,2.1872717 L16.2627024,2.94110573 L14.7576808,4.4461274 L14.0038467,3.69229337 Z" id="形状" fill="#01081E"></path>
        </g>
    </g>
</svg>