<?xml version="1.0" encoding="UTF-8"?>
<svg width="24px" height="24px" viewBox="0 0 24 24" version="1.1" xmlns="http://www.w3.org/2000/svg" xmlns:xlink="http://www.w3.org/1999/xlink">
    <!-- Generator: Sketch 61 (89581) - https://sketch.com -->
    <title>icon_1</title>
    <desc>Created with Sketch.</desc>
    <g id="icon_1" stroke="none" stroke-width="1" fill="none" fill-rule="evenodd">
        <path d="M19.4245757,9.60793988 C19.4180818,9.54020421 19.4006514,9.47396896 19.3729628,9.41181085 L19.3213499,9.32923021 L19.2490918,9.25697215 L12.0232854,4.09568182 C11.8441038,3.96810606 11.6037573,3.96810606 11.4245757,4.09568182 L4.19876923,9.25697215 L4.05425311,9.33955279 L4.0026402,9.42213343 C4.00038935,9.4496143 4.00038935,9.4772332 4.0026402,9.50471407 C3.99911993,9.53903263 3.99911993,9.57362131 4.0026402,9.60793988 L4.0026402,19.4556818 C4.0026402,19.740732 4.23371904,19.9718108 4.51876923,19.9718108 L9.68005956,19.9718108 C9.94068669,19.9403149 10.1361493,19.7181983 10.1342531,19.4556818 L10.1342531,15.8427786 C10.1342531,14.987628 10.8274896,14.2943915 11.6826402,14.2943915 C12.5377908,14.2943915 13.2310273,14.987628 13.2310273,15.8427786 L13.2310273,19.4556818 C13.2310273,19.740732 13.4621061,19.9718108 13.7471563,19.9718108 L18.9084467,19.9718108 C19.1934968,19.9718108 19.4245757,19.740732 19.4245757,19.4556818 L19.4245757,9.64923021 L19.4245757,9.60793988 Z M14.2632854,18.8982625 L14.2632854,15.8014883 C14.2632854,14.3762373 13.1078912,13.2208431 11.6826402,13.2208431 C10.2573892,13.2208431 9.10199505,14.3762373 9.10199505,15.8014883 L9.10199505,18.8982625 L4.97296278,18.8982625 L4.97296278,9.9176173 L11.6826402,5.1176173 L18.3923176,9.9176173 L18.3923176,18.9395528 L14.2632854,18.8982625 Z" id="形状" fill="#01081E" fill-rule="nonzero"></path>
    </g>
</svg>