<?xml version="1.0" encoding="UTF-8"?>
<svg width="24px" height="24px" viewBox="0 0 24 24" version="1.1" xmlns="http://www.w3.org/2000/svg" xmlns:xlink="http://www.w3.org/1999/xlink">
    <!-- Generator: Sketch 61 (89581) - https://sketch.com -->
    <title>icon_close</title>
    <desc>Created with Sketch.</desc>
    <g id="icon_close" stroke="none" stroke-width="1" fill="none" fill-rule="evenodd" fill-opacity="0.6">
        <path d="M4.5753788,4.5753788 C4.77064094,4.38011665 5.08722343,4.38011665 5.28248558,4.5753788 L5.28248558,4.5753788 L11.9999322,11.2929322 L18.7175144,4.5753788 C18.8910808,4.40181245 19.1605052,4.3825273 19.3553733,4.51752335 L19.4246212,4.5753788 C19.6198833,4.77064094 19.6198833,5.08722343 19.4246212,5.28248558 L19.4246212,5.28248558 L12.7069322,11.9999322 L19.4246212,18.7175144 C19.5981876,18.8910808 19.6174727,19.1605052 19.4824767,19.3553733 L19.4246212,19.4246212 C19.2293591,19.6198833 18.9127766,19.6198833 18.7175144,19.4246212 L18.7175144,19.4246212 L11.9999322,12.7069322 L5.28248558,19.4246212 C5.10891923,19.5981876 4.83949483,19.6174727 4.64462669,19.4824767 L4.5753788,19.4246212 C4.38011665,19.2293591 4.38011665,18.9127766 4.5753788,18.7175144 L4.5753788,18.7175144 L11.2929322,11.9999322 L4.5753788,5.28248558 C4.40181245,5.10891923 4.3825273,4.83949483 4.51752335,4.64462669 Z" id="Combined-Shape" fill="#01081E"></path>
    </g>
</svg>