<?xml version="1.0" encoding="UTF-8"?>
<svg width="16px" height="16px" viewBox="0 0 16 16" version="1.1" xmlns="http://www.w3.org/2000/svg" xmlns:xlink="http://www.w3.org/1999/xlink">
    <!-- Generator: Sketch 55.1 (78136) - https://sketchapp.com -->
    <title>关闭</title>
    <desc>Created with Sketch.</desc>
    <g id="页面-1" stroke="none" stroke-width="1" fill="none" fill-rule="evenodd">
        <g id="1440&quot;-Web-备份" transform="translate(-1400.000000, -804.000000)" fill="#FFFFFF" fill-rule="nonzero">
            <g id="关闭" transform="translate(1400.000000, 804.000000)">
                <path d="M9.1328,7.9812 L15.7648,1.3836 C16.0784,1.0716 16.08,0.566 15.768,0.2524 C15.4552,-0.062 14.9504,-0.0628 14.6368,0.2492 L8.0032,6.8476 L1.4272,0.2516 C1.116,-0.0604 0.6096,-0.062 0.296,0.25 C-0.0168,0.562 -0.0176,1.0684 0.2944,1.382 L6.8688,7.9764 L0.24,14.57 C-0.0736,14.882 -0.0752,15.3876 0.2368,15.7012 C0.3928,15.858 0.5984,15.9372 0.804,15.9372 C1.008,15.9372 1.212,15.8596 1.368,15.7044 L7.9984,9.1092 L14.6344,15.7652 C14.7904,15.922 14.9952,16.0004 15.2008,16.0004 C15.4056,16.0004 15.6096,15.922 15.7656,15.7668 C16.0784,15.4548 16.0792,14.9492 15.7672,14.6356 L9.1328,7.9812 Z" id="路径"></path>
            </g>
        </g>
    </g>
</svg>