<?xml version="1.0" encoding="UTF-8"?>
<svg width="149px" height="40px" viewBox="0 0 149 40" version="1.1" xmlns="http://www.w3.org/2000/svg" xmlns:xlink="http://www.w3.org/1999/xlink">
    <!-- Generator: Sketch 55.1 (78136) - https://sketchapp.com -->
    <title>Logo</title>
    <desc>Created with Sketch.</desc>
    <defs>
        <polygon id="path-1" points="0 39.6825397 148.727302 39.6825397 148.727302 0.020952381 0 0.020952381"></polygon>
    </defs>
    <g id="页面-1" stroke="none" stroke-width="1" fill="none" fill-rule="evenodd">
        <g id="1440&quot;-Web-" transform="translate(-120.000000, -30.000000)">
            <g id="Navigation">
                <g id="Logo" transform="translate(120.000000, 30.000000)">
                    <polygon id="Fill-1" fill="#0FCD8C" points="17.1728571 0.317619048 0.000158730159 10.2325397 0.000158730159 13.9703175 16.9960317 4.15730159 17.1719048 4.05571429 17.3484127 4.15730159 30.7569841 11.8988889 33.9944444 10.0296825"></polygon>
                    <polygon id="Fill-2" fill="#0FCD8C" points="12.5229206 17.8714921 3.58863492 12.7133968 0.350857143 14.5829206 9.28514286 19.7410159"></polygon>
                    <polygon id="Fill-3" fill="#0FCD8C" points="33.9936508 17.8714921 17.1730159 8.16006349 7.14349206 13.9502222 10.3806349 15.8194286 16.9961905 12.0000635 17.1720635 11.8984762 17.3485714 12.0000635 30.755873 19.7410159"></polygon>
                    <polygon id="Fill-4" fill="#0FCD8C" points="23.9654603 16.6345079 13.9359365 22.4253016 17.1737143 24.2945079 27.2032381 18.5040317"></polygon>
                    <polygon id="Fill-5" fill="#0FCD8C" points="28.6151111 13.9500317 31.8519365 15.8192381 34.3459048 14.3792381 34.3459048 10.6414603"></polygon>
                    <polygon id="Fill-6" fill="#0FCD8C" points="0 25.9173333 0 29.6560635 20.4114286 17.871619 17.1736508 16.0020952"></polygon>
                    <polygon id="Fill-7" fill="#0FCD8C" points="3.5887619 19.7408889 5.73130159 18.5040635 2.49384127 16.6348571 0.351619048 17.8716825"></polygon>
                    <polygon id="Fill-8" fill="#0FCD8C" points="0 22.2221905 2.49333333 23.661873 5.73174603 21.7920317 0 18.4831429"></polygon>
                    <polygon id="Fill-9" fill="#0FCD8C" points="17.1729206 28.3985079 16.9960952 28.2966032 10.3811746 24.4772381 7.14434921 26.346127 17.1729206 32.1362857 34.3459365 22.2216825 34.3459365 18.4842222 17.350381 28.2966032"></polygon>
                    <polygon id="Fill-10" fill="#0FCD8C" points="23.9654603 23.6620317 27.2032381 21.7925079 25.0613333 20.5556825 21.8232381 22.4252063"></polygon>
                    <polygon id="Fill-11" fill="#0FCD8C" points="28.6151111 26.3461905 34.3459048 29.6553968 34.3459048 25.9173016 31.8519365 24.4773016"></polygon>
                    <polygon id="Fill-12" fill="#0FCD8C" points="0.351714286 30.2673333 17.1729841 39.9790794 33.993619 30.2676508 30.7567937 28.3984444 17.3504444 36.1387619 17.1729841 36.2409841 16.9961587 36.1387619 3.58885714 28.398127"></polygon>
                    <polygon id="Fill-13" fill="#0FCD8C" points="56.3780317 29.0458413 52.0612063 20.2731429 49.4710476 23.8721905 49.4710476 29.0458413 47.1399365 29.0458413 47.1399365 11.2506032 49.4710476 11.2506032 49.4710476 20.1982222 55.752 11.2506032 58.6012063 11.2506032 53.6151746 18.223619 59.1193016 29.0458413"></polygon>
                    <g id="编组" transform="translate(0.000000, 0.296508)">
                        <path d="M68.7654921,28.8993968 C65.6359683,28.8993968 63.2616825,26.4251111 63.2616825,22.7511429 L63.2616825,10.9543175 L65.5924762,10.9543175 L65.5924762,22.6260635 C65.5924762,25.0003492 66.8445397,26.4749524 68.7654921,26.4749524 C70.6864444,26.4749524 71.9600952,25.0003492 71.9600952,22.6260635 L71.9600952,10.9543175 L74.2912063,10.9543175 L74.2912063,22.7511429 C74.2912063,26.4251111 71.8953333,28.8993968 68.7654921,28.8993968" id="Fill-14" fill="#0FCD8C"></path>
                        <path d="M85.1892381,28.8993968 C83.5920952,28.8993968 82.2105079,28.2244762 81.1530476,27.0000317 C79.6419365,25.2505079 79.6635072,23.2759048 79.6635072,19.8517778 C79.6635072,16.4276508 79.6419365,14.4530476 81.1530476,12.7035238 C82.2105079,11.4790794 83.5920952,10.8041587 85.1892381,10.8041587 C88.0168571,10.8041587 90.1320952,12.7286032 90.6717778,16.2774921 L88.2974921,16.2774921 C87.9305079,14.478127 86.8946349,13.2286032 85.1892381,13.2286032 C84.2828889,13.2286032 83.4625714,13.6282857 82.9228889,14.3028889 C82.1673333,15.2530476 81.9946349,16.2774921 81.9946349,19.8517778 C81.9946349,23.4260635 82.1673333,24.4505079 82.9228889,25.4006667 C83.4625714,26.0752698 84.2828889,26.4749524 85.1892381,26.4749524 C86.8946349,26.4749524 87.9520952,25.2254286 88.3187619,23.4260635 L90.6717778,23.4260635 C90.1536825,26.9749524 87.9736825,28.8993968 85.1892381,28.8993968" id="Fill-16" fill="#0FCD8C"></path>
                        <polygon id="Fill-18" fill="#0FCD8C" points="104.505333 28.7493333 104.505333 20.9766349 98.267873 20.9766349 98.267873 28.7493333 95.9364444 28.7493333 95.9364444 10.9540952 98.267873 10.9540952 98.267873 18.5521905 104.505333 18.5521905 104.505333 10.9540952 106.836762 10.9540952 106.836762 28.7493333"></polygon>
                        <path d="M117.799619,14.9779365 L115.403746,22.8760317 L120.13073,22.8760317 L117.799619,14.9779365 Z M121.83581,28.7493651 L120.778349,25.1753968 L114.712952,25.1753968 L113.655175,28.7493651 L111.17327,28.7493651 L116.806603,10.954127 L118.684381,10.954127 L124.318032,28.7493651 L121.83581,28.7493651 Z" id="Fill-20" fill="#0FCD8C"></path>
                        <mask id="mask-2" fill="white">
                            <use xlink:href="#path-1"></use>
                        </mask>
                        <g id="Clip-23"></g>
                        <polygon id="Fill-22" fill="#0FCD8C" mask="url(#mask-2)" points="128.654921 28.7495238 130.986032 28.7495238 130.986032 10.9542857 128.654921 10.9542857"></polygon>
                        <polygon id="Fill-24" fill="#0FCD8C" mask="url(#mask-2)" points="146.59054 28.7493333 139.48927 16.227746 139.48927 28.7493333 137.158159 28.7493333 137.158159 10.9540952 139.294984 10.9540952 146.396254 23.4509206 146.396254 10.9540952 148.727048 10.9540952 148.727048 28.7493333"></polygon>
                    </g>
                </g>
            </g>
        </g>
    </g>
</svg>