<?xml version="1.0" encoding="UTF-8"?>
<svg width="440px" height="264px" viewBox="0 0 440 264" version="1.1" xmlns="http://www.w3.org/2000/svg" xmlns:xlink="http://www.w3.org/1999/xlink">
    <!-- Generator: Sketch 61 (89581) - https://sketch.com -->
    <title>编组 16</title>
    <desc>Created with Sketch.</desc>
    <defs>
        <linearGradient x1="0.598755886%" y1="50.501478%" x2="99.498522%" y2="50.501478%" id="linearGradient-1">
            <stop stop-color="#F6F6F8" stop-opacity="0.24" offset="0%"></stop>
            <stop stop-color="#F6F6F8" offset="100%"></stop>
        </linearGradient>
        <rect id="path-2" x="0" y="0" width="440" height="264"></rect>
        <linearGradient x1="45.9643301%" y1="67.737691%" x2="51.4955566%" y2="93.4248774%" id="linearGradient-4">
            <stop stop-color="#B4EFDB" offset="0%"></stop>
            <stop stop-color="#1B9973" offset="100%"></stop>
        </linearGradient>
        <linearGradient x1="47.4398799%" y1="67.737691%" x2="50.9487408%" y2="93.4248774%" id="linearGradient-5">
            <stop stop-color="#B4EFDB" offset="0%"></stop>
            <stop stop-color="#1B9973" offset="100%"></stop>
        </linearGradient>
        <linearGradient x1="48.5810965%" y1="67.737691%" x2="50.5258236%" y2="93.4248774%" id="linearGradient-6">
            <stop stop-color="#B4EFDB" offset="0%"></stop>
            <stop stop-color="#1B9973" offset="100%"></stop>
        </linearGradient>
        <linearGradient x1="49.3879798%" y1="67.737691%" x2="50.2268052%" y2="93.4248774%" id="linearGradient-7">
            <stop stop-color="#B4EFDB" offset="0%"></stop>
            <stop stop-color="#1B9973" offset="100%"></stop>
        </linearGradient>
        <linearGradient x1="49.8605298%" y1="67.737691%" x2="50.0516855%" y2="93.4248774%" id="linearGradient-8">
            <stop stop-color="#B4EFDB" offset="0%"></stop>
            <stop stop-color="#1B9973" offset="100%"></stop>
        </linearGradient>
        <linearGradient x1="49.9997689%" y1="67.737691%" x2="50.0000856%" y2="93.4248774%" id="linearGradient-9">
            <stop stop-color="#B4EFDB" offset="0%"></stop>
            <stop stop-color="#1B9973" offset="100%"></stop>
        </linearGradient>
        <linearGradient x1="50%" y1="0%" x2="50%" y2="100%" id="linearGradient-10">
            <stop stop-color="#E4FAF3" offset="0%"></stop>
            <stop stop-color="#9FEAD0" offset="100%"></stop>
        </linearGradient>
        <linearGradient x1="50%" y1="0%" x2="50%" y2="100%" id="linearGradient-11">
            <stop stop-color="#E4FAF3" offset="0%"></stop>
            <stop stop-color="#9FEAD0" offset="100%"></stop>
        </linearGradient>
        <linearGradient x1="50%" y1="0%" x2="50%" y2="100%" id="linearGradient-12">
            <stop stop-color="#E4FAF3" offset="0%"></stop>
            <stop stop-color="#9FEAD0" offset="100%"></stop>
        </linearGradient>
        <linearGradient x1="50%" y1="0%" x2="50%" y2="100%" id="linearGradient-13">
            <stop stop-color="#E4FAF3" offset="0%"></stop>
            <stop stop-color="#9FEAD0" offset="100%"></stop>
        </linearGradient>
        <linearGradient x1="50%" y1="0%" x2="50%" y2="100%" id="linearGradient-14">
            <stop stop-color="#E4FAF3" offset="0%"></stop>
            <stop stop-color="#9FEAD0" offset="100%"></stop>
        </linearGradient>
        <linearGradient x1="50%" y1="0%" x2="50%" y2="100%" id="linearGradient-15">
            <stop stop-color="#E4FAF3" offset="0%"></stop>
            <stop stop-color="#9FEAD0" offset="100%"></stop>
        </linearGradient>
        <linearGradient x1="50%" y1="0%" x2="50%" y2="98.6433699%" id="linearGradient-16">
            <stop stop-color="#04C693" offset="0%"></stop>
            <stop stop-color="#16D29F" offset="100%"></stop>
        </linearGradient>
        <linearGradient x1="13.3244702%" y1="49.5524347%" x2="93.3004111%" y2="51.4515325%" id="linearGradient-17">
            <stop stop-color="#2AF1BC" offset="0%"></stop>
            <stop stop-color="#00E8A9" offset="100%"></stop>
        </linearGradient>
        <linearGradient x1="13.3244702%" y1="49.5524302%" x2="93.3004111%" y2="51.451547%" id="linearGradient-18">
            <stop stop-color="#2AF1BC" offset="0%"></stop>
            <stop stop-color="#00E8A9" offset="100%"></stop>
        </linearGradient>
        <radialGradient cx="23.2490657%" cy="15.2145899%" fx="23.2490657%" fy="15.2145899%" r="93.6561247%" gradientTransform="translate(0.232491,0.152146),scale(1.000000,0.997376),rotate(47.107239),scale(1.000000,0.994776),translate(-0.232491,-0.152146)" id="radialGradient-19">
            <stop stop-color="#F8FBFF" offset="0%"></stop>
            <stop stop-color="#D9DEE5" offset="100%"></stop>
        </radialGradient>
    </defs>
    <g id="页面-1" stroke="none" stroke-width="1" fill="none" fill-rule="evenodd">
        <g id="Why-is-KuChain" transform="translate(-120.000000, -2884.000000)">
            <g id="编组-40" transform="translate(0.000000, 1847.000000)">
                <g id="编组-28" transform="translate(120.000000, 0.000000)">
                    <g id="编组-22" transform="translate(0.000000, 819.000000)">
                        <g id="编组-6备份" transform="translate(0.000000, 218.000000)">
                            <g id="card_1">
                                <g id="编组-16">
                                    <mask id="mask-3" fill="white">
                                        <use xlink:href="#path-2"></use>
                                    </mask>
                                    <use id="矩形" fill="url(#linearGradient-1)" xlink:href="#path-2"></use>
                                    <g id="编组-25" mask="url(#mask-3)">
                                        <g transform="translate(190.000000, -181.000000)">
                                            <path d="M46.6418208,366.025487 C39.3431031,366.995318 33.2334503,368.16123 28.769063,369.482607 C23.4429809,371.057288 20.8482824,372.736288 20.8540741,374.4 L20.8540741,374.4 L19.6999639,330.169543 C19.6930638,328.50673 23.2889207,326.825932 28.6150028,325.25215 C33.2344929,323.885208 39.6123545,322.685537 47.2481816,321.695404 L47.2481816,321.695404 L48.1071496,321.585562 C63.0859993,319.696827 82.725395,318.6 103.411821,318.6 C104.587544,318.6 105.765584,318.603597 106.947098,318.610792 L106.947098,318.610792 L107.1,362.841249 C84.7253585,362.705454 63.3260457,363.861059 47.4010835,365.925861 L47.4010835,365.925861 Z" id="形状结合" fill="#27584B"></path>
                                            <g id="编组-24" stroke-width="1" fill="none">
                                                <g id="编组-20" transform="translate(152.646154, 461.600000) scale(-1, -1) translate(-152.646154, -461.600000) translate(114.146154, 307.600000)" stroke-width="0.9">
                                                    <polyline id="路径-4" stroke="url(#linearGradient-4)" points="8.23136431e-15 6.60241673e-14 8.23136431e-15 216.621509 76.546367 307.758831"></polyline>
                                                    <polyline id="路径-4" stroke="url(#linearGradient-5)" points="15.5790709 6.60241673e-14 15.5790709 216.621509 76.546367 307.758831"></polyline>
                                                    <polyline id="路径-4" stroke="url(#linearGradient-6)" points="31.1581418 6.60241673e-14 31.1581418 216.621509 76.546367 307.758831"></polyline>
                                                    <polyline id="路径-4" stroke="url(#linearGradient-7)" points="46.7372127 6.60241673e-14 46.7372127 216.621509 76.546367 307.758831"></polyline>
                                                    <polyline id="路径-4" stroke="url(#linearGradient-8)" points="62.3162836 6.60241673e-14 62.3162836 216.621509 76.546367 307.758831"></polyline>
                                                    <polyline id="路径-4" stroke="url(#linearGradient-9)" points="76.5453462 6.60241673e-14 76.5453462 216.621509 76.546367 307.758831"></polyline>
                                                </g>
                                                <g id="编组-20" transform="translate(76.729231, 461.600000) scale(1, -1) translate(-76.729231, -461.600000) translate(38.229231, 307.600000)" stroke-width="0.9">
                                                    <polyline id="路径-4" stroke="url(#linearGradient-4)" points="8.23136431e-15 6.60241673e-14 8.23136431e-15 216.621509 76.546367 307.758831"></polyline>
                                                    <polyline id="路径-4" stroke="url(#linearGradient-5)" points="15.5790709 6.60241673e-14 15.5790709 216.621509 76.546367 307.758831"></polyline>
                                                    <polyline id="路径-4" stroke="url(#linearGradient-6)" points="31.1581418 6.60241673e-14 31.1581418 216.621509 76.546367 307.758831"></polyline>
                                                    <polyline id="路径-4" stroke="url(#linearGradient-7)" points="46.7372127 6.60241673e-14 46.7372127 216.621509 76.546367 307.758831"></polyline>
                                                    <polyline id="路径-4" stroke="url(#linearGradient-8)" points="62.3162836 6.60241673e-14 62.3162836 216.621509 76.546367 307.758831"></polyline>
                                                </g>
                                                <g id="编组-23" transform="translate(37.070769, 0.000000)" stroke-width="0.9">
                                                    <g id="编组-20" transform="translate(114.416923, 154.000000) scale(-1, 1) translate(-114.416923, -154.000000) translate(75.916923, 0.000000)">
                                                        <polyline id="路径-4" stroke="url(#linearGradient-10)" points="8.23136431e-15 6.60241673e-14 8.23136431e-15 216.621509 76.546367 307.758831"></polyline>
                                                        <polyline id="路径-4" stroke="url(#linearGradient-11)" points="15.5790709 6.60241673e-14 15.5790709 216.621509 76.546367 307.758831"></polyline>
                                                        <polyline id="路径-4" stroke="url(#linearGradient-12)" points="31.1581418 6.60241673e-14 31.1581418 216.621509 76.546367 307.758831"></polyline>
                                                        <polyline id="路径-4" stroke="url(#linearGradient-13)" points="46.7372127 6.60241673e-14 46.7372127 216.621509 76.546367 307.758831"></polyline>
                                                        <polyline id="路径-4" stroke="url(#linearGradient-14)" points="62.3162836 6.60241673e-14 62.3162836 216.621509 76.546367 307.758831"></polyline>
                                                        <polyline id="路径-4" stroke="url(#linearGradient-15)" points="76.5453462 6.60241673e-14 76.5453462 216.621509 76.546367 307.758831"></polyline>
                                                    </g>
                                                    <g id="编组-20">
                                                        <polyline id="路径-4" stroke="url(#linearGradient-10)" points="8.23136431e-15 6.60241673e-14 8.23136431e-15 216.621509 76.546367 307.758831"></polyline>
                                                        <polyline id="路径-4" stroke="url(#linearGradient-11)" points="15.5790709 6.60241673e-14 15.5790709 216.621509 76.546367 307.758831"></polyline>
                                                        <polyline id="路径-4" stroke="url(#linearGradient-12)" points="31.1581418 6.60241673e-14 31.1581418 216.621509 76.546367 307.758831"></polyline>
                                                        <polyline id="路径-4" stroke="url(#linearGradient-13)" points="46.7372127 6.60241673e-14 46.7372127 216.621509 76.546367 307.758831"></polyline>
                                                        <polyline id="路径-4" stroke="url(#linearGradient-14)" points="62.3162836 6.60241673e-14 62.3162836 216.621509 76.546367 307.758831"></polyline>
                                                        <polyline id="路径-4" stroke="url(#linearGradient-15)" points="76.5453462 6.60241673e-14 76.5453462 216.621509 76.546367 307.758831"></polyline>
                                                    </g>
                                                </g>
                                                <g id="编组-10" transform="translate(19.693846, 315.930566)">
                                                    <polygon id="Fill-27" fill="url(#linearGradient-16)" points="125.813557 44.4311946 144.719649 53.045981 144.565574 8.61424438 125.659482 0.00036135849"></polygon>
                                                    <g id="编组-18" transform="translate(0.000000, 2.323019)"></g>
                                                    <g id="编组-19" transform="translate(144.549231, 5.807547)" fill="#27584B">
                                                        <path d="M0.170534308,47.2384338 L0.0164589231,2.80669721 L18.8414589,0.354879849 L19.3701355,0.435539849 C33.0290362,2.54983631 40.1585575,5.26557478 40.1688517,8.02886943 L40.1688517,8.02886943 L40.3229271,52.460606 L40.3190654,52.3543162 C40.1274387,49.5914626 32.8230177,46.884147 18.9956502,44.7862551 L18.9956502,44.7862551 L0.170534308,47.2384338 Z" id="形状结合"></path>
                                                    </g>
                                                </g>
                                                <path d="M0.154111113,374.89325 C0.165695728,378.336093 8.97927111,381.768096 26.8114696,384.474671 L26.8114696,384.474671 C41.4138773,386.689798 59.9515788,388.095483 79.5944527,388.67727 L79.5944527,388.67727 L79.4415357,344.245533 C59.7975034,343.663746 41.2609603,342.258965 26.6573942,340.042934 L26.6573942,340.042934 C8.82519573,337.337262 0.0116203435,333.904357 3.57280718e-05,330.462417 L3.57280718e-05,330.462417" id="Clip-116" fill="#1CAB82"></path>
                                                <path d="M46.9257214,321.895691 C39.289143,322.890331 32.9094953,324.095461 28.2907091,325.468623 C14.0393153,329.701035 19.3381183,334.688685 41.7091691,338.082745 L60.5341691,335.630928 L79.4402614,344.245714 C59.7973876,343.663927 41.259686,342.259146 26.6572783,340.043115 C-11.3136155,334.282157 -8.38850012,325.224706 33.3126399,319.792585 C51.6522445,317.404005 75.5003337,316.02994 100.328481,315.930566 L106.630512,318.797042 C84.2525107,318.660629 62.8510922,319.821494 46.9257214,321.895691" id="Fill-117" fill="url(#linearGradient-17)"></path>
                                                <path d="M190.632847,384.94147 C172.435797,387.250935 149.004058,388.579819 124.611306,388.675644 L124.611306,388.675644 L124.458389,344.244811 C149.293487,344.14634 173.133467,342.770468 191.467279,340.382792 L191.467279,340.382792 L192.127631,340.296059 C213.811235,337.423827 224.800713,333.561211 224.78695,329.711875 L224.78695,329.711875 L224.941038,374.143612 L224.938087,374.260261 C224.729581,378.109745 213.520958,381.961513 191.620196,384.814528 L191.620196,384.814528 Z" id="形状结合" fill="#1CAB82"></path>
                                                <path d="M191.466584,340.382792 C173.13393,342.770468 149.29395,344.14634 124.457694,344.243907 L118.163772,341.379238 C140.540615,341.514747 161.940875,340.353883 177.863929,338.279685 C185.49819,337.285046 191.87668,336.080819 196.495466,334.70856 C210.748018,330.473438 205.448057,325.485788 183.085115,322.092632 L164.260115,324.544449 L145.352864,315.930566 C165.675755,316.530421 184.10572,317.997537 198.135847,320.132262 C236.100949,325.892316 233.174675,334.95067 191.466584,340.382792" id="Fill-121" fill="url(#linearGradient-18)"></path>
                                                <polygon id="Fill-119" fill="#2F9678" points="118.317152 385.810252 118.163077 341.378515 124.458157 344.244088 124.612232 388.675824"></polygon>
                                                <ellipse id="椭圆形" fill="url(#radialGradient-19)" cx="113.529231" cy="307.8" rx="27.8030769" ry="27.8762264"></ellipse>
                                            </g>
                                        </g>
                                    </g>
                                </g>
                            </g>
                        </g>
                    </g>
                </g>
            </g>
        </g>
    </g>
</svg>