<?xml version="1.0" encoding="UTF-8"?>
<svg width="440px" height="264px" viewBox="0 0 440 264" version="1.1" xmlns="http://www.w3.org/2000/svg" xmlns:xlink="http://www.w3.org/1999/xlink">
    <!-- Generator: Sketch 61 (89581) - https://sketch.com -->
    <title>banner_small</title>
    <desc>Created with Sketch.</desc>
    <defs>
        <linearGradient x1="0.598755886%" y1="50.501478%" x2="99.498522%" y2="50.501478%" id="linearGradient-1">
            <stop stop-color="#F6F6F8" stop-opacity="0.24" offset="0%"></stop>
            <stop stop-color="#F6F6F8" offset="100%"></stop>
        </linearGradient>
        <rect id="path-2" x="0" y="0" width="440" height="264"></rect>
        <linearGradient x1="3.93995333%" y1="48.9975283%" x2="97.4867807%" y2="51.9852171%" id="linearGradient-4">
            <stop stop-color="#28DCAD" offset="0%"></stop>
            <stop stop-color="#1CBF8F" offset="100%"></stop>
        </linearGradient>
        <linearGradient x1="100%" y1="50%" x2="0%" y2="49.3856169%" id="linearGradient-5">
            <stop stop-color="#215343" offset="0%"></stop>
            <stop stop-color="#16B88C" offset="100%"></stop>
        </linearGradient>
        <linearGradient x1="3.93995333%" y1="48.9975283%" x2="97.4867807%" y2="51.9852171%" id="linearGradient-6">
            <stop stop-color="#28DCAD" offset="0%"></stop>
            <stop stop-color="#1CBF8F" offset="100%"></stop>
        </linearGradient>
        <polygon id="path-7" points="0 0.41544 79.866576 0.41544 79.866576 30.24 0 30.24"></polygon>
        <polygon id="path-9" points="0 0.991806658 46.3268765 0.991806658 46.3268765 96.8 0 96.8"></polygon>
        <linearGradient x1="43.7453405%" y1="15.2145899%" x2="58.6496175%" y2="83.649721%" id="linearGradient-11">
            <stop stop-color="#F1F3F5" offset="0%"></stop>
            <stop stop-color="#D9DEE5" offset="100%"></stop>
        </linearGradient>
    </defs>
    <g id="页面-1" stroke="none" stroke-width="1" fill="none" fill-rule="evenodd">
        <g id="翻页" transform="translate(-880.000000, -317.000000)">
            <g id="编组-22" transform="translate(-584.000000, 99.000000)">
                <g id="编组-9">
                    <g id="编组-30" transform="translate(0.000000, 218.000000)">
                        <g id="card_1备份-3" transform="translate(1464.000000, 0.000000)">
                            <g id="banner_small">
                                <g id="编组-26">
                                    <mask id="mask-3" fill="white">
                                        <use xlink:href="#path-2"></use>
                                    </mask>
                                    <use id="矩形" fill="url(#linearGradient-1)" xlink:href="#path-2"></use>
                                    <g id="编组-14" mask="url(#mask-3)" stroke="#0FCD8C" stroke-width="1.1">
                                        <g transform="translate(59.000000, 165.000000)" id="椭圆形">
                                            <ellipse opacity="0.379999995" cx="265.3" cy="51.85" rx="31.35" ry="9.9"></ellipse>
                                            <ellipse opacity="0.379999995" cx="265.3" cy="54.05" rx="57.75" ry="18.7"></ellipse>
                                            <ellipse opacity="0.379999995" cx="265.3" cy="57.35" rx="87.45" ry="28.6"></ellipse>
                                            <ellipse opacity="0.239999995" cx="265.3" cy="61.75" rx="120.45" ry="39.6"></ellipse>
                                            <ellipse opacity="0.159999996" cx="265.3" cy="67.25" rx="156.75" ry="51.7"></ellipse>
                                            <ellipse opacity="0.159999996" cx="265.3" cy="78.25" rx="213.45" ry="70.45"></ellipse>
                                            <ellipse opacity="0.159999996" cx="265.3" cy="88.25" rx="264.45" ry="87.45"></ellipse>
                                        </g>
                                    </g>
                                    <g id="编组-28" mask="url(#mask-3)">
                                        <g transform="translate(244.000000, 84.000000)">
                                            <g id="编组" transform="translate(14.000000, 103.000000)">
                                                <path d="M3.55024,38.62992 C1.14064,36.75632 -0.00176,34.85392 -0.000161678278,32.98352 L0.01744,17.54352 C0.01424,19.41392 1.15824,21.31632 3.56624,23.18832 C15.44464,32.42192 53.56784,37.40912 88.74064,34.33232 C116.76272,31.8808 134.44272,25.0472 134.45072,17.6984 L134.43312,33.1384 C134.42512,40.4872 116.74672,47.3208 88.72432,49.7736 C53.55184,52.85072 15.42704,47.86192 3.55024,38.62992 Z" id="形状结合" fill="#27584B"></path>
                                                <path d="M88.74048,34.3328 C53.56928,37.4096 15.44448,32.4224 3.56768,23.1888 C-8.30592,13.96 10.57088,3.9856 45.74208,0.9088 C80.90048,-2.1664 119.02528,2.8208 130.89728,12.0496 C142.77568,21.2816 123.89888,31.256 88.74048,34.3328" id="Fill-3" fill="url(#linearGradient-4)"></path>
                                            </g>
                                            <g id="编组备份" transform="translate(0.000000, 80.000000)">
                                                <path d="M3.195216,34.766928 C1.026576,33.080688 -0.001584,31.368528 -0.000145510451,29.685168 L0.015696,15.789168 C0.012816,17.472528 1.042416,19.184688 3.209616,20.869488 C13.900176,29.179728 48.211056,33.668208 79.866576,30.899088 C105.086448,28.69272 120.998448,22.54248 121.005648,15.92856 L120.989808,29.82456 C120.982608,36.43848 105.072048,42.58872 79.851888,44.79624 C48.196656,47.565648 13.884336,43.075728 3.195216,34.766928 Z" id="形状结合" fill="url(#linearGradient-5)"></path>
                                                <path d="M79.866432,30.89952 C48.212352,33.66864 13.900032,29.18016 3.210912,20.86992 C-7.475328,12.564 9.513792,3.58704 41.167872,0.81792 C72.810432,-1.94976 107.122752,2.53872 117.807552,10.84464 C128.498112,19.15344 111.508992,28.1304 79.866432,30.89952" id="Fill-3" fill="url(#linearGradient-6)"></path>
                                                <g id="编组" transform="translate(0.000000, 15.373728)">
                                                    <mask id="mask-8" fill="white">
                                                        <use xlink:href="#path-7"></use>
                                                    </mask>
                                                    <g id="Clip-6"></g>
                                                </g>
                                            </g>
                                            <g id="编组" transform="translate(33.000000, 0.000000)">
                                                <path d="M5.6661,65.97833 L10.4665,63.11063 C10.6766,62.98303 10.9439,62.91703 11.2717,62.91593 L6.4724,65.78363 C6.1435,65.78473 5.8773,65.85183 5.6661,65.97833" id="Fill-1" fill="#BEC3CF"></path>
                                                <path d="M33.17259,95.62564 L28.37219,98.49334 C28.45139,98.44604 28.52509,98.39104 28.59549,98.32614 L33.39479,95.45844 C33.32549,95.52224 33.25179,95.57834 33.17259,95.62564" id="Fill-3" fill="#BEC3CF"></path>
                                                <path d="M29.01855,97.15431 L33.81895,94.28661 C33.82775,94.78051 33.68365,95.16991 33.39545,95.45811 L28.59505,98.32581 C28.88325,98.03871 29.02735,97.64821 29.01855,97.15431" id="Fill-5" fill="#BEC3CF"></path>
                                                <polygon id="Fill-7" fill="#BEC3CF" points="28.85311 87.88483 33.65351 85.01713 33.81851 94.28573 29.01811 97.15453"></polygon>
                                                <path d="M35.34949,71.31289 L30.54909,74.18059 C28.57899,75.35869 26.29869,75.77889 23.70819,75.46649 C22.47839,75.32019 21.24749,75.03859 20.01329,74.60519 C15.67709,73.16529 11.59499,70.47469 6.47229,65.78429 L11.27159,62.91549 C16.39539,67.60699 20.47749,70.29649 24.81369,71.73749 C26.04679,72.16979 27.27879,72.45139 28.50749,72.59879 C31.09799,72.91009 33.37829,72.48989 35.34949,71.31289" id="Fill-9" fill="#BEC3CF"></path>
                                                <path d="M42.58914,82.44929 L37.78874,85.31699 C39.19124,84.47989 40.46504,83.43929 41.61124,82.19739 C44.84524,78.69169 46.41824,74.23779 46.32254,68.83349 C46.29064,67.06799 46.04754,65.37839 45.58334,63.77019 L50.38264,60.90139 C50.84794,62.51069 51.09104,64.19919 51.12184,65.96579 C51.21864,71.37009 49.64564,75.82399 46.41164,79.32969 C45.26544,80.57159 43.99054,81.61109 42.58914,82.44929" id="Fill-11" fill="#BEC3CF"></path>
                                                <path d="M16.17737,27.36877 L20.97777,24.50107 C20.89637,24.54947 20.81717,24.59787 20.73797,24.64957 C18.77007,25.92887 17.80757,27.77467 17.85047,30.17817 C17.86697,31.09887 18.02427,31.96127 18.32347,32.77417 C18.61277,33.58597 19.11657,34.37687 19.83157,35.14467 C20.53887,35.92127 21.20877,36.58017 21.83137,37.12907 C22.45507,37.68787 23.39117,38.34127 24.64847,39.11787 C25.90687,39.88457 26.92107,40.48077 27.69327,40.90537 C28.46547,41.33877 29.63147,41.96357 31.21107,42.78747 C32.98647,43.70267 34.34167,44.42427 35.27447,44.93467 C36.21717,45.45497 37.48437,46.22497 39.09367,47.25127 C40.71067,48.27097 41.97127,49.17077 42.90077,49.95507 C43.83027,50.74047 44.86977,51.74697 46.03797,52.97677 C47.20617,54.20657 48.10817,55.43417 48.74287,56.65737 C49.37867,57.88057 49.92867,59.29187 50.38297,60.90117 L45.58367,63.76997 C45.12827,62.16067 44.57827,60.74937 43.94357,59.52507 C43.30887,58.30187 42.40687,57.07537 41.23867,55.84557 C40.07047,54.61577 39.02987,53.60817 38.10037,52.82387 C37.17087,52.03957 35.91027,51.13867 34.29327,50.12007 C32.68397,49.09267 31.41677,48.32377 30.47517,47.80237 C29.54127,47.29197 28.18607,46.57037 26.41067,45.65517 C24.83217,44.83127 23.66507,44.20757 22.89287,43.77307 C22.12177,43.34847 21.10647,42.75227 19.84807,41.98557 C18.59077,41.20897 17.65467,40.55557 17.03097,39.99677 C16.40837,39.44787 15.73957,38.79007 15.03227,38.01347 C14.31617,37.24567 13.81347,36.45477 13.52307,35.64187 C13.22387,34.82897 13.06657,33.96657 13.05007,33.04587 C13.00717,30.64347 13.96967,28.79657 15.93757,27.51727 C16.01677,27.46667 16.09707,27.41717 16.17737,27.36877" id="Fill-13" fill="#BEC3CF"></path>
                                                <path d="M8.65359,16.64432 L13.45399,13.77662 C16.00929,12.24872 19.00019,11.34232 22.43219,11.05412 L17.63289,13.92292 C14.19979,14.21112 11.20889,15.11642 8.65359,16.64432" id="Fill-15" fill="#BEC3CF"></path>
                                                <path d="M18.17057,3.05217 L22.97097,0.18447 C23.22507,0.03157 23.50997,-0.02673 23.82677,0.01067 L19.02637,2.87947 C18.71067,2.84097 18.42467,2.90037 18.17057,3.05217" id="Fill-17" fill="#BEC3CF"></path>
                                                <path d="M44.07535,31.04574 L39.27605,33.91344 C39.47185,33.79574 39.63685,33.60874 39.76995,33.35024 L44.57035,30.48254 C44.43725,30.73994 44.27225,30.92804 44.07535,31.04574" id="Fill-19" fill="#BEC3CF"></path>
                                                <polygon id="Fill-21" fill="#BEC3CF" points="19.02615 2.87925 23.82655 0.01155 30.55855 0.82115 25.75925 3.68885"></polygon>
                                                <polygon id="Fill-23" fill="#BEC3CF" points="27.38362 5.58085 32.18402 2.71315 32.35012 12.03895 27.54972 14.90775"></polygon>
                                                <path d="M25.75936,3.68918 L30.55866,0.82148 C31.02176,0.87648 31.40786,1.08438 31.71696,1.43418 L26.91656,4.30188 C26.60746,3.95208 26.22246,3.74528 25.75936,3.68918" id="Fill-25" fill="#BEC3CF"></path>
                                                <path d="M26.91634,4.30199 L31.71674,1.43429 C32.01594,1.79179 32.17434,2.20979 32.18424,2.71249 L27.38384,5.58129 C27.37504,5.07749 27.21554,4.66059 26.91634,4.30199" id="Fill-27" fill="#BEC3CF"></path>
                                                <polygon id="Fill-29" fill="#BEC3CF" points="43.66659 26.09519 48.46699 23.22749 44.56969 30.48199 39.77039 33.35079"></polygon>
                                                <path d="M27.55016,14.90731 L32.35056,12.03961 C34.25136,12.47631 36.09276,13.10551 37.88466,13.91841 C39.66776,14.72911 41.12086,15.50131 42.24506,16.21411 C43.36816,16.92801 44.43956,17.72001 45.45046,18.58131 C46.46136,19.44151 47.12136,20.03331 47.41946,20.35341 C47.72746,20.67461 47.98156,20.95181 48.18066,21.18391 L43.38136,24.05161 C43.18116,23.81951 42.92706,23.54231 42.62016,23.22111 C42.32096,22.90101 41.66206,22.30921 40.65116,21.44901 C39.64026,20.58881 38.56886,19.79571 37.44466,19.08291 C36.32156,18.36901 34.86736,17.59791 33.08536,16.78611 C31.29236,15.97321 29.45096,15.34401 27.55016,14.90731" id="Fill-31" fill="#BEC3CF"></path>
                                                <path d="M43.38147,24.05205 L48.18077,21.18435 C48.76267,21.88835 48.85507,22.57255 48.46677,23.22705 L43.66637,26.09475 C44.05467,25.44135 43.96227,24.75715 43.38147,24.05205" id="Fill-33" fill="#BEC3CF"></path>
                                                <g transform="translate(0.000000, 1.876160)">
                                                    <mask id="mask-10" fill="white">
                                                        <use xlink:href="#path-9"></use>
                                                    </mask>
                                                    <g id="Clip-36"></g>
                                                    <path d="M45.58356,61.89359 C46.04776,63.50289 46.29086,65.19139 46.32276,66.95799 C46.41846,72.36229 44.84546,76.81509 41.61146,80.32189 C38.37636,83.82759 34.11826,85.72289 28.85366,86.00889 L29.01866,95.27859 C29.02746,95.77249 28.88336,96.16189 28.59516,96.45009 C28.29816,96.72619 27.91756,96.84169 27.45446,96.78669 L20.72136,95.97599 C20.29456,95.92429 19.91726,95.70869 19.59056,95.33799 C19.27266,94.96729 19.10546,94.54929 19.09666,94.08509 L18.93166,84.81539 C16.73496,84.22909 14.60536,83.43269 12.55276,82.40749 C10.49026,81.38339 8.79296,80.39229 7.44216,79.44299 C6.10126,78.48599 4.85716,77.49379 3.70986,76.45429 C2.56256,75.41699 1.78486,74.65909 1.35916,74.18169 C0.93236,73.71309 0.64196,73.35669 0.46926,73.12679 C-0.10494,72.31939 -0.15444,71.59229 0.33176,70.94109 L5.33456,64.40599 C5.56886,64.08369 5.93846,63.90989 6.47196,63.90769 C11.59466,68.59919 15.67786,71.28869 20.01296,72.72969 C21.24716,73.16199 22.47916,73.44359 23.70786,73.59099 C26.39736,73.91439 28.75356,73.44909 30.77426,72.16649 C32.78726,70.90149 33.77286,68.86979 33.72226,66.07689 C33.70576,65.08909 33.43846,64.11889 32.92476,63.17619 C32.40996,62.23239 31.83576,61.42389 31.21096,60.75179 C30.58506,60.07089 29.60276,59.29869 28.26186,58.40659 C26.92316,57.52549 25.80776,56.82369 24.93656,56.32099 C24.06536,55.80839 22.72886,55.07909 20.92486,54.11329 C19.61476,53.39609 18.58296,52.82629 17.82946,52.42369 C17.07486,52.01119 16.05186,51.42269 14.73956,50.64829 C13.43716,49.87609 12.38556,49.20069 11.59356,48.63089 C10.81036,48.06329 9.85556,47.32299 8.74566,46.41219 C7.63576,45.50249 6.73266,44.64339 6.04296,43.84149 C5.34336,43.02749 4.60746,42.07599 3.82316,40.97709 C3.03886,39.87819 2.43276,38.78149 2.00486,37.69799 C1.56816,36.60239 1.19966,35.38249 0.89166,34.03829 C0.58256,32.70289 0.41536,31.30809 0.39006,29.85609 C0.30206,24.98309 1.85636,20.90539 5.04966,17.62189 C8.24406,14.33839 12.43286,12.48269 17.63256,12.04709 L17.46206,2.51119 C17.45436,2.04589 17.60726,1.66639 17.91306,1.37159 C18.22766,1.07789 18.59836,0.95139 19.02626,1.00309 L25.75936,1.81269 C26.22246,1.86879 26.60856,2.07669 26.91656,2.42539 C27.21576,2.78399 27.37416,3.20199 27.38406,3.70469 L27.55016,13.03159 C29.45096,13.46829 31.29236,14.09749 33.08536,14.91039 C34.86736,15.72109 36.32156,16.49329 37.44466,17.20609 C38.56886,17.91999 39.64026,18.71199 40.65116,19.57329 C41.66206,20.43349 42.32096,21.02529 42.62016,21.34539 C42.92706,21.66659 43.18116,21.94379 43.38136,22.17589 C43.96216,22.88099 44.05456,23.56519 43.66626,24.21859 L39.77006,31.47419 C39.51266,31.97359 39.13426,32.21339 38.63706,32.18149 C37.18506,31.53249 36.94086,31.29489 36.55256,30.92639 C36.16426,30.56669 35.50536,30.01339 34.57696,29.28519 C33.65736,28.55919 32.67616,27.88269 31.63446,27.24469 C30.59166,26.60779 29.34536,26.00389 27.89556,25.42089 C26.44576,24.83899 25.01686,24.46829 23.61876,24.29999 C20.46616,23.92049 17.90536,24.37149 15.93746,25.64089 C13.96956,26.92129 13.00706,28.76709 13.04996,31.16949 C13.06646,32.09019 13.22486,32.95259 13.52296,33.76659 C13.81336,34.57839 14.31606,35.36929 15.03216,36.13709 C15.73946,36.91369 16.40936,37.57259 17.03086,38.12149 C17.65456,38.67919 18.59066,39.33259 19.84796,40.10919 C21.10636,40.87699 22.12166,41.47319 22.89386,41.89669 C23.66496,42.33119 24.83206,42.95489 26.41056,43.77879 C28.18706,44.69399 29.54116,45.41669 30.47506,45.92599 C31.41776,46.44739 32.68386,47.21629 34.29316,48.24369 C35.91126,49.26339 37.17186,50.16319 38.10026,50.94749 C39.02976,51.73289 40.07036,52.73939 41.23856,53.96919 C42.40676,55.19899 43.30876,56.42549 43.94346,57.64979 C44.57816,58.87299 45.12816,60.28429 45.58356,61.89359" id="Fill-35" fill="url(#linearGradient-11)" mask="url(#mask-10)"></path>
                                                </g>
                                            </g>
                                        </g>
                                    </g>
                                </g>
                            </g>
                        </g>
                    </g>
                </g>
            </g>
        </g>
    </g>
</svg>