<?xml version="1.0" encoding="UTF-8"?>
<svg width="285px" height="800px" viewBox="0 0 285 800" version="1.1" xmlns="http://www.w3.org/2000/svg" xmlns:xlink="http://www.w3.org/1999/xlink">
    <!-- Generator: Sketch 61 (89581) - https://sketch.com -->
    <title>编组 47</title>
    <desc>Created with Sketch.</desc>
    <defs>
        <linearGradient x1="50%" y1="1.52818834%" x2="50%" y2="100%" id="linearGradient-1">
            <stop stop-color="#06B283" offset="0%"></stop>
            <stop stop-color="#289170" stop-opacity="0.0991586538" offset="100%"></stop>
        </linearGradient>
        <linearGradient x1="50%" y1="0%" x2="50%" y2="100%" id="linearGradient-2">
            <stop stop-color="#00C290" offset="0%"></stop>
            <stop stop-color="#1CBF8F" stop-opacity="0.0595771416" offset="100%"></stop>
        </linearGradient>
        <linearGradient x1="50%" y1="1.52818834%" x2="50%" y2="100%" id="linearGradient-3">
            <stop stop-color="#007D5B" offset="0%"></stop>
            <stop stop-color="#1E7C5F" stop-opacity="0.498306381" offset="100%"></stop>
        </linearGradient>
        <linearGradient x1="50%" y1="0%" x2="50%" y2="97.3289696%" id="linearGradient-4">
            <stop stop-color="#00C290" offset="0%"></stop>
            <stop stop-color="#1CBF8F" stop-opacity="0" offset="100%"></stop>
        </linearGradient>
        <linearGradient x1="50%" y1="1.52818834%" x2="50%" y2="100%" id="linearGradient-5">
            <stop stop-color="#06B283" offset="0%"></stop>
            <stop stop-color="#1E7C5F" stop-opacity="0" offset="100%"></stop>
        </linearGradient>
        <linearGradient x1="50%" y1="0%" x2="50%" y2="100%" id="linearGradient-6">
            <stop stop-color="#00C290" offset="0%"></stop>
            <stop stop-color="#1CBF8F" offset="100%"></stop>
        </linearGradient>
        <linearGradient x1="50%" y1="1.52818834%" x2="50%" y2="100%" id="linearGradient-7">
            <stop stop-color="#06B283" offset="0%"></stop>
            <stop stop-color="#00C386" stop-opacity="0.498306381" offset="100%"></stop>
        </linearGradient>
        <linearGradient x1="50%" y1="0%" x2="50%" y2="97.3289696%" id="linearGradient-8">
            <stop stop-color="#00C290" offset="0%"></stop>
            <stop stop-color="#1CBF8F" stop-opacity="0" offset="100%"></stop>
        </linearGradient>
        <linearGradient x1="50%" y1="1.52818834%" x2="50%" y2="100%" id="linearGradient-9">
            <stop stop-color="#06B283" offset="0%"></stop>
            <stop stop-color="#1E7C5F" stop-opacity="0.121175699" offset="100%"></stop>
        </linearGradient>
        <linearGradient x1="50%" y1="0%" x2="50%" y2="97.3289696%" id="linearGradient-10">
            <stop stop-color="#00C290" offset="0%"></stop>
            <stop stop-color="#1CBF8F" stop-opacity="0" offset="100%"></stop>
        </linearGradient>
        <linearGradient x1="50%" y1="1.52818834%" x2="50%" y2="100%" id="linearGradient-11">
            <stop stop-color="#06B283" offset="0%"></stop>
            <stop stop-color="#00AF78" stop-opacity="0.498306381" offset="100%"></stop>
        </linearGradient>
        <linearGradient x1="50%" y1="0%" x2="50%" y2="100%" id="linearGradient-12">
            <stop stop-color="#00C290" offset="0%"></stop>
            <stop stop-color="#1CBF8F" stop-opacity="0.54067417" offset="100%"></stop>
        </linearGradient>
        <linearGradient x1="50%" y1="0%" x2="50%" y2="100%" id="linearGradient-13">
            <stop stop-color="#FBFBFB" offset="0%"></stop>
            <stop stop-color="#9FEAD0" offset="100%"></stop>
        </linearGradient>
        <linearGradient x1="50%" y1="0%" x2="50%" y2="100%" id="linearGradient-14">
            <stop stop-color="#FBFBFB" offset="0%"></stop>
            <stop stop-color="#9FEAD0" offset="100%"></stop>
        </linearGradient>
        <linearGradient x1="50%" y1="0%" x2="50%" y2="100%" id="linearGradient-15">
            <stop stop-color="#FBFBFB" offset="0%"></stop>
            <stop stop-color="#9FEAD0" offset="100%"></stop>
        </linearGradient>
        <linearGradient x1="50%" y1="0%" x2="50%" y2="100%" id="linearGradient-16">
            <stop stop-color="#FBFBFB" offset="0%"></stop>
            <stop stop-color="#9FEAD0" offset="100%"></stop>
        </linearGradient>
        <linearGradient x1="50%" y1="0%" x2="50%" y2="100%" id="linearGradient-17">
            <stop stop-color="#FBFBFB" offset="0%"></stop>
            <stop stop-color="#9FEAD0" offset="100%"></stop>
        </linearGradient>
        <linearGradient x1="50%" y1="0%" x2="50%" y2="100%" id="linearGradient-18">
            <stop stop-color="#FBFBFB" offset="0%"></stop>
            <stop stop-color="#9FEAD0" offset="100%"></stop>
        </linearGradient>
    </defs>
    <g id="页面-1" stroke="none" stroke-width="1" fill="none" fill-rule="evenodd">
        <g id="Why-is-KuChain" transform="translate(-1035.000000, 0.000000)">
            <g id="编组-47" transform="translate(1037.000000, 0.000000)">
                <g id="编组备份" transform="translate(0.000000, 573.000000)">
                    <polygon id="Fill-1" fill="url(#linearGradient-1)" points="81.63912 158.65728 81.79392 19.69368 206.85312 8.75208 206.69832 147.71568"></polygon>
                    <polygon id="Fill-2" fill="url(#linearGradient-2)" opacity="0.400000006" points="48.17616 154.28148 48.33096 15.31788 74.05176 35.31228 73.89816 174.27588"></polygon>
                    <polygon id="Fill-3" fill="url(#linearGradient-3)" opacity="0.200000003" points="107.36412 178.65408 107.51892 39.69048 158.68092 35.21448 158.52612 174.17808"></polygon>
                    <polygon id="Fill-4" fill="url(#linearGradient-4)" points="206.69868 147.71604 206.85348 8.75244 249.08868 41.58204 248.93388 180.54684"></polygon>
                    <polygon id="Fill-5" fill="url(#linearGradient-5)" points="33.4662 185.11932 33.621 46.15572 82.5006 41.87892 82.3458 180.84372"></polygon>
                    <polygon id="Fill-6" fill="url(#linearGradient-6)" opacity="0.300000012" points="158.52576 174.17808 158.68056 35.21448 175.19016 48.04728 175.03536 187.01208"></polygon>
                    <polygon id="Fill-7" fill="url(#linearGradient-7)" opacity="0.900000036" points="208.64304 52.42404 208.48824 191.38884 282.38544 184.92324 282.54024 46.92444 282.54024 45.95964"></polygon>
                    <polygon id="Fill-8" fill="url(#linearGradient-8)" points="82.34628 180.84312 82.50108 41.87952 107.45508 61.27632 107.30028 200.24112"></polygon>
                    <polygon id="Fill-9" fill="url(#linearGradient-9)" opacity="0.600000024" points="107.30076 200.24064 107.45556 61.27704 183.63516 54.61224 183.48036 193.57584"></polygon>
                    <polygon id="Fill-10" fill="url(#linearGradient-10)" points="183.48024 193.5762 183.63504 54.6126 200.91144 68.0418 200.75664 207.0054"></polygon>
                    <polygon id="Fill-11" fill="url(#linearGradient-11)" points="59.27904 87.7368 59.12424 226.7004 234.21024 211.3824 234.36384 72.4176"></polygon>
                    <polygon id="Fill-12" fill="url(#linearGradient-12)" opacity="0.900000036" points="0 180.741 59.1252 226.6998 59.2788 87.7362 0.1548 41.7774"></polygon>
                    <path d="M223.41636,-0.00024 L48.33156,15.31776 L74.05236,35.31216 L0.15396,41.77776 L59.27916,87.73656 L234.36396,72.41856 L208.64316,52.42416 L282.54036,45.95976 L282.54036,45.95856 L223.41636,-0.00024 Z M81.79356,19.69296 L206.85396,8.75256 L249.08796,41.58216 L200.19756,45.86016 L175.23996,26.45856 L99.07116,33.12336 L81.79356,19.69296 Z M107.51796,39.68976 L158.67996,35.21376 L175.18956,48.04776 L124.02876,52.52496 L107.51796,39.68976 Z M33.62076,46.15536 L82.50156,41.87856 L107.45556,61.27656 L183.63396,54.61176 L200.91156,68.04216 L75.85236,78.98376 L33.62076,46.15536 Z" id="Fill-13" fill="#69E0BE"></path>
                </g>
                <g id="banner_small备份" opacity="0.800000012" stroke-width="2.1">
                    <g id="编组-3" transform="translate(0.000000, 0.000000)">
                        <polyline id="路径-4" stroke="url(#linearGradient-13)" points="-1.90993887e-12 0 -1.90993887e-12 391.65 138.759351 556.425567"></polyline>
                        <polyline id="路径-4" stroke="url(#linearGradient-14)" points="28.2409452 0 28.2409452 391.65 138.759351 556.425567"></polyline>
                        <polyline id="路径-4" stroke="url(#linearGradient-15)" points="56.4818905 0 56.4818905 391.65 138.759351 556.425567"></polyline>
                        <polyline id="路径-4" stroke="url(#linearGradient-16)" points="84.7228357 0 84.7228357 391.65 138.759351 556.425567"></polyline>
                        <polyline id="路径-4" stroke="url(#linearGradient-17)" points="112.963781 0 112.963781 391.65 138.759351 556.425567"></polyline>
                        <polyline id="路径-4" stroke="url(#linearGradient-18)" points="139.8075 1.1937118e-13 139.8075 391.65 139.809351 556.425567"></polyline>
                    </g>
                    <g id="编组-3" transform="translate(209.800000, 278.500000) scale(-1, 1) translate(-209.800000, -278.500000) translate(140.300000, 0.000000)">
                        <polyline id="路径-4" stroke="url(#linearGradient-13)" points="-1.90993887e-12 0 -1.90993887e-12 391.65 138.759351 556.425567"></polyline>
                        <polyline id="路径-4" stroke="url(#linearGradient-14)" points="28.2409452 0 28.2409452 391.65 138.759351 556.425567"></polyline>
                        <polyline id="路径-4" stroke="url(#linearGradient-15)" points="56.4818905 0 56.4818905 391.65 138.759351 556.425567"></polyline>
                        <polyline id="路径-4" stroke="url(#linearGradient-16)" points="84.7228357 0 84.7228357 391.65 138.759351 556.425567"></polyline>
                        <polyline id="路径-4" stroke="url(#linearGradient-17)" points="112.963781 0 112.963781 391.65 138.759351 556.425567"></polyline>
                    </g>
                </g>
            </g>
        </g>
    </g>
</svg>