<?xml version="1.0" encoding="UTF-8"?>
<svg width="130px" height="42px" viewBox="0 0 130 42" version="1.1" xmlns="http://www.w3.org/2000/svg" xmlns:xlink="http://www.w3.org/1999/xlink">
    <!-- Generator: Sketch 55.1 (78136) - https://sketchapp.com -->
    <title>标签</title>
    <desc>Created with Sketch.</desc>
    <defs>
        <polygon id="path-1" points="0 26.975385 101.197814 26.975385 101.197814 0.0142430033 0 0.0142430033"></polygon>
    </defs>
    <g id="页面-1" stroke="none" stroke-width="1" fill="none" fill-rule="evenodd">
        <g id="内页" transform="translate(-223.000000, -441.000000)">
            <g id="标签" transform="translate(223.000000, 441.000000)">
                <rect id="矩形" fill="#01081E" x="0" y="0" width="130" height="42"></rect>
                <g id="Logo" transform="translate(14.000000, 8.000000)">
                    <polygon id="Fill-1" fill="#FFFFFF" points="11.6187781 0 0 6.53601823 0 9 11.4991408 2.53115844 11.6181338 2.46419104 11.7375563 2.53115844 20.8095852 7.63449286 23 6.4022927"></polygon>
                    <polygon id="Fill-2" fill="#FFFFFF" points="8 12.669874 2.12800584 9 0 10.330126 5.87199416 14"></polygon>
                    <polygon id="Fill-3" fill="#FFFFFF" points="23 12.7085526 11.7236634 6 5 9.9997807 7.17013881 11.2910088 11.6051219 8.65263158 11.7230249 8.58245614 11.8413535 8.65263158 20.8294356 14"></polygon>
                    <polygon id="Fill-4" fill="#FFFFFF" points="15.8036227 11 9 14.7798914 11.1963773 16 18 12.2203158"></polygon>
                    <polygon id="Fill-5" fill="#FFFFFF" points="19 9.55597793 21.2592511 11 23 9.88755365 23 7"></polygon>
                    <polygon id="Fill-6" fill="#FFFFFF" points="0 17.5356196 0 20 14 12.2322948 11.7792398 11"></polygon>
                    <polygon id="Fill-7" fill="#FFFFFF" points="2.40693969 13 4 12.2035977 1.59282427 11 0 11.7964023"></polygon>
                    <polygon id="Fill-8" fill="#FFFFFF" points="0 14.8880034 1.74001662 16 4 14.5557531 0 12"></polygon>
                    <polygon id="Fill-9" fill="#FFFFFF" points="12.0048433 19.5359036 11.8813328 19.4687238 7.2608858 16.9508418 5 18.18289 12.0048433 22 24 15.4638871 24 13 12.1287973 19.4687238"></polygon>
                    <polygon id="Fill-10" fill="#FFFFFF" points="16.5927303 16 19 14.7963209 17.4075058 14 15 15.2036791"></polygon>
                    <polygon id="Fill-11" fill="#FFFFFF" points="19 17.4436883 23 20 23 17.1123781 21.2592511 16"></polygon>
                    <polygon id="Fill-12" fill="#FFFFFF" points="0 20.2912281 11.500217 27 23 20.2914474 20.7870758 19.0002193 11.6215415 24.3471491 11.500217 24.4177632 11.3793266 24.3471491 2.21314121 19"></polygon>
                    <polygon id="Fill-13" fill="#FFFFFF" points="38.1693388 20 35.2864979 14.0842387 33.556751 16.5112122 33.556751 20 32 20 32 8 33.556751 8 33.556751 14.0337169 37.7512654 8 39.6540082 8 36.3242613 12.7021675 40 20"></polygon>
                    <g id="编组">
                        <path d="M46.7897782,19.6452233 C44.6603711,19.6452233 43.0448472,17.9632541 43.0448472,15.4657651 L43.0448472,7.44652265 L44.630778,7.44652265 L44.630778,15.3807387 C44.630778,16.9947299 45.4827137,17.9971352 46.7897782,17.9971352 C48.0968427,17.9971352 48.9634669,16.9947299 48.9634669,15.3807387 L48.9634669,7.44652265 L50.5496138,7.44652265 L50.5496138,15.4657651 C50.5496138,17.9632541 48.9194013,19.6452233 46.7897782,19.6452233" id="Fill-14" fill="#FFFFFF"></path>
                        <path d="M57.96491,19.6452233 C56.8781736,19.6452233 55.9381067,19.186426 55.218584,18.3540735 C54.1903858,17.1647827 54.205063,15.8224876 54.205063,13.4948356 C54.205063,11.1671835 54.1903858,9.82488839 55.218584,8.63559762 C55.9381067,7.80324514 56.8781736,7.34444779 57.96491,7.34444779 C59.8888934,7.34444779 61.3281549,8.65264606 61.6953685,11.0651087 L60.0798445,11.0651087 C59.8301392,9.84193683 59.1253051,8.99253591 57.96491,8.99253591 C57.3482071,8.99253591 56.7900423,9.26423199 56.4228287,9.72281353 C55.9087296,10.3687122 55.7912213,11.0651087 55.7912213,13.4948356 C55.7912213,15.9245624 55.9087296,16.620959 56.4228287,17.2668576 C56.7900423,17.7254391 57.3482071,17.9971352 57.96491,17.9971352 C59.1253051,17.9971352 59.8448278,17.1477343 60.094317,15.9245624 L61.6953685,15.9245624 C61.3428434,18.3370251 59.8595163,19.6452233 57.96491,19.6452233" id="Fill-16" fill="#FFFFFF"></path>
                        <polygon id="Fill-18" fill="#FFFFFF" points="71.1080692 19.5432132 71.1080692 14.2594906 66.8639436 14.2594906 66.8639436 19.5432132 65.2775807 19.5432132 65.2775807 7.44637159 66.8639436 7.44637159 66.8639436 12.6114025 71.1080692 12.6114025 71.1080692 7.44637159 72.6944321 7.44637159 72.6944321 19.5432132"></polygon>
                        <path d="M80.1538371,10.1816972 L78.5236246,15.550662 L81.739984,15.550662 L80.1538371,10.1816972 Z M82.9001631,19.5432348 L82.1806404,17.1137237 L78.0535911,17.1137237 L77.3338524,19.5432348 L75.6451017,19.5432348 L79.478164,7.44639317 L80.7558515,7.44639317 L84.5891298,19.5432348 L82.9001631,19.5432348 Z" id="Fill-20" fill="#FFFFFF"></path>
                        <mask id="mask-2" fill="white">
                            <use xlink:href="#path-1"></use>
                        </mask>
                        <g id="Clip-23"></g>
                        <polygon id="Fill-22" fill="#FFFFFF" mask="url(#mask-2)" points="87.5400586 19.5433427 89.1262055 19.5433427 89.1262055 7.44650107 87.5400586 7.44650107"></polygon>
                        <polygon id="Fill-24" fill="#FFFFFF" mask="url(#mask-2)" points="99.7439069 19.5432132 94.9120235 11.0312923 94.9120235 19.5432132 93.3258766 19.5432132 93.3258766 7.44637159 94.7798266 7.44637159 99.61171 15.9414598 99.61171 7.44637159 101.197641 7.44637159 101.197641 19.5432132"></polygon>
                    </g>
                </g>
            </g>
        </g>
    </g>
</svg>