<?xml version="1.0" encoding="UTF-8"?>
<svg width="17px" height="18px" viewBox="0 0 17 18" version="1.1" xmlns="http://www.w3.org/2000/svg" xmlns:xlink="http://www.w3.org/1999/xlink">
    <!-- Generator: Sketch 55.1 (78136) - https://sketchapp.com -->
    <title>形状</title>
    <desc>Created with Sketch.</desc>
    <g id="页面-1" stroke="none" stroke-width="1" fill="none" fill-rule="evenodd" opacity="0.600000024">
        <g id="1440&quot;-Web-" transform="translate(-664.000000, -3485.000000)" fill="#FFFFFF" fill-rule="nonzero">
            <g id="Bottom" transform="translate(0.000000, 3285.000000)">
                <g id="编组-16" transform="translate(656.000000, 69.000000)">
                    <g id="Discord" transform="translate(0.000000, 120.000000)">
                        <g id="github" transform="translate(0.000000, 4.000000)">
                            <path d="M22.289,7 C23.3435,7 24.194,7.85275 24.24425,8.85625 L24.24425,25 L22.2365,23.29525 L21.134,22.29175 L19.931,21.24325 L20.4335,22.897 L9.90499999,22.897 C8.85349999,22.897 8,22.09825 8,21.04 L8,8.85999999 C8,7.85649999 8.855,7.00225 9.90875001,7.00225 L22.28375,7.00225 L22.289,7 Z M17.7005,11.26225 L17.678,11.26225 L17.5265,11.41225 C19.08125,11.86225 19.8335,12.565 19.8335,12.565 C18.8315,12.064 17.9285,11.8135 17.0255,11.71225 C16.373,11.611 15.7205,11.66425 15.16925,11.71225 L15.01925,11.71225 C14.66675,11.71225 13.91675,11.86225 12.91175,12.2635 C12.5615,12.41575 12.3605,12.5155 12.3605,12.5155 C12.3605,12.5155 13.112,11.764 14.768,11.36275 L14.66675,11.2615 C14.66675,11.2615 13.41275,11.2135 12.059,12.214 C12.059,12.214 10.70525,14.572 10.70525,17.479 C10.70525,17.479 11.45525,18.784 13.5125,18.8335 C13.5125,18.8335 13.8125,18.43375 14.11625,18.082 C12.96125,17.731 12.51125,17.029 12.51125,17.029 C12.51125,17.029 12.61175,17.0785 12.7625,17.179 L12.8075,17.179 C12.83,17.179 12.8405,17.19025 12.8525,17.2015 L12.8525,17.206 C12.8645,17.218 12.875,17.2285 12.8975,17.2285 C13.145,17.3305 13.3925,17.431 13.595,17.5285 C14.0280735,17.7138864 14.4810584,17.8487753 14.945,17.9305 C15.6425,18.03175 16.442,18.0805 17.3525,17.9305 C17.8025,17.82925 18.2525,17.73025 18.7025,17.52925 C18.995,17.37925 19.355,17.22925 19.75025,16.9765 C19.75025,16.9765 19.30025,17.6785 18.0965,18.0295 C18.344,18.379 18.69275,18.7795 18.69275,18.7795 C20.75075,18.7345 21.55025,17.4295 21.59525,17.485 C21.59525,14.5825 20.234,12.22 20.234,12.22 C19.00775,11.3095 17.86025,11.275 17.65775,11.275 L17.69975,11.26 L17.7005,11.26225 Z M17.8265,14.572 C18.35375,14.572 18.779,15.022 18.779,15.57325 C18.779,16.12825 18.3515,16.57825 17.8265,16.57825 C17.3015,16.57825 16.874,16.12825 16.874,15.57775 C16.8755,15.02275 17.30375,14.57425 17.8265,14.57425 L17.8265,14.572 Z M14.41925,14.572 C14.94425,14.572 15.36875,15.022 15.36875,15.57325 C15.36875,16.12825 14.94125,16.57825 14.41625,16.57825 C13.89125,16.57825 13.46375,16.12825 13.46375,15.57775 C13.46375,15.02275 13.89125,14.57425 14.41625,14.57425 L14.41925,14.572 Z" id="形状"></path>
                        </g>
                    </g>
                </g>
            </g>
        </g>
    </g>
</svg>