<?xml version="1.0" encoding="UTF-8"?>
<svg width="18px" height="18px" viewBox="0 0 18 18" version="1.1" xmlns="http://www.w3.org/2000/svg" xmlns:xlink="http://www.w3.org/1999/xlink">
    <!-- Generator: Sketch 55.1 (78136) - https://sketchapp.com -->
    <title>Github</title>
    <desc>Created with Sketch.</desc>
    <g id="页面-1" stroke="none" stroke-width="1" fill="none" fill-rule="evenodd" opacity="0.600000024">
        <g id="1440&quot;-Web-" transform="translate(-663.000000, -3405.000000)" fill="#FFFFFF" fill-rule="nonzero">
            <g id="Bottom" transform="translate(0.000000, 3285.000000)">
                <g id="编组-16" transform="translate(656.000000, 69.000000)">
                    <g id="Github" transform="translate(0.000000, 40.000000)">
                        <g id="github" transform="translate(0.000000, 4.000000)">
                            <path d="M15.9994375,7 C11.02975,7 7,11.0502222 7,16.047551 C7,20.0440567 9.5785,23.43498 13.1554375,24.6314438 C13.6054375,24.714563 13.7696875,24.4352374 13.7696875,24.1954923 C13.7696875,23.9806263 13.7618125,23.411797 13.7573125,22.6569392 C11.253625,23.2037164 10.7254375,21.4440779 10.7254375,21.4440779 C10.3165,20.3991508 9.7264375,20.1209562 9.7264375,20.1209562 C8.909125,19.5594775 9.7883125,19.5707863 9.7883125,19.5707863 C10.691125,19.6346806 11.1664375,20.5031912 11.1664375,20.5031912 C11.9696875,21.8856838 13.273,21.4864856 13.786,21.2546566 C13.8675625,20.6699952 14.1004375,20.2713624 14.3575,20.0451876 C12.3589375,19.8167513 10.258,19.0409724 10.258,15.5742805 C10.258,14.5864627 10.6084375,13.7790193 11.1844375,13.1462956 C11.091625,12.9172939 10.7828125,11.9978941 11.2721875,10.752237 C11.2721875,10.752237 12.0281875,10.5090996 13.7471875,11.6795532 C14.4655,11.4788232 15.235,11.378741 16.0005625,11.3747829 C16.765,11.378741 17.5350625,11.4788232 18.2539375,11.6795532 C19.9718125,10.5090996 20.726125,10.752237 20.726125,10.752237 C21.2171875,11.9978941 20.908375,12.9172939 20.8155625,13.1462956 C21.3926874,13.7790193 21.740875,14.5864627 21.740875,15.5742805 C21.740875,19.0494538 19.6365625,19.8144895 17.6318125,20.0384025 C17.9546875,20.317728 18.2426875,20.8695944 18.2426875,21.713791 C18.2426875,22.92326 18.2314375,23.8986381 18.2314375,24.1954923 C18.2314375,24.4374993 18.3934375,24.7190866 18.8501875,24.6303129 C22.4237499,23.4315872 25,20.0429258 25,16.047551 C25,11.0502222 20.97025,7 15.9994375,7" id="Github"></path>
                        </g>
                    </g>
                </g>
            </g>
        </g>
    </g>
</svg>