<?xml version="1.0" encoding="UTF-8"?>
<svg width="19px" height="16px" viewBox="0 0 19 16" version="1.1" xmlns="http://www.w3.org/2000/svg" xmlns:xlink="http://www.w3.org/1999/xlink">
    <!-- Generator: Sketch 55.1 (78136) - https://sketchapp.com -->
    <title>Reddit</title>
    <desc>Created with Sketch.</desc>
    <g id="页面-1" stroke="none" stroke-width="1" fill="none" fill-rule="evenodd" opacity="0.600000024">
        <g id="1440&quot;-Web-" transform="translate(-663.000000, -3446.000000)" fill="#FFFFFF" fill-rule="nonzero">
            <g id="Bottom" transform="translate(0.000000, 3285.000000)">
                <g id="编组-16" transform="translate(656.000000, 69.000000)">
                    <g id="Reddit" transform="translate(0.000000, 80.000000)">
                        <g transform="translate(7.000000, 12.000000)">
                            <path d="M11.8697222,10.2887963 C11.1858981,10.2887963 10.6112801,9.73924568 10.6112801,9.0616553 C10.6112801,8.38406493 11.1858981,7.81638498 11.8697222,7.81638498 C12.5535463,7.81638498 13.1081528,8.38406493 13.1081528,9.0616553 C13.1081528,9.73924568 12.5535463,10.2887963 11.8697222,10.2887963 M12.1601759,12.6705597 C11.5232361,13.3011267 10.5409537,13.6076286 9.1572963,13.6076286 C9.1544375,13.6076286 9.15100694,13.6070621 9.14757639,13.6070621 C9.14471759,13.6070621 9.14128704,13.6076286 9.13785648,13.6076286 C7.75419907,13.6076286 6.77248843,13.3011267 6.13612037,12.6705597 C5.9405787,12.4768008 5.9405787,12.1635004 6.13612037,11.9703079 C6.33109028,11.777115 6.64727315,11.777115 6.84281481,11.9703079 C7.28192593,12.4054159 8.03264583,12.6173045 9.13785648,12.6173045 C9.14128704,12.6173045 9.14471759,12.617871 9.14757639,12.617871 C9.15100694,12.617871 9.1544375,12.6173045 9.1572963,12.6173045 C10.2625069,12.6173045 11.0137986,12.4054159 11.4534815,11.9703079 C11.6490231,11.7765486 11.965206,11.777115 12.1601759,11.9703079 C12.3551458,12.1640668 12.3551458,12.4773672 12.1601759,12.6705597 M5.18814352,9.0616553 C5.18814352,8.38463173 5.76161806,7.81638498 6.44487037,7.81638498 C7.12869444,7.81638498 7.68330093,8.38463173 7.68330093,9.0616553 C7.68330093,9.73924568 7.12869444,10.2887963 6.44487037,10.2887963 C5.76161806,10.2887963 5.18814352,9.73924568 5.18814352,9.0616553 M15.2453889,1.24443962 C15.7085139,1.24443962 16.0853032,1.61779384 16.0853032,2.07613054 C16.0853032,2.53503367 15.7085139,2.9083879 15.2453889,2.9083879 C14.7822639,2.9083879 14.4054745,2.53503367 14.4054745,2.07613054 C14.4054745,1.61779384 14.7822639,1.24443962 15.2453889,1.24443962 M18.2962963,7.71383996 C18.2962963,6.51219373 17.3100116,5.53490011 16.0973102,5.53490011 C15.5724352,5.53490011 15.0904421,5.71846113 14.7119375,6.02383013 C13.371162,5.1887399 11.6696065,4.68564588 9.84569444,4.57913513 L10.7971019,1.59853127 L13.4117569,2.20870246 C13.4803681,3.15200308 14.2762569,3.89871227 15.2453889,3.89871227 C16.2591181,3.89871227 17.0841667,3.08118498 17.0841667,2.07613054 C17.0841667,1.07164253 16.2591181,0.254115224 15.2453889,0.254115224 C14.5364074,0.254115224 13.9200509,0.654097418 13.6130162,1.23820744 L10.5746875,0.529456949 C10.3202546,0.469969591 10.062963,0.615005857 9.98406019,0.862020341 L8.80280556,4.56157221 C6.83766898,4.60916202 4.99031481,5.1139557 3.55119676,5.99776896 C3.17783796,5.70826362 2.70842361,5.53490011 2.19898611,5.53490011 C0.986284722,5.53490011 0,6.51219373 0,7.71383996 C0,8.45658306 0.377361111,9.11321122 0.951979167,9.50639481 C0.927965278,9.67919152 0.915386574,9.85312144 0.915386574,10.0293174 C0.915386574,11.5312337 1.79646759,12.9283389 3.39625,13.9628534 C4.92970833,14.9548775 6.9594537,15.5010288 9.1109838,15.5010288 C11.2625139,15.5010288 13.2922593,14.9548775 14.8257176,13.9628534 C16.4255,12.9283389 17.306581,11.5312337 17.306581,10.0293174 C17.306581,9.86898471 17.2957176,9.70978521 17.275706,9.55171855 C17.8886319,9.16476675 18.2962963,8.48547711 18.2962963,7.71383996"></path>
                        </g>
                    </g>
                </g>
            </g>
        </g>
    </g>
</svg>