<?xml version="1.0" encoding="UTF-8"?>
<svg width="18px" height="18px" viewBox="0 0 18 18" version="1.1" xmlns="http://www.w3.org/2000/svg" xmlns:xlink="http://www.w3.org/1999/xlink">
    <!-- Generator: Sketch 55.1 (78136) - https://sketchapp.com -->
    <title>Combined-Shape</title>
    <desc>Created with Sketch.</desc>
    <g id="页面-1" stroke="none" stroke-width="1" fill="none" fill-rule="evenodd" opacity="0.600000024">
        <g id="1440&quot;-Web-" transform="translate(-663.000000, -3525.000000)" fill="#FFFFFF" fill-rule="nonzero">
            <g id="Bottom" transform="translate(0.000000, 3285.000000)">
                <g id="编组-16" transform="translate(656.000000, 69.000000)">
                    <g id="Telegram" transform="translate(0.000000, 160.000000)">
                        <g id="github" transform="translate(0.000000, 4.000000)">
                            <path d="M25,16 C25,20.9725 20.9725,25 16,25 C11.0275,25 7,20.9725 7,16 C7,11.0275 11.0275,7 16,7 C20.9725,7 25,11.0275 25,16 Z M14.5,17.83 L18.1299999,20.5075 C18.5425,20.7325 18.8425,20.62 18.9475,20.125 L20.4249999,13.165 C20.575,12.5575 20.1925,12.2875 19.795,12.4675 L11.125,15.8125 C10.5325,16.0525 10.54,16.3825 11.02,16.525 L13.2475,17.2225 L18.3999999,13.975 C18.64,13.825 18.865,13.9075 18.685,14.0725 L14.5,17.83 Z" id="Combined-Shape"></path>
                        </g>
                    </g>
                </g>
            </g>
        </g>
    </g>
</svg>