<?xml version="1.0" encoding="UTF-8"?>
<svg width="18px" height="15px" viewBox="0 0 18 15" version="1.1" xmlns="http://www.w3.org/2000/svg" xmlns:xlink="http://www.w3.org/1999/xlink">
    <!-- Generator: Sketch 55.1 (78136) - https://sketchapp.com -->
    <title>Path</title>
    <desc>Created with Sketch.</desc>
    <g id="页面-1" stroke="none" stroke-width="1" fill="none" fill-rule="evenodd" opacity="0.600000024">
        <g id="1440&quot;-Web-" transform="translate(-663.000000, -3567.000000)" fill="#FFFFFF" fill-rule="nonzero">
            <g id="Bottom" transform="translate(0.000000, 3285.000000)">
                <g id="编组-16" transform="translate(656.000000, 69.000000)">
                    <g id="Twitter" transform="translate(0.000000, 200.000000)">
                        <g id="github" transform="translate(0.000000, 4.000000)">
                            <path d="M25,10.718463 C24.337582,11.0108716 23.6256794,11.2071228 22.8783505,11.2965323 C23.6408622,10.8427367 24.2262418,10.1235239 24.502343,9.268791 C23.7893158,9.68828491 22.9981256,9.99250234 22.1574508,10.158388 C21.4837863,9.44536082 20.5238987,9 19.4622306,9 C17.4226804,9 15.7688847,10.6408622 15.7688847,12.6657919 C15.7688847,12.9508903 15.8014995,13.2326148 15.8644798,13.5008435 C12.7958762,13.3467666 10.0747891,11.8880974 8.25285849,9.67197751 C7.93570759,10.2129335 7.7529522,10.841612 7.7529522,11.5130272 C7.7529522,12.785567 8.40524836,13.9062793 9.39606373,14.5636364 C8.79100281,14.5450797 8.22136832,14.379194 7.72371134,14.1047797 C7.72314901,14.1199625 7.72314901,14.1351453 7.72314901,14.1514527 C7.72314901,15.9272727 8.99625117,17.4078725 10.6854733,17.7447048 C10.3756326,17.8284911 10.0494845,17.8723524 9.7126523,17.8723524 C9.47478912,17.8723524 9.24311152,17.8504217 9.0176195,17.8071227 C9.48716026,19.2635426 10.8513589,20.3229615 12.4674789,20.3516401 C11.203374,21.3345829 9.6108716,21.9210872 7.88116214,21.9210872 C7.58256795,21.9210872 7.28903468,21.9036551 7,21.8687909 C8.63411434,22.9090909 10.5752577,23.5158388 12.6609184,23.5158388 C19.4532333,23.5158388 23.1673851,17.9319587 23.1673851,13.0897844 C23.1673851,12.931209 23.1640112,12.7726335 23.1572633,12.6157451 C23.8792877,12.0984068 24.5045923,11.4534208 25,10.718463 Z" id="Path"></path>
                        </g>
                    </g>
                </g>
            </g>
        </g>
    </g>
</svg>